<svg width="24" height="18" viewBox="0 0 24 18" fill="none" xmlns="http://www.w3.org/2000/svg">
<path d="M24 1.62059V16.3986C24 16.8194 23.6541 17.1653 23.2333 17.1653H0.766688C0.345891 17.1653 0 16.8194 0 16.3986V1.62059C0 1.1998 0.345891 0.857422 0.766688 0.857422H23.2333C23.6541 0.857422 24 1.1998 24 1.62059Z" fill="url(#paint0_linear_431_8851)"/>
<g opacity="0.2">
<path d="M14.0314 5.69896C13.9795 5.6406 13.9471 5.58876 13.8823 5.61792C13.8175 5.64707 13.8175 5.68921 13.7494 5.63737C13.6813 5.58553 13.7105 5.52388 13.5581 5.46881C13.4057 5.41368 13.3733 5.38129 13.2079 5.3586C13.0426 5.33592 12.9226 5.31323 12.9129 5.31323C12.9032 5.31323 12.9486 5.34238 12.8837 5.37482C12.8189 5.40726 12.767 5.41373 12.7022 5.37159C12.6374 5.32945 12.6406 5.31646 12.5304 5.32621C12.4201 5.33596 12.3553 5.36188 12.3067 5.36835C12.2581 5.37482 12.3067 5.36512 12.2321 5.31323C12.1576 5.26134 12.2094 5.23218 12.0797 5.24189C11.9501 5.25164 11.895 5.25763 11.8625 5.24001C11.8301 5.22243 11.869 5.13163 11.7426 5.09273C11.6161 5.05382 11.5902 5.08303 11.5254 5.07328C11.4605 5.06357 11.4638 5.04735 11.279 5.03437C11.0942 5.02138 11.1039 5.05059 10.9775 5.08949C10.8511 5.1284 10.8186 5.1284 10.7019 5.12193C10.5852 5.11546 10.6144 5.18676 10.543 5.19651C10.4717 5.20621 10.3583 5.13492 10.3453 5.09278C10.3323 5.05064 10.4425 5.00526 10.3453 4.96635C10.248 4.92745 10.0665 4.85287 10.0308 4.86585C9.99512 4.87884 10.0146 4.9372 9.94974 4.95337C9.88491 4.96959 9.80063 4.96959 9.70013 4.92421C9.59963 4.87884 9.56073 4.85638 9.45376 4.86435C9.34679 4.87232 9.28843 4.90476 9.19763 4.91123C9.10684 4.9177 9.05176 4.87879 9.11335 4.84963C9.17494 4.82048 9.25276 4.73292 9.25276 4.69078C9.25276 4.64863 9.29813 4.55784 9.1944 4.54813C9.09066 4.53843 9.07121 4.60973 8.97394 4.54813C8.87668 4.48654 8.75026 4.48331 8.71459 4.50276C8.67891 4.52221 8.67891 4.55465 8.61732 4.56435C8.55573 4.57406 8.57841 4.62918 8.50384 4.64863C8.42926 4.66809 8.43901 4.60973 8.26716 4.62595C8.09532 4.64217 7.92999 4.66485 7.88785 4.71346C7.84571 4.76207 7.8976 4.8172 7.8068 4.85934C7.71601 4.90148 7.50854 4.86904 7.48262 4.90471C7.4567 4.94038 7.5961 5.06357 7.50207 5.1187C7.40804 5.17382 7.34968 5.07979 7.13251 5.1187C6.91529 5.1576 6.94121 5.15113 6.86021 5.19974C6.77916 5.24835 6.76294 5.21596 6.71434 5.28403C6.66573 5.35209 6.5198 5.41373 6.4193 5.41373C6.3188 5.41373 6.27666 5.35214 6.14696 5.40403C6.0173 5.45592 6.03676 5.49154 5.83248 5.47537C5.62824 5.45915 5.54396 5.46238 5.50505 5.48835C5.46615 5.51428 5.46615 5.57915 5.36565 5.60831C5.26515 5.63746 5.10952 5.68935 5.07062 5.67965C5.03171 5.66995 4.89882 5.73478 4.80802 5.74448C4.71723 5.75423 4.66538 5.74771 4.63623 5.71204C4.60702 5.67637 4.57463 5.61478 4.62001 5.63423C4.66538 5.65368 4.70429 5.6796 4.78534 5.67637C4.86638 5.67313 4.95718 5.60831 4.93773 5.57264C4.91827 5.53696 4.93449 5.48512 4.77563 5.44621C4.61677 5.40731 4.54871 5.41378 4.42876 5.32626C4.3088 5.23874 4.47413 5.18038 4.1597 5.21278C3.84521 5.24521 3.76093 5.2776 3.63451 5.37163C3.50809 5.46567 3.48212 5.54671 3.35246 5.66015C3.2228 5.77363 3.26818 5.80603 3.10609 5.88707C2.94399 5.96812 2.91807 5.92921 2.86941 6.0524C2.82076 6.17559 2.78837 6.31823 2.88887 6.3442C2.98937 6.37012 3.0931 6.32474 3.14499 6.30529C3.19688 6.28584 3.23579 6.32151 3.24226 6.37987C3.24873 6.43823 3.25196 6.53549 3.31684 6.54843C3.38166 6.56142 3.51784 6.47062 3.51137 6.37664C3.5049 6.2826 3.48221 6.21778 3.54704 6.12374C3.61187 6.02971 3.65401 5.96165 3.72212 5.92921C3.79018 5.89678 3.88421 5.83846 3.84854 5.91299C3.81287 5.98757 3.74804 6.07509 3.79341 6.14967C3.83879 6.22424 3.94252 6.17235 3.96849 6.24693C3.99441 6.32151 3.93282 6.39281 3.9166 6.41878C3.90038 6.4447 3.95551 6.47714 3.88093 6.52903C3.80635 6.58087 3.75774 6.63599 3.6767 6.69759C3.59565 6.75918 3.35574 6.80132 3.30062 6.78838C3.24549 6.7754 3.15474 6.78838 3.14823 6.71381C3.14176 6.63923 3.22927 6.55818 3.13852 6.52251C3.04773 6.48684 2.94723 6.53549 2.91807 6.66192C2.88887 6.78834 2.84349 6.81103 2.76896 6.87262C2.69438 6.93421 2.75598 7.12223 2.5388 7.1579C2.32159 7.19357 2.1984 7.14168 2.21462 7.21949C2.23084 7.29731 2.36701 7.24865 2.37024 7.37835C2.37348 7.50801 2.40591 7.55343 2.31188 7.57935C2.21785 7.60528 2.19516 7.55667 2.06874 7.59881C1.94232 7.64095 1.94879 7.79981 1.92287 7.86787C1.89695 7.93593 1.88396 7.99753 1.96824 8.02673C2.05252 8.05589 2.1887 8.10778 2.2892 8.06563C2.3897 8.02349 2.44805 8.01703 2.46104 7.93921C2.47402 7.8614 2.50641 7.81279 2.57452 7.79981C2.64259 7.78682 2.68801 7.70901 2.72687 7.66364C2.76577 7.61826 2.72687 7.63448 2.82737 7.63771C2.92787 7.64095 3.0219 7.53398 3.05752 7.56313C3.0932 7.59229 3.20016 7.65393 3.26823 7.71876C3.33629 7.78359 3.43032 7.80304 3.4141 7.90031C3.39788 7.99757 3.39141 8.11035 3.45624 8.08153C3.52107 8.0527 3.49838 7.96513 3.54052 7.92299C3.58266 7.88085 3.63779 7.91976 3.63132 7.84518C3.62485 7.7706 3.5146 7.75115 3.45624 7.68309C3.39788 7.61503 3.35251 7.54045 3.4238 7.56313C3.4951 7.58582 3.63127 7.64742 3.64426 7.69931C3.65724 7.7512 3.77719 7.85817 3.79013 7.95867C3.80312 8.05917 3.87441 8.14996 3.90685 8.09807C3.93929 8.04618 3.91009 8.00728 3.98143 7.99434C4.05273 7.98135 4.0268 7.92951 4.06571 7.8614C4.10462 7.79334 4.21159 7.89384 4.25049 7.76737C4.2894 7.64095 4.20188 7.5974 4.2991 7.5284C4.39637 7.4594 4.43851 7.41403 4.46766 7.47562C4.49682 7.53721 4.5714 7.60204 4.60707 7.53721C4.64274 7.47238 4.54224 7.45293 4.62652 7.40428C4.7108 7.35567 4.78538 7.29731 4.7627 7.38159C4.74001 7.46587 4.70757 7.52099 4.76593 7.57935C4.82429 7.63771 4.99609 7.67338 4.9021 7.72523C4.80807 7.77712 4.67195 7.74792 4.54548 7.80304C4.41905 7.85817 4.3996 7.8322 4.36716 7.93598C4.33473 8.03971 4.33149 8.07215 4.43846 8.07215C4.54543 8.07215 4.59409 7.99757 4.62324 8.0916C4.6524 8.18563 4.64593 8.39634 4.60055 8.41579C4.55518 8.43524 4.53573 8.40609 4.33473 8.42878C4.13373 8.45146 4.14343 8.50012 3.98134 8.41903C3.81924 8.33798 3.78034 8.23748 3.72198 8.33798C3.66362 8.43848 3.70576 8.48962 3.57934 8.46407C3.45291 8.43848 3.54366 8.3834 3.3751 8.34126C3.20654 8.29912 3.1741 8.3121 3.1741 8.23753C3.1741 8.16295 3.19679 8.06568 3.06385 8.05598C2.93091 8.04628 2.69752 8.10135 2.50623 8.15648C2.31493 8.2116 2.35384 8.14349 2.13338 8.22131C1.91293 8.29912 1.77676 8.32504 1.75407 8.44499C1.73138 8.56495 1.6568 8.63301 1.6082 8.69788C1.55959 8.76271 1.53362 9.04804 1.52068 9.22307C1.5077 9.39815 1.55312 9.3171 1.50446 9.44676C1.4558 9.57646 1.59198 9.7807 1.6471 9.83578C1.70223 9.8909 1.88054 10.0659 1.99398 10.0789C2.10746 10.0919 2.09771 10.0368 2.27279 10.0627C2.44787 10.0886 2.44463 9.98812 2.62295 10.0335C2.80126 10.0789 2.86609 10.1114 2.96982 10.1665C3.07355 10.2216 3.0833 10.267 3.0833 10.3999C3.0833 10.5329 3.08977 10.4324 3.1838 10.6204C3.27784 10.8084 3.44316 10.9835 3.3459 11.1456C3.24863 11.3077 3.20649 11.3368 3.26809 11.4892C3.32968 11.6416 3.50152 11.9496 3.52098 12.1052C3.54043 12.2608 3.49182 12.2705 3.51127 12.3645C3.53073 12.4586 3.7058 12.5623 3.86466 12.4975C4.02352 12.4327 4.07213 12.4294 4.20184 12.3095C4.33149 12.1895 4.46119 12.2803 4.55846 12.0307C4.65573 11.781 4.62329 11.7518 4.66543 11.6513C4.70757 11.5508 4.96046 11.405 4.97016 11.2234C4.97987 11.0419 4.91504 10.9057 4.93773 10.7307C4.96041 10.5556 4.97663 10.4032 5.1452 10.2638C5.31376 10.1244 5.35266 10.2606 5.46938 9.99801C5.5861 9.73542 5.72551 9.67059 5.5958 9.67382C5.4661 9.67706 5.21326 9.78079 5.10629 9.72243C4.99932 9.66407 4.82424 9.39824 4.78857 9.27506C4.7529 9.15187 4.76588 9.21346 4.70429 9.03838C4.6427 8.86331 4.58434 8.77256 4.55841 8.70445C4.53249 8.63638 4.51627 8.51643 4.59409 8.6137C4.6719 8.71096 4.74648 8.85684 4.85021 9.08053C4.95395 9.30421 5.01554 9.47606 5.10634 9.51173C5.19713 9.5474 5.22629 9.58954 5.36246 9.53442C5.49863 9.47929 5.54724 9.47282 5.67695 9.40148C5.8066 9.33013 5.88441 9.3172 5.97845 9.22317C6.07248 9.12913 6.28641 9.09023 6.04979 8.99948C5.81312 8.90873 5.73207 8.96057 5.66401 8.85684C5.59594 8.7531 5.4857 8.64937 5.58619 8.66559C5.6867 8.68181 5.64779 8.71096 5.76127 8.73365C5.87476 8.75634 5.9558 8.70524 6.0174 8.78751C6.07899 8.86982 6.18273 8.92818 6.27999 8.88276C6.37726 8.83738 6.41616 8.81146 6.5199 8.86977C6.62363 8.92813 6.55557 9.09346 6.71119 9.13884C6.86682 9.18421 6.89274 9.01565 6.92518 9.22963C6.95762 9.44362 7.01921 9.64134 7.07429 9.68353C7.12941 9.72567 7.04513 9.9202 7.22016 9.86831C7.39524 9.81642 7.44709 9.82293 7.44709 9.64139C7.44709 9.45984 7.44062 9.41446 7.5346 9.34959C7.62863 9.28476 7.75829 9.21993 7.81665 9.15182C7.87501 9.08376 7.83934 9.04157 7.95605 9.05456C8.07277 9.06754 8.36129 9.39173 8.3483 9.45979C8.33532 9.52785 8.32238 9.55382 8.37746 9.59596C8.43259 9.6381 8.42935 9.65109 8.47149 9.80343C8.51363 9.95582 8.50393 9.93309 8.63682 10.0758C8.76976 10.2184 8.95777 10.3189 8.94155 10.2152C8.92534 10.1114 8.86051 10.1244 8.80215 9.95906C8.74379 9.79373 8.67573 9.64457 8.75354 9.68676C8.83135 9.7289 8.80866 9.79049 8.88971 9.80348C8.97076 9.81646 8.98374 9.72243 9.04534 9.69323C9.10693 9.66407 9.21718 9.4274 9.12962 9.32367C9.0421 9.21993 8.9513 9.14859 9.0421 9.1162C9.1329 9.08376 9.09071 9.10649 9.19773 9.1259C9.30469 9.14535 9.2723 9.09346 9.40196 9.05784C9.53162 9.02217 9.71968 8.96381 9.82018 8.83415C9.92068 8.70449 10.0309 8.66559 10.0017 8.49374C9.97257 8.32195 9.93366 8.24737 9.87207 8.20195C9.81048 8.15657 9.80724 8.12413 9.86232 8.10468C9.91745 8.08523 10.0601 8.08199 9.97904 8.03985C9.89799 7.99771 9.9369 8.0204 9.84287 7.99771C9.74884 7.97503 9.64834 8.0204 9.73262 7.94259C9.8169 7.86478 9.88173 7.79995 9.88173 7.79995C9.88173 7.79995 9.85904 7.81617 9.91416 7.87453C9.96929 7.93288 10.005 7.90696 10.0309 7.89398C10.0568 7.88099 10.1346 7.82592 10.1444 7.88751C10.1541 7.9491 10.0439 7.99448 10.1087 8.01717C10.1735 8.03985 10.2319 7.98149 10.206 8.09821C10.18 8.21493 10.2319 8.3219 10.287 8.26354C10.3421 8.20518 10.4232 8.03338 10.407 7.96204C10.3907 7.89074 10.3356 7.92637 10.4102 7.79671C10.4848 7.66706 10.4848 7.57626 10.5853 7.59248C10.6858 7.6087 10.783 7.51143 10.8219 7.47253C10.8609 7.43362 11.0262 7.34282 11.0521 7.23262C11.078 7.12237 11.0651 7.1062 11.1007 6.97973C11.1364 6.85331 11.2142 6.85331 11.1169 6.79495C11.0197 6.73659 10.9451 6.74957 10.9289 6.6847C10.9127 6.61987 11.1883 6.30538 11.3082 6.25678C11.4282 6.20817 11.5125 6.23085 11.5935 6.26648C11.6746 6.30215 11.7005 6.33778 11.7751 6.2924C11.8496 6.24703 11.8982 6.22106 11.9404 6.21782C11.9825 6.21459 12.0992 6.12703 12.1479 6.16593C12.1965 6.20484 12.203 6.24698 12.2613 6.22106C12.3197 6.19514 12.3975 6.05896 12.4234 6.10757C12.4494 6.15618 12.4429 6.21454 12.3715 6.30857C12.3002 6.4026 12.2386 6.41882 12.1479 6.49335C12.0571 6.56793 12.0214 6.64574 12.0214 6.71381C12.0214 6.78187 11.9955 7.00884 12.0311 7.01207C12.0668 7.01531 12.0765 7.0056 12.1705 6.88565C12.2646 6.7657 12.3132 6.75923 12.3748 6.71381C12.4364 6.66843 12.4591 6.61331 12.4688 6.50634C12.4786 6.39937 12.4104 6.3734 12.5109 6.31832C12.6114 6.2632 12.7314 6.20484 12.8319 6.22106C12.9324 6.23728 12.9097 6.23404 12.9843 6.15946C13.0589 6.08489 13.1107 6.03628 13.1885 6.04274C13.2663 6.04921 13.3928 6.06543 13.4122 6.02653C13.4317 5.98762 13.4154 5.95523 13.4187 5.9001C13.4219 5.84498 13.4154 5.82229 13.49 5.80284C13.5646 5.78338 13.5613 5.75746 13.597 5.74448C13.6327 5.73149 13.6554 5.7704 13.7137 5.79309C13.7721 5.81578 13.9147 5.81901 13.9471 5.77687C13.9795 5.73463 14.0314 5.69896 14.0314 5.69896Z" fill="#9FA6A9"/>
<path d="M11.1852 7.46246C11.2276 7.47807 11.3084 7.54351 11.3571 7.54028C11.4057 7.53704 11.4316 7.60187 11.3927 7.60834C11.3538 7.61481 11.2242 7.6764 11.2242 7.6764C11.2242 7.6764 11.1853 7.62779 11.1626 7.6764C11.1399 7.72501 11.1269 7.76068 11.1334 7.78989C11.1399 7.81904 11.1853 7.90337 11.1593 7.94551C11.1334 7.98765 11.0977 8.01034 11.0977 8.06223C11.0977 8.11407 11.1302 8.1692 11.0848 8.19188C11.0394 8.21457 10.994 8.22109 10.9551 8.23403C10.9162 8.24701 10.887 8.25024 10.8708 8.28592C10.8546 8.32159 10.8157 8.37343 10.7346 8.3702C10.6536 8.36696 10.6536 8.30213 10.579 8.36373C10.5044 8.42532 10.5012 8.46099 10.4623 8.44478C10.4234 8.42856 10.4526 8.40587 10.4623 8.34428C10.472 8.28268 10.3294 8.2989 10.4591 8.22756C10.5887 8.15621 10.5887 8.14651 10.6763 8.13353C10.7638 8.12054 10.8125 8.16268 10.8481 8.08815C10.8838 8.01357 10.8481 7.98442 10.9194 7.98118C10.9908 7.97795 11.0361 8.01039 11.0491 7.92929C11.0621 7.84824 11.0523 7.78018 11.0491 7.72829C11.0459 7.6764 11.0264 7.62779 11.0848 7.60834C11.1431 7.58889 11.1496 7.62456 11.1561 7.57918C11.1625 7.53376 11.1236 7.43978 11.1852 7.46246Z" fill="#9FA6A9"/>
<path d="M9.88362 9.21875C9.94521 9.2285 9.97437 9.3387 9.95496 9.38408C9.93551 9.42945 9.91605 9.48134 9.97118 9.49105C10.0263 9.5008 10.0652 9.50727 10.0652 9.54617C10.0652 9.58508 10.0879 9.50403 10.13 9.60777C10.1722 9.7115 10.1333 9.72772 10.1819 9.80553C10.2305 9.88334 10.2889 9.92225 10.2208 9.96116C10.1528 10.0001 10.2046 10.0422 10.1333 10.0195C10.062 9.99683 10.0912 10.0098 10.0555 9.9417C10.0198 9.87364 9.99715 9.92872 9.96476 9.92548C9.93232 9.92225 9.92262 9.92225 9.94854 9.87687C9.97446 9.8315 9.98744 9.83473 9.95829 9.78284C9.92913 9.73095 9.97451 9.66936 9.93237 9.65966C9.89023 9.64995 9.87724 9.72125 9.80271 9.76662C9.72813 9.812 9.61793 9.82498 9.62116 9.80877C9.6244 9.79255 9.66654 9.76986 9.73465 9.68558C9.80271 9.6013 9.8449 9.65314 9.83191 9.52348C9.81893 9.39383 9.77355 9.42945 9.8157 9.3387C9.8577 9.24795 9.88362 9.21875 9.88362 9.21875Z" fill="#9FA6A9"/>
<path d="M9.67436 9.95489C9.72344 10.004 9.78785 9.99056 9.7684 10.0392C9.74894 10.0878 9.69119 10.0943 9.7233 10.1429C9.75541 10.1916 9.78461 10.2629 9.82675 10.2564C9.8689 10.2499 9.86566 10.2175 9.9694 10.2175C10.0731 10.2175 10.138 10.1948 10.1445 10.2369C10.1509 10.2791 10.0991 10.2823 10.031 10.3439C9.96293 10.4055 9.89482 10.4671 9.94994 10.506C10.0051 10.5449 10.0278 10.6162 10.0083 10.6422C9.98885 10.6681 9.9694 10.6941 10.0148 10.7265C10.0601 10.7589 10.2774 10.7491 10.2255 10.827C10.1736 10.9048 10.0472 10.9469 9.91422 10.9501C9.78129 10.9534 9.88816 10.9145 9.61915 10.8885C9.35013 10.8626 9.30475 10.9307 9.11674 10.8399C8.92872 10.7491 8.80549 10.827 8.70175 10.6616C8.59802 10.4963 8.64016 10.5773 8.51046 10.4055C8.3808 10.2337 8.4424 10.2337 8.33215 10.1656C8.2219 10.0975 8.12791 10.0003 8.20249 10.0003C8.27707 10.0003 8.2414 9.91275 8.47155 10.104C8.70171 10.2952 8.64011 10.2855 8.80872 10.399C8.97729 10.5125 9.03241 10.5255 9.094 10.5125C9.1556 10.4995 9.2464 10.5125 9.18804 10.4379C9.12968 10.3634 9.09724 10.2694 9.1459 10.2532C9.19455 10.2369 9.19127 10.318 9.27232 10.2305C9.35336 10.143 9.35336 10.1202 9.42471 10.0911C9.49605 10.0619 9.45715 10.0911 9.52521 10.0489C9.59332 10.0068 9.61924 9.89977 9.67436 9.95489Z" fill="#9FA6A9"/>
<path d="M10.5677 10.3317C10.603 10.3771 10.6617 10.4355 10.6877 10.4841C10.7136 10.5328 10.7622 10.443 10.8562 10.4457C10.9503 10.4484 11.0897 10.5003 11.148 10.5263C11.2064 10.5522 11.3069 10.5684 11.3685 10.6527C11.4301 10.737 11.4754 10.6883 11.4787 10.7726C11.482 10.8569 11.4949 10.8472 11.55 10.8958C11.6051 10.9444 11.6149 11.0352 11.5176 10.9963C11.4203 10.9574 11.3912 10.8245 11.2874 10.8375C11.1837 10.8504 11.2258 10.8796 11.1448 10.8958C11.0637 10.912 11.0281 10.8828 10.9308 10.8764C10.8335 10.8699 10.7622 10.9023 10.8076 10.8148C10.853 10.7273 10.8854 10.724 10.7266 10.6591C10.5677 10.5943 10.5061 10.6267 10.5061 10.5586C10.5061 10.4906 10.532 10.4841 10.4704 10.4257C10.4088 10.3673 10.3894 10.3252 10.4283 10.296C10.4672 10.2668 10.545 10.3025 10.5677 10.3317Z" fill="#9FA6A9"/>
<path d="M10.7557 11.2648C10.8626 11.3199 10.9048 11.4301 10.9567 11.4107C11.0086 11.3912 10.9891 11.3588 11.028 11.2421C11.0669 11.1254 11.0701 11.0054 11.1188 11.0541C11.1674 11.1027 11.122 11.1976 11.1998 11.228C11.2776 11.2583 11.2938 11.2811 11.3101 11.3718C11.3263 11.4626 11.3425 11.4334 11.4235 11.5274C11.5046 11.6215 11.5774 11.6052 11.5912 11.7122C11.6051 11.8192 11.7413 11.9294 11.7477 12.0396C11.7542 12.1499 11.7736 12.2276 11.6926 12.3671C11.6116 12.5065 11.5791 12.5778 11.5532 12.6362C11.5273 12.6945 11.4495 12.7237 11.3652 12.7237C11.2809 12.7237 11.2322 12.688 11.1804 12.701C11.1285 12.714 11.0929 12.7788 11.0313 12.7334C10.9697 12.6881 10.934 12.6297 10.9146 12.594C10.8951 12.5583 10.8854 12.4384 10.7946 12.4514C10.7039 12.4644 10.7168 12.5097 10.6617 12.4514C10.6066 12.393 10.6455 12.3444 10.4834 12.3184C10.3213 12.2925 10.2791 12.2795 10.211 12.2958C10.143 12.312 10.0716 12.3347 9.99704 12.393C9.92246 12.4514 9.80574 12.4222 9.74091 12.4514C9.67608 12.4805 9.57882 12.5454 9.50747 12.5065C9.43613 12.4676 9.4621 12.4481 9.46533 12.3574C9.46857 12.2666 9.4621 12.3282 9.41672 12.1726C9.37135 12.017 9.3908 12.0397 9.34866 11.9651C9.30652 11.8906 9.27408 11.9262 9.33244 11.8193C9.3908 11.7123 9.37135 11.6896 9.40374 11.6539C9.43618 11.6183 9.46533 11.6637 9.57558 11.5891C9.68583 11.5145 9.71822 11.547 9.81872 11.5081C9.91922 11.4692 9.94191 11.3201 10.0035 11.2746C10.0651 11.2293 10.0813 11.1936 10.1267 11.1936C10.1721 11.1936 10.224 11.2195 10.305 11.2519C10.3861 11.2844 10.3698 11.2876 10.4379 11.213C10.506 11.1385 10.4379 11.0672 10.5611 11.0801C10.6843 11.0931 10.7297 11.0736 10.7459 11.1449C10.7621 11.2162 10.7557 11.2648 10.7557 11.2648Z" fill="#9FA6A9"/>
<path d="M13.0055 12.7965C13.0703 12.7122 13.1028 12.7024 13.0801 12.6052C13.0574 12.5079 13.0639 12.4316 13.1482 12.5184C13.2324 12.6052 13.3265 12.6538 13.3913 12.657C13.4561 12.6603 13.6118 12.7089 13.4529 12.8289C13.294 12.9488 13.3232 12.8646 13.1968 13.0429C13.0703 13.2212 13.1676 13.2244 13.0152 13.3119C12.8628 13.3995 12.6943 13.4384 12.7267 13.3606C12.7591 13.2828 12.7429 13.2828 12.8823 13.179C13.0217 13.0753 13.1125 12.9975 13.1125 12.91C13.1125 12.8224 13.0055 12.7965 13.0055 12.7965Z" fill="#9FA6A9"/>
<path d="M5.26322 11.9203C5.20487 11.836 5.20487 11.8101 5.1984 11.6739C5.19193 11.5378 5.14651 11.4729 5.1984 11.3951C5.25029 11.3173 5.38641 11.1876 5.4383 11.0968C5.49019 11.0061 5.50313 10.8116 5.53557 10.9866C5.56801 11.1617 5.67174 11.2654 5.51612 11.4988C5.36049 11.7322 5.26322 11.9203 5.26322 11.9203Z" fill="#9FA6A9"/>
<path d="M2.14407 7.09714C2.13109 7.07122 2.18944 6.98689 2.18944 6.98689C2.18944 6.98689 2.26079 6.94799 2.24134 6.80535C2.22188 6.66271 2.2089 6.74699 2.15705 6.61082C2.10516 6.47464 2.0274 6.50057 2.10516 6.40982C2.18298 6.31902 2.27373 6.18289 2.29318 6.2931C2.31263 6.4033 2.26726 6.47464 2.31263 6.52653C2.35801 6.57843 2.4488 6.58911 2.50065 6.67452C2.55254 6.75993 2.76001 6.79236 2.60438 6.90257C2.44876 7.01282 2.37746 6.94147 2.3191 7.01928C2.26074 7.09714 2.14407 7.09714 2.14407 7.09714Z" fill="#9FA6A9"/>
<path d="M1.93627 6.99318C2.04 6.93482 2.07793 6.94781 2.07193 6.84403C2.06593 6.74029 2.13727 6.6495 2.02702 6.64303C1.91682 6.63656 1.88438 6.70139 1.87139 6.74676C1.85841 6.79214 1.85841 6.80512 1.89085 6.8505C1.92329 6.89587 1.92975 6.96075 1.91677 6.99314C1.90388 7.02562 1.93627 6.99318 1.93627 6.99318Z" fill="#9FA6A9"/>
<path d="M1.56061 5.9807C1.64489 5.92235 1.78106 5.97424 1.78753 5.851C1.794 5.72781 1.82644 5.69538 1.63842 5.68244C1.4504 5.66945 1.4504 5.66945 1.33369 5.68244C1.21697 5.69542 1.10676 5.5787 1.19751 5.75378C1.28826 5.92886 1.30125 5.96777 1.37259 5.9807C1.44394 5.99364 1.56061 5.9807 1.56061 5.9807Z" fill="#9FA6A9"/>
<path d="M14.6133 5.51343C14.5121 5.39774 14.3475 5.39024 14.4771 5.3189C14.6068 5.2476 14.6846 5.20218 14.8078 5.17626C14.931 5.15033 15.0607 5.20218 15.2617 5.25407C15.4627 5.30596 15.7869 5.26054 15.9361 5.30596C16.0852 5.35133 16.1565 5.44213 16.2019 5.43561C16.2473 5.42915 16.377 5.29297 16.5066 5.29297C16.6363 5.29297 16.7012 5.27352 16.967 5.30596C17.2328 5.3384 17.4922 5.35133 17.4986 5.41621C17.5051 5.48104 17.5051 5.51347 17.6024 5.51347C17.6996 5.51347 17.7839 5.45511 17.8423 5.54591C17.9006 5.63671 17.9914 5.70154 17.9785 5.63019C17.9655 5.5589 17.9006 5.50054 17.9525 5.47457C18.0044 5.44865 18.1535 5.43566 18.1924 5.44865C18.2314 5.46163 18.3545 5.48108 18.3934 5.47457C18.4324 5.4681 18.4064 5.40322 18.5361 5.44213C18.6657 5.48104 18.6852 5.5783 18.7112 5.58477C18.7371 5.59124 18.7954 5.48507 18.8019 5.41499C18.8084 5.34486 18.8667 5.34486 18.7501 5.25411C18.6334 5.16332 18.7388 5.05311 18.8222 5.09202C18.9056 5.13093 18.8538 5.18282 18.9381 5.2671C19.0224 5.35138 19.0354 5.42272 19.0937 5.39676C19.1521 5.37083 19.1196 5.26058 19.1974 5.34486C19.2753 5.42915 19.2947 5.38668 19.366 5.37224C19.4374 5.3578 19.379 5.31243 19.4633 5.3578C19.5476 5.40318 19.6902 5.45507 19.5865 5.53935C19.4827 5.62363 19.3271 5.61069 19.2169 5.67552C19.1066 5.74035 19.1391 5.7209 19.1066 5.79871C19.0742 5.87652 19.0872 5.88299 18.9575 5.91543C18.8278 5.94786 18.789 5.9219 18.7954 6.03215C18.8019 6.1424 18.789 6.15533 18.7436 6.21369C18.6982 6.27205 18.7241 6.32394 18.776 6.34986C18.8279 6.37579 18.8862 6.33041 18.8862 6.40822C18.8862 6.48604 18.9835 6.5444 19.1131 6.5444C19.2428 6.5444 19.3011 6.57683 19.3789 6.67405C19.4568 6.77132 19.3465 6.77779 19.4762 6.90097C19.6059 7.02416 19.7291 7.08252 19.7486 6.97232C19.768 6.86211 19.7486 6.83615 19.768 6.70649C19.7875 6.57683 19.9106 6.56385 19.8458 6.44713C19.781 6.33041 19.6837 6.27857 19.7745 6.21369C19.8653 6.14886 19.755 6.08896 19.9106 6.05732C20.0663 6.02568 20.17 5.99971 20.2348 6.11643C20.2997 6.23315 20.2284 6.31096 20.2932 6.3628C20.358 6.41469 20.559 6.33688 20.5979 6.29151C20.6368 6.24613 20.747 6.2526 20.7859 6.42116C20.8249 6.58972 20.8508 6.63515 20.9091 6.6546C20.9675 6.67405 20.9675 6.71296 21.0388 6.77779C21.1101 6.84261 21.2463 6.94635 21.0388 6.9658C20.8314 6.98526 20.6628 6.95933 20.5849 7.03063C20.5071 7.10193 20.5007 7.05008 20.5525 7.14735C20.6044 7.24461 20.5655 7.17979 20.6044 7.30297C20.6433 7.42616 20.8378 7.42616 20.6951 7.51044C20.5525 7.59472 20.5784 7.61418 20.4941 7.58825C20.4099 7.56233 20.3904 7.37615 20.2931 7.5276C20.1959 7.67905 20.2089 7.73741 20.1246 7.78279C20.0403 7.82816 20.0338 7.73741 19.956 7.88005C19.8782 8.02269 20.0014 8.03568 19.8264 8.19777C19.6513 8.35986 19.567 8.28205 19.554 8.41822C19.541 8.5544 19.6254 8.71649 19.5799 8.74893C19.5346 8.78136 19.541 8.77485 19.4892 8.6841C19.4373 8.5933 19.4633 8.54146 19.2817 8.52847C19.1002 8.51549 19.1132 8.47011 19.0418 8.54793C18.9705 8.62574 19.0677 8.65166 18.8667 8.62574C18.6657 8.59982 18.6398 8.35991 18.6009 8.63872C18.562 8.91754 18.5555 8.94993 18.6204 9.02774C18.6852 9.10555 18.8603 9.29357 18.9381 9.20929C19.0159 9.125 18.9186 9.02127 19.0678 9.05366C19.2169 9.0861 19.2558 9.04719 19.2299 9.13147C19.204 9.21576 19.003 9.22874 19.1651 9.30655C19.3271 9.38437 19.4633 9.29357 19.4763 9.4168C19.4892 9.53999 19.4568 9.57243 19.4633 9.64372C19.4697 9.71502 19.5022 9.76691 19.6513 9.76691C19.8004 9.76691 19.7939 9.70855 19.8328 9.78636C19.8717 9.86418 19.9949 9.82527 20.0468 9.71502C20.0987 9.60477 20.1376 9.48158 20.2154 9.61129C20.2932 9.74094 20.3061 9.76691 20.3839 9.71502C20.4618 9.66313 20.4618 9.66313 20.4618 9.66313C20.4618 9.66313 20.546 9.58532 20.6174 9.65015C20.6887 9.71497 20.8054 9.64368 20.8314 9.73443C20.8573 9.82518 20.8184 9.83816 20.9286 9.8706C21.0389 9.90304 21.1685 9.85115 21.2334 9.9419C21.2982 10.0327 21.1231 9.97433 21.3112 10.0845C21.4992 10.1948 21.5576 10.2077 21.5446 10.2791C21.5316 10.3504 21.5835 10.3633 21.7521 10.4023C21.9206 10.4412 21.8947 10.4217 22.0309 10.5254C22.1671 10.6292 22.2773 10.5838 22.3227 10.6357C22.3681 10.6876 22.4459 10.7005 22.3811 10.8432C22.3162 10.9858 22.2514 10.9534 22.1995 11.0636C22.1476 11.1739 22.1022 11.1998 22.1152 11.3943C22.1282 11.5888 22.1347 11.5694 22.0958 11.6667C22.0569 11.7639 21.9142 11.7769 21.7975 11.8482C21.6808 11.9196 21.6743 11.8612 21.5965 12.0557C21.5187 12.2502 21.5641 12.1465 21.4992 12.315C21.4344 12.4836 21.5252 12.3993 21.3371 12.4966C21.1491 12.5938 21.0778 12.5096 21.0583 12.5679C21.0389 12.6263 21.1686 12.5809 21.0324 12.7041C20.8962 12.8273 20.8379 12.8597 20.7536 12.9116C20.6693 12.9634 20.6174 13.0218 20.6369 13.132C20.6563 13.2422 20.7536 13.2358 20.6434 13.3395C20.5331 13.4432 20.4877 13.3395 20.4553 13.5081C20.4229 13.6766 20.3905 13.5988 20.4229 13.7739C20.4553 13.949 20.6239 13.949 20.4683 14.0462C20.3126 14.1435 20.1441 14.1889 20.0468 13.9555C19.9496 13.722 19.9496 13.6313 19.9496 13.4757C19.9496 13.32 19.9301 13.4368 20.0079 13.1709C20.0857 12.9051 19.956 12.9958 20.0209 12.7041C20.0857 12.4123 20.0728 12.1011 20.1376 11.8871C20.2024 11.6731 20.3451 11.7315 20.2024 11.537C20.0598 11.3425 20.0339 11.3749 19.9107 11.2452C19.7875 11.1156 19.8653 11.1415 19.794 10.9858C19.7226 10.8302 19.6773 10.8432 19.6189 10.7265C19.5605 10.6098 19.5281 10.6487 19.5865 10.4542C19.6448 10.2597 19.5152 10.2662 19.6448 10.2078C19.7745 10.1495 19.7551 10.0068 19.7356 9.95493C19.7162 9.90304 19.8329 9.88358 19.6513 9.85766C19.4698 9.83174 19.4179 9.8901 19.3531 9.77985C19.2882 9.6696 19.3401 9.65019 19.204 9.58532C19.0678 9.52049 18.9187 9.52049 18.8668 9.4686C18.8149 9.41671 18.8149 9.41671 18.8149 9.41671C18.8149 9.41671 18.9122 9.3778 18.6917 9.35188C18.4713 9.32596 18.3092 9.35188 18.1989 9.19625C18.0887 9.04063 18.1146 9.13143 18.0887 8.98879C18.0627 8.84615 18.0303 8.84615 17.9266 8.75535C17.8228 8.6646 17.8228 8.61271 17.7256 8.5738C17.6283 8.5349 17.6089 8.54788 17.6089 8.56733C17.6089 8.58679 17.6024 8.6646 17.6931 8.7359C17.7839 8.80724 17.7904 8.87207 17.7904 8.90446C17.7904 8.9369 17.6672 8.9758 17.6672 8.9758C17.6672 8.9758 17.6672 8.9369 17.6283 8.84615C17.5894 8.75535 17.5764 8.70997 17.4986 8.59977C17.4208 8.48957 17.4013 8.47658 17.4013 8.47658C17.4013 8.47658 17.3105 8.33394 17.155 8.14593C16.9993 7.95791 16.954 8.07458 16.954 7.86065C16.954 7.64666 16.9929 7.64666 16.954 7.49755C16.9151 7.34844 16.8243 7.2771 16.9021 7.25118C16.9799 7.22526 17.0253 7.18635 16.8826 7.06316C16.74 6.93997 16.6881 7.0048 16.6362 6.83624C16.5844 6.66768 16.6946 6.68061 16.4806 6.6028C16.2666 6.52499 16.2407 6.46016 16.1434 6.41479C16.0462 6.36941 15.9878 6.34349 15.9878 6.34349C15.9878 6.34349 16.0073 6.32404 15.7738 6.30458C15.5404 6.28513 15.5664 6.17493 15.3913 6.24622C15.2162 6.31757 15.1903 6.33051 15.1903 6.33051C15.1903 6.33051 15.2876 6.21379 15.119 6.22677C14.9504 6.23976 14.9893 6.27866 14.9828 6.35647C14.9764 6.43429 15.0023 6.52504 14.8856 6.57046C14.7688 6.61583 14.6003 6.73902 14.6651 6.60936C14.7299 6.47966 14.892 6.38891 14.8337 6.35647C14.7753 6.32404 14.6521 6.42777 14.6391 6.32404C14.6261 6.2203 14.6521 6.16841 14.5159 6.16194C14.3798 6.15547 14.2696 6.09711 14.3733 6.05169C14.477 6.00632 14.5743 6.02577 14.6067 5.91552C14.6392 5.80527 14.8791 5.77935 14.6132 5.78586C14.3474 5.79233 14.2307 5.79233 14.2631 5.74049C14.2955 5.6886 14.2826 5.59138 14.4706 5.6173C14.6587 5.64308 14.6587 5.56527 14.6133 5.51343Z" fill="#9FA6A9"/>
</g>
<path d="M3.97934 11.0385C3.9508 10.9743 3.91517 10.9208 3.86881 10.878C3.81889 10.8352 3.76541 10.8031 3.70119 10.7782C3.64058 10.7567 3.5728 10.7461 3.50506 10.7461C3.43372 10.7461 3.36598 10.7568 3.30538 10.7782C3.29825 10.7817 3.28756 10.7853 3.28039 10.7889C3.23047 10.8139 3.18055 10.8423 3.14131 10.878C3.09139 10.9208 3.05572 10.9743 3.02717 11.0385C2.99862 11.0992 2.98438 11.174 2.98438 11.2525V11.9729C2.98438 12.0549 2.99862 12.1262 3.02717 12.1904C3.05567 12.2546 3.09134 12.3045 3.14131 12.3509C3.18767 12.3937 3.24472 12.4257 3.30533 12.4471C3.36594 12.4685 3.43372 12.4792 3.50502 12.4792C3.53712 12.4792 3.5728 12.4756 3.60486 12.4721C3.63697 12.465 3.67259 12.4578 3.70114 12.4471C3.76536 12.4257 3.81884 12.3937 3.86877 12.3509C3.91513 12.3045 3.9508 12.2546 3.9793 12.1904C4.00784 12.1262 4.02209 12.0549 4.02209 11.9729V11.2525C4.02214 11.174 4.00789 11.0991 3.97934 11.0385ZM3.71188 11.9692C3.71188 12.0441 3.6905 12.0976 3.65483 12.1404C3.61916 12.1761 3.57636 12.1974 3.52288 12.201H3.50506C3.44089 12.201 3.39092 12.1796 3.35173 12.1404C3.31606 12.0976 3.29469 12.0442 3.29469 11.9692V11.2596C3.29469 11.2453 3.29469 11.2346 3.29825 11.2239C3.29825 11.2204 3.30181 11.2168 3.30181 11.2168C3.30537 11.1634 3.32319 11.1241 3.35173 11.0884C3.35886 11.0813 3.36598 11.0742 3.37311 11.0706C3.40878 11.0385 3.45158 11.0278 3.50506 11.0278C3.56572 11.0278 3.61559 11.0456 3.65488 11.0884C3.69055 11.1312 3.71192 11.1883 3.71192 11.2596L3.71188 11.9692Z" fill="#CECECF"/>
<path d="M4.80688 10.7598L4.46094 11.0629V11.3981L4.80688 11.095V12.4644H5.1207V10.7598H4.80688Z" fill="#CECECF"/>
<path d="M5.69531 10.7598V11.309H5.99133V11.0415H6.44419L5.88787 12.4644H6.22664L6.77939 11.0415V10.7598H5.69531Z" fill="#CECECF"/>
<path d="M8.06333 11.0385C8.03478 10.9743 7.99916 10.9208 7.9528 10.878C7.90287 10.8352 7.84939 10.8031 7.78517 10.7782C7.721 10.7567 7.65678 10.7461 7.58905 10.7461C7.5177 10.7461 7.44997 10.7568 7.38936 10.7782C7.32519 10.8031 7.27166 10.8352 7.2253 10.878C7.17537 10.9208 7.13614 10.9743 7.11116 11.0385C7.08266 11.0991 7.06836 11.174 7.06836 11.2524V11.9728C7.06836 12.0548 7.08266 12.1261 7.11116 12.1903C7.13614 12.2545 7.17537 12.3045 7.2253 12.3508C7.27166 12.3936 7.32514 12.4257 7.38936 12.447C7.44997 12.4685 7.51775 12.4792 7.58905 12.4792C7.65678 12.4792 7.721 12.4685 7.78517 12.447C7.84934 12.4257 7.90287 12.3936 7.9528 12.3508C7.99916 12.3045 8.03483 12.2545 8.06333 12.1903C8.09183 12.1261 8.10612 12.0548 8.10612 11.9728V11.2524C8.10608 11.174 8.09183 11.0991 8.06333 11.0385ZM7.7923 11.9692C7.7923 12.0441 7.77448 12.0976 7.73881 12.1404C7.69958 12.1796 7.64966 12.201 7.58905 12.201C7.52488 12.201 7.47495 12.1796 7.43572 12.1404C7.40009 12.0976 7.37867 12.0442 7.37867 11.9692V11.2596C7.37867 11.1883 7.40009 11.1312 7.43572 11.0884C7.47495 11.0456 7.52488 11.0278 7.58905 11.0278C7.64966 11.0278 7.69958 11.0456 7.73881 11.0884C7.77448 11.1312 7.7923 11.1883 7.7923 11.2596V11.9692Z" fill="#CECECF"/>
<path d="M10.6739 11.7369C10.6525 11.6727 10.6168 11.6192 10.574 11.5764C10.5312 11.5336 10.4849 11.5016 10.4314 11.4766C10.3779 11.4552 10.3208 11.4445 10.2637 11.4445C10.2424 11.4445 10.221 11.4445 10.1996 11.448C10.1782 11.4516 10.1568 11.4552 10.139 11.4658L10.2566 11.2341L10.492 10.7598H10.1532L10.1175 10.8311V10.8347L10.0747 10.9203L9.79303 11.498C9.78947 11.5051 9.78591 11.5123 9.78234 11.5194C9.74667 11.5907 9.71817 11.6584 9.69319 11.7262C9.66464 11.7975 9.65039 11.876 9.65039 11.9544C9.65039 12.0365 9.66108 12.1113 9.68962 12.179C9.71817 12.2433 9.7538 12.3003 9.80377 12.3431C9.83944 12.3788 9.87506 12.4038 9.92142 12.4251H9.92498C9.93928 12.4323 9.95709 12.4394 9.97134 12.4465C10.0355 12.4679 10.1069 12.4786 10.1818 12.4786C10.2566 12.4786 10.3244 12.4679 10.3886 12.443C10.4563 12.4216 10.5098 12.386 10.5598 12.3395L10.5633 12.336C10.6097 12.2896 10.6454 12.2397 10.6703 12.172C10.6988 12.1077 10.7131 12.0329 10.7131 11.9473C10.7131 11.8688 10.6988 11.801 10.6739 11.7369ZM10.1818 11.7013C10.2495 11.7013 10.303 11.7226 10.3423 11.769C10.3815 11.8118 10.4029 11.876 10.4029 11.9509C10.4029 12.0293 10.3815 12.0935 10.3387 12.1363C10.2959 12.179 10.246 12.2005 10.1818 12.2005C10.1176 12.2005 10.0641 12.179 10.0213 12.1363C9.98203 12.0935 9.96066 12.0293 9.96066 11.9509C9.96066 11.8724 9.98203 11.8082 10.0213 11.7654C10.0641 11.7226 10.1175 11.7013 10.1818 11.7013Z" fill="#CECECF"/>
<path d="M12.0493 11.6512C12.035 11.5764 11.9922 11.5015 11.9244 11.4373C11.8887 11.4016 11.846 11.3731 11.7925 11.3517C11.739 11.3303 11.6784 11.3196 11.6035 11.3196C11.5464 11.3196 11.4965 11.3304 11.4501 11.3482C11.4038 11.366 11.3717 11.3838 11.3503 11.4052V11.0415H12.0386V10.7598H11.065V11.7226H11.3503C11.361 11.6906 11.3824 11.6584 11.4145 11.6299C11.4358 11.6085 11.4608 11.5942 11.4965 11.5907C11.5143 11.5835 11.5357 11.5835 11.5571 11.5835C11.6355 11.5835 11.6891 11.6121 11.7176 11.662C11.7497 11.7155 11.7675 11.7904 11.7675 11.8902C11.7675 11.9437 11.7604 11.9936 11.7532 12.04C11.7532 12.0471 11.7496 12.0507 11.7461 12.0543C11.7461 12.0579 11.7461 12.0579 11.7461 12.0579C11.7354 12.0935 11.7211 12.122 11.6997 12.1435C11.6605 12.1827 11.6141 12.2005 11.5499 12.2005C11.4858 12.2005 11.4358 12.1827 11.4037 12.1435C11.3716 12.1077 11.3503 12.0579 11.3431 11.9901H11.0293C11.0364 12.0507 11.0471 12.1113 11.065 12.172C11.0828 12.2362 11.1149 12.2896 11.1684 12.3432C11.204 12.3824 11.2575 12.4109 11.3217 12.4394C11.3824 12.4679 11.4608 12.4787 11.55 12.4787C11.5821 12.4787 11.607 12.4787 11.632 12.4715H11.6356C11.6891 12.468 11.7354 12.4572 11.7782 12.4395C11.8388 12.411 11.8887 12.3788 11.928 12.3432C11.9886 12.279 12.0278 12.2113 12.0493 12.14C12.0671 12.0686 12.0778 11.9866 12.0778 11.8903C12.0778 11.8082 12.0671 11.7297 12.0493 11.6512Z" fill="#CECECF"/>
<path d="M12.373 10.7598V11.309H12.6691V11.0415H13.122L12.5692 12.4644H12.9044L13.4607 11.0415V10.7598H12.373Z" fill="#CECECF"/>
<path d="M14.7598 11.0492C14.7348 10.9815 14.6956 10.928 14.6492 10.8816C14.5993 10.8388 14.5458 10.8031 14.4781 10.7818C14.4139 10.7568 14.3461 10.7461 14.2712 10.7461C14.1964 10.7461 14.125 10.7568 14.0608 10.7818C13.9967 10.8068 13.9396 10.8424 13.8897 10.8852C13.8433 10.9315 13.8076 10.9886 13.7791 11.0528C13.7506 11.1205 13.7363 11.1954 13.7363 11.2774C13.7363 11.3595 13.7506 11.4308 13.7756 11.4914C13.8005 11.552 13.8362 11.6055 13.8754 11.6483C13.9182 11.6911 13.9681 11.7267 14.0216 11.7481C14.0751 11.7731 14.1321 11.7838 14.1892 11.7838C14.2106 11.7838 14.232 11.7838 14.2534 11.7802C14.2748 11.7767 14.2962 11.7695 14.314 11.7624L13.961 12.4649H14.2997L14.6599 11.7303C14.6991 11.6519 14.7313 11.5734 14.7598 11.5021C14.7883 11.4272 14.8025 11.3523 14.8025 11.2739C14.8025 11.1883 14.7883 11.1134 14.7598 11.0492ZM14.4281 11.4593C14.3853 11.5021 14.3354 11.5235 14.2712 11.5235C14.2035 11.5235 14.15 11.5021 14.1107 11.4593C14.0679 11.4129 14.0501 11.3523 14.0501 11.2774C14.0501 11.1954 14.0715 11.1348 14.1107 11.092C14.1535 11.0492 14.207 11.0278 14.2712 11.0278C14.3354 11.0278 14.3853 11.0492 14.4281 11.092C14.4709 11.1348 14.4887 11.1954 14.4887 11.2774C14.4888 11.3559 14.4709 11.4165 14.4281 11.4593Z" fill="#CECECF"/>
<path d="M16.8026 10.7598L16.4531 11.0629V11.3981L16.8026 11.095V12.4644H17.1129V10.7598H16.8026Z" fill="#CECECF"/>
<path d="M17.6875 10.7598V11.309H17.987V11.0415H18.4364L17.8836 12.4644H18.2224L18.7751 11.0415V10.7598H17.6875Z" fill="#CECECF"/>
<path d="M19.5237 10.7598L19.1777 11.0629V11.3981L19.5237 11.095V12.4644H19.8375V10.7598H19.5237Z" fill="#CECECF"/>
<path d="M21.4356 11.0492C21.4106 10.9815 21.3714 10.928 21.325 10.8816C21.2751 10.8388 21.2216 10.8031 21.1539 10.7818C21.0897 10.7568 21.0219 10.7461 20.947 10.7461C20.8721 10.7461 20.8008 10.7568 20.7366 10.7818C20.6725 10.8068 20.6154 10.8424 20.5654 10.8852C20.5191 10.9315 20.4798 10.9886 20.4549 11.0528C20.4264 11.1205 20.4121 11.1954 20.4121 11.2774C20.4121 11.3595 20.4264 11.4308 20.4513 11.4914C20.4763 11.552 20.512 11.6055 20.5512 11.6483C20.594 11.6911 20.6403 11.7267 20.6974 11.7481C20.7509 11.7731 20.8079 11.7838 20.865 11.7838C20.8863 11.7838 20.9078 11.7838 20.9291 11.7802C20.9506 11.7767 20.9719 11.7695 20.9898 11.7624L20.6367 12.4649H20.9755L21.3357 11.7303C21.3749 11.6519 21.407 11.5734 21.4355 11.5021C21.464 11.4272 21.4783 11.3523 21.4783 11.2739C21.4784 11.1883 21.4641 11.1134 21.4356 11.0492ZM21.1039 11.4593C21.0611 11.5021 21.0112 11.5235 20.947 11.5235C20.8793 11.5235 20.8258 11.5021 20.7865 11.4593C20.7438 11.4129 20.7259 11.3523 20.7259 11.2774C20.7259 11.1954 20.7473 11.1348 20.7865 11.092C20.8293 11.0492 20.8828 11.0278 20.947 11.0278C21.0112 11.0278 21.0611 11.0492 21.1039 11.092C21.1467 11.1348 21.1645 11.1954 21.1645 11.2774C21.1645 11.3559 21.1467 11.4165 21.1039 11.4593Z" fill="#CECECF"/>
<path d="M15.1588 15.2511C15.1375 15.2047 15.1089 15.1655 15.0768 15.1334C15.0411 15.1013 15.0019 15.0763 14.9555 15.0621C14.9092 15.0442 14.8593 15.0371 14.8093 15.0371C14.7559 15.0371 14.7095 15.0442 14.6631 15.0621C14.6168 15.0764 14.5775 15.1013 14.5419 15.1334C14.5062 15.1655 14.4777 15.2047 14.4563 15.2511C14.4385 15.2975 14.4277 15.3509 14.4277 15.408V15.9357C14.4277 15.9964 14.4384 16.0499 14.4563 16.0963C14.4777 16.1426 14.5062 16.1818 14.5419 16.2139C14.5775 16.246 14.6168 16.271 14.6631 16.2852C14.7095 16.3031 14.7559 16.3102 14.8093 16.3102C14.8593 16.3102 14.9092 16.3031 14.9555 16.2852C15.0019 16.271 15.0411 16.246 15.0768 16.2139C15.1089 16.1818 15.1374 16.1426 15.1588 16.0963C15.1803 16.0499 15.1874 15.9964 15.1874 15.9357V15.408C15.1874 15.351 15.1803 15.2975 15.1588 15.2511ZM14.9592 15.9358C14.9592 15.9893 14.9449 16.0285 14.9199 16.0606C14.8914 16.0891 14.8557 16.1034 14.8094 16.1034C14.763 16.1034 14.7274 16.0891 14.6989 16.0606C14.6703 16.0285 14.6561 15.9893 14.6561 15.9358V15.4116C14.6561 15.3617 14.6703 15.3189 14.6989 15.2868C14.7274 15.2583 14.763 15.244 14.8094 15.244C14.8557 15.244 14.8914 15.2583 14.9199 15.2868C14.9449 15.3189 14.9592 15.3617 14.9592 15.4116V15.9358Z" fill="#CECECF"/>
<path d="M16.1785 15.705C16.1678 15.648 16.1357 15.5945 16.0858 15.5445C16.0608 15.5196 16.0288 15.4982 15.9895 15.4839C15.9503 15.4661 15.9039 15.4589 15.8504 15.4589C15.8112 15.4589 15.772 15.4661 15.7399 15.4803C15.7042 15.491 15.6793 15.5053 15.665 15.5232V15.2521H16.1714V15.0488H15.4546V15.7549H15.665C15.6722 15.73 15.69 15.7086 15.7114 15.6872C15.7363 15.6658 15.7685 15.6515 15.8184 15.6515C15.8719 15.6515 15.9111 15.6729 15.936 15.7122C15.9575 15.7514 15.9681 15.8049 15.9681 15.8798C15.9681 15.919 15.9681 15.9546 15.961 15.9868C15.9539 16.0189 15.9396 16.0438 15.9218 16.0652C15.8932 16.0937 15.8576 16.1044 15.8113 16.1044C15.7649 16.1044 15.7257 16.0937 15.7043 16.0652C15.6793 16.0367 15.665 16.001 15.6579 15.9511H15.4297C15.4332 15.9974 15.4404 16.0402 15.4547 16.0866C15.4689 16.1294 15.4939 16.1722 15.5331 16.2114C15.5581 16.2364 15.5973 16.2613 15.6437 16.2827C15.69 16.3005 15.7471 16.3112 15.8113 16.3112C15.8754 16.3112 15.9325 16.3005 15.9789 16.2827C16.0217 16.2613 16.0609 16.2364 16.0894 16.2078C16.1322 16.1651 16.1643 16.1151 16.1786 16.0617C16.1928 16.0117 16.1999 15.9475 16.1999 15.8798C16.1999 15.8192 16.1928 15.7621 16.1785 15.705Z" fill="#CECECF"/>
<path d="M16.831 14.916L16.3281 16.4316H16.5421L17.0449 14.916H16.831Z" fill="#CECECF"/>
<path d="M17.5204 15.0488L17.2637 15.27V15.516L17.5204 15.2949V16.3005H17.7486V15.0488H17.5204Z" fill="#CECECF"/>
<path d="M18.5185 15.0488L18.2617 15.27V15.516L18.5185 15.2949V16.3005H18.7467V15.0488H18.5185Z" fill="#CECECF"/>
<path d="M19.1855 15.6895V15.9034H19.7276V15.6895H19.1855Z" fill="#CECECF"/>
<path d="M20.7037 15.2511C20.6823 15.2047 20.6538 15.1655 20.6181 15.1334C20.5861 15.1013 20.5433 15.0763 20.4969 15.0621C20.4505 15.0442 20.4042 15.0371 20.3543 15.0371C20.3008 15.0371 20.2544 15.0442 20.2081 15.0621C20.1617 15.0764 20.1225 15.1013 20.0868 15.1334C20.0511 15.1655 20.0226 15.2047 20.0012 15.2511C19.9798 15.2975 19.9727 15.3509 19.9727 15.408V15.9357C19.9727 15.9964 19.9798 16.0499 20.0012 16.0963C20.0226 16.1426 20.0511 16.1818 20.0868 16.2139C20.1225 16.246 20.1617 16.271 20.2081 16.2852C20.2544 16.3031 20.3008 16.3102 20.3543 16.3102C20.4042 16.3102 20.4505 16.3031 20.4969 16.2852C20.5433 16.271 20.5861 16.246 20.6181 16.2139C20.6538 16.1818 20.6823 16.1426 20.7037 16.0963C20.7215 16.0499 20.7322 15.9964 20.7322 15.9357V15.408C20.7322 15.351 20.7215 15.2975 20.7037 15.2511ZM20.504 15.9358C20.504 15.9893 20.4897 16.0285 20.4612 16.0606C20.4362 16.0891 20.397 16.1034 20.3542 16.1034C20.3079 16.1034 20.2686 16.0891 20.2437 16.0606C20.2151 16.0285 20.2009 15.9893 20.2009 15.9358V15.4116C20.2009 15.3617 20.2151 15.3189 20.2437 15.2868C20.2687 15.2583 20.3079 15.244 20.3542 15.244C20.397 15.244 20.4362 15.2583 20.4612 15.2868C20.4897 15.3189 20.504 15.3617 20.504 15.4116V15.9358Z" fill="#CECECF"/>
<path d="M21.7018 15.2511C21.6804 15.2047 21.6518 15.1655 21.6197 15.1334C21.5841 15.1013 21.5449 15.0763 21.4985 15.0621C21.4522 15.0442 21.4022 15.0371 21.3523 15.0371C21.2988 15.0371 21.2524 15.0442 21.2061 15.0621C21.1597 15.0764 21.1205 15.1013 21.0848 15.1334C21.0492 15.1655 21.0206 15.2047 20.9992 15.2511C20.9814 15.2975 20.9707 15.3509 20.9707 15.408V15.9357C20.9707 15.9964 20.9814 16.0499 20.9992 16.0963C21.0206 16.1426 21.0491 16.1818 21.0848 16.2139C21.1205 16.246 21.1597 16.271 21.2061 16.2852C21.2524 16.3031 21.2988 16.3102 21.3523 16.3102C21.4022 16.3102 21.4521 16.3031 21.4985 16.2852C21.5449 16.271 21.5841 16.246 21.6197 16.2139C21.6518 16.1818 21.6804 16.1426 21.7018 16.0963C21.7231 16.0499 21.7303 15.9964 21.7303 15.9357V15.408C21.7303 15.351 21.7232 15.2975 21.7018 15.2511ZM21.5021 15.9358C21.5021 15.9893 21.4878 16.0285 21.4628 16.0606C21.4343 16.0891 21.3987 16.1034 21.3523 16.1034C21.306 16.1034 21.2703 16.0891 21.2418 16.0606C21.2133 16.0285 21.199 15.9893 21.199 15.9358V15.4116C21.199 15.3617 21.2133 15.3189 21.2418 15.2868C21.2703 15.2583 21.306 15.244 21.3523 15.244C21.3987 15.244 21.4343 15.2583 21.4628 15.2868C21.4878 15.3189 21.5021 15.3617 21.5021 15.4116V15.9358Z" fill="#CECECF"/>
<path d="M3.16406 12.9043V13.0184H3.33525V13.5569H3.46364V13.0184H3.63483V12.9043H3.16406Z" fill="#CECECF"/>
<path d="M4.21247 13.0748C4.20534 13.0534 4.20173 13.0356 4.19109 13.0178C4.18397 12.9999 4.16967 12.982 4.15186 12.9643C4.13048 12.9429 4.1055 12.925 4.077 12.9143C4.04845 12.9037 4.01634 12.8965 3.98072 12.8965C3.94148 12.8965 3.90937 12.9036 3.88087 12.9143C3.85237 12.925 3.82739 12.9429 3.80602 12.9643C3.7882 12.9821 3.77391 12.9999 3.76678 13.0178C3.75605 13.0356 3.75248 13.0534 3.74541 13.0748C3.74184 13.0962 3.74184 13.1212 3.73828 13.1461V13.3137C3.74184 13.3387 3.74184 13.3601 3.74541 13.3815C3.75253 13.4029 3.75609 13.4243 3.76678 13.4421C3.77391 13.4564 3.78816 13.4742 3.80602 13.492C3.82739 13.5135 3.85237 13.5313 3.88087 13.542C3.90942 13.5562 3.94153 13.5598 3.98072 13.5598C4.01639 13.5598 4.0485 13.5562 4.077 13.542C4.1055 13.5313 4.13048 13.5135 4.15186 13.492C4.16967 13.4742 4.18397 13.4564 4.19109 13.4421C4.20178 13.4243 4.20534 13.4029 4.21247 13.3815C4.21603 13.3601 4.21959 13.3387 4.21959 13.3137V13.1461C4.21959 13.1212 4.21603 13.0962 4.21247 13.0748ZM4.0912 13.3066C4.0912 13.328 4.08764 13.3423 4.08408 13.3565C4.08408 13.3708 4.08052 13.3815 4.07695 13.3886C4.07339 13.3957 4.06622 13.4029 4.05909 13.41C4.05197 13.4207 4.04128 13.4314 4.02703 13.4349C4.01278 13.4421 3.99848 13.4456 3.98067 13.4456C3.96286 13.4456 3.94505 13.4421 3.93075 13.4349C3.92006 13.4314 3.90577 13.4207 3.89513 13.41C3.89156 13.4029 3.88439 13.3957 3.88083 13.3886C3.87727 13.3815 3.8737 13.3708 3.8737 13.3565C3.87014 13.3422 3.86658 13.328 3.86658 13.3066V13.1497C3.86658 13.1319 3.87014 13.114 3.8737 13.0998C3.8737 13.0855 3.87727 13.0748 3.88083 13.0677C3.88439 13.0606 3.89152 13.0534 3.89513 13.0463C3.90581 13.0356 3.92011 13.0285 3.93075 13.0214C3.94505 13.0142 3.96286 13.0107 3.98067 13.0107C3.99848 13.0107 4.01278 13.0142 4.02703 13.0214C4.04128 13.0285 4.05202 13.0357 4.05909 13.0463C4.06622 13.0534 4.07339 13.0606 4.07695 13.0677C4.08052 13.0748 4.08408 13.0855 4.08408 13.0998C4.08764 13.1141 4.0912 13.1319 4.0912 13.1497V13.3066Z" fill="#CECECF"/>
<path d="M4.82595 13.0292C4.81883 13.0042 4.80458 12.9828 4.78316 12.965C4.76534 12.9436 4.74392 12.9293 4.71542 12.9186C4.69044 12.9079 4.65838 12.9043 4.62627 12.9043H4.37305V13.5569H4.50144V13.3109H4.62622C4.65833 13.3109 4.69039 13.3038 4.71538 13.293C4.74392 13.2823 4.7653 13.268 4.78311 13.2502C4.80453 13.2324 4.81878 13.211 4.82591 13.186C4.83664 13.161 4.84016 13.1326 4.84016 13.1076C4.8402 13.0791 4.83669 13.0542 4.82595 13.0292ZM4.69044 13.1718C4.67263 13.1861 4.64764 13.1968 4.61909 13.1968H4.50144V13.0185H4.61909C4.64764 13.0185 4.67258 13.0256 4.69044 13.0399C4.70469 13.0577 4.71542 13.0791 4.71542 13.1076C4.71542 13.1326 4.70469 13.154 4.69044 13.1718Z" fill="#CECECF"/>
<path d="M5.40058 13.0184V12.9043H4.97266V13.5569H5.40058V13.4428H5.10105V13.2823H5.35778V13.1682H5.10105V13.0184H5.40058Z" fill="#CECECF"/>
<path d="M5.84303 13.4206C5.82522 13.4384 5.80023 13.4455 5.76817 13.4455C5.75036 13.4455 5.73606 13.442 5.72181 13.4384C5.70756 13.4313 5.69683 13.4242 5.68614 13.4135C5.68258 13.4063 5.67545 13.3992 5.67189 13.3885C5.66833 13.3814 5.66477 13.3707 5.6612 13.3564C5.6612 13.3421 5.65764 13.3279 5.65764 13.3065C5.65764 13.2851 5.65408 13.2601 5.65408 13.2281C5.65408 13.196 5.65764 13.171 5.65764 13.1497C5.65764 13.1318 5.6612 13.114 5.6612 13.0997C5.66477 13.0854 5.66833 13.0748 5.67189 13.0677C5.67545 13.0605 5.68258 13.0498 5.68614 13.0463C5.69683 13.0356 5.70756 13.0249 5.72181 13.0213C5.73606 13.0142 5.75036 13.0106 5.76817 13.0106C5.80023 13.0106 5.82522 13.0178 5.84303 13.0356C5.86089 13.0534 5.87158 13.0748 5.8787 13.1033H6.00709C5.99641 13.0356 5.96786 12.9821 5.92506 12.95C5.88227 12.9143 5.82878 12.8965 5.76817 12.8965C5.7325 12.8965 5.69683 12.9036 5.66833 12.9143C5.64334 12.925 5.61484 12.9429 5.59347 12.9643C5.57917 12.9821 5.56492 12.9999 5.55423 13.0178C5.54711 13.0356 5.53998 13.0534 5.53642 13.0748C5.53286 13.0962 5.5293 13.1212 5.5293 13.1461V13.3137C5.5293 13.3387 5.53286 13.3601 5.53642 13.3815C5.53998 13.4029 5.54716 13.4243 5.55423 13.4421C5.56497 13.4564 5.57922 13.4742 5.59347 13.492C5.61484 13.5135 5.64339 13.5313 5.66833 13.542C5.69688 13.5563 5.7325 13.5598 5.76817 13.5598C5.82878 13.5598 5.88231 13.542 5.92506 13.5099C5.96786 13.4742 5.99641 13.4243 6.00709 13.353H5.8787C5.87158 13.3814 5.86089 13.4027 5.84303 13.4206Z" fill="#CECECF"/>
<path d="M6.59855 13.1461C6.59855 13.1212 6.59498 13.0962 6.59142 13.0748C6.58786 13.0534 6.58069 13.0356 6.57005 13.0178C6.56292 12.9999 6.54867 12.982 6.53437 12.9643C6.513 12.9429 6.48802 12.925 6.45952 12.9143C6.43097 12.9037 6.39886 12.8965 6.35967 12.8965C6.32044 12.8965 6.28833 12.9036 6.25983 12.9143C6.23128 12.925 6.20634 12.9429 6.18492 12.9643C6.16711 12.9821 6.15638 12.9999 6.14569 13.0178C6.13856 13.0356 6.13139 13.0534 6.12787 13.0748C6.12431 13.0962 6.12075 13.1212 6.12075 13.1461C6.12075 13.1711 6.11719 13.1961 6.11719 13.2282C6.11719 13.2602 6.12075 13.2888 6.12075 13.3138C6.12075 13.3387 6.12431 13.3601 6.12787 13.3815C6.13144 13.4029 6.13856 13.4243 6.14569 13.4422C6.15638 13.4565 6.16706 13.4743 6.18492 13.4921C6.2063 13.5135 6.23128 13.5313 6.25983 13.542C6.28833 13.5563 6.32044 13.5599 6.35967 13.5599C6.39891 13.5599 6.43102 13.5563 6.45952 13.542C6.48802 13.5313 6.513 13.5135 6.53437 13.4921C6.54867 13.4743 6.56292 13.4564 6.57005 13.4422C6.58073 13.4243 6.58786 13.4029 6.59142 13.3815C6.59498 13.3601 6.59855 13.3387 6.59855 13.3138C6.59855 13.2888 6.60211 13.2603 6.60211 13.2282C6.60211 13.1961 6.59855 13.1711 6.59855 13.1461ZM6.47016 13.3066C6.47016 13.328 6.46659 13.3423 6.46659 13.3565C6.46303 13.3708 6.45947 13.3815 6.45591 13.3886C6.45234 13.3957 6.44878 13.4029 6.44166 13.41C6.43092 13.4207 6.42028 13.4314 6.40598 13.4349C6.39173 13.4421 6.37744 13.4456 6.35962 13.4456C6.34181 13.4456 6.32756 13.4421 6.31327 13.4349C6.29902 13.4314 6.28828 13.4207 6.27759 13.41C6.27047 13.4029 6.26691 13.3957 6.26334 13.3886C6.25622 13.3815 6.25622 13.3708 6.25261 13.3565C6.24905 13.3422 6.24905 13.328 6.24548 13.3066V13.1497C6.24905 13.1319 6.24905 13.114 6.25261 13.0998C6.25617 13.0855 6.25617 13.0748 6.26334 13.0677C6.26691 13.0606 6.27047 13.0534 6.27759 13.0463C6.28828 13.0356 6.29897 13.0285 6.31327 13.0214C6.32756 13.0142 6.34181 13.0107 6.35962 13.0107C6.37744 13.0107 6.39173 13.0142 6.40598 13.0214C6.42028 13.0285 6.43097 13.0357 6.44166 13.0463C6.44878 13.0534 6.45234 13.0606 6.45591 13.0677C6.45947 13.0748 6.46303 13.0855 6.46659 13.0998C6.46659 13.1141 6.47016 13.1319 6.47016 13.1497C6.47372 13.1711 6.47372 13.1961 6.47372 13.2281C6.47372 13.2602 6.47372 13.2852 6.47016 13.3066Z" fill="#CECECF"/>
<path d="M7.12639 12.9043V13.3037L6.86609 12.9043H6.75195V13.5569H6.88034V13.154L7.14064 13.5569H7.25473V12.9043H7.12639Z" fill="#CECECF"/>
<path d="M8.12756 13.3072C8.12044 13.2894 8.10975 13.2715 8.09545 13.2573C8.08833 13.2501 8.0812 13.243 8.07408 13.2395C8.06695 13.2323 8.05983 13.2288 8.04558 13.2216C8.09906 13.1895 8.12761 13.1467 8.12761 13.0825C8.12761 13.054 8.12048 13.029 8.11336 13.0077C8.10267 12.9862 8.08837 12.9684 8.07056 12.9507C8.05631 12.9399 8.04563 12.9328 8.02777 12.9257C8.0242 12.9221 8.01708 12.9185 8.00995 12.915C7.98141 12.9079 7.95647 12.9043 7.92436 12.9043H7.66406V13.5569H7.93509C7.96716 13.5569 7.9957 13.5498 8.01712 13.5426C8.04211 13.532 8.06348 13.5212 8.0813 13.5034C8.09911 13.4892 8.11341 13.4677 8.12053 13.4464C8.13122 13.425 8.13483 13.3965 8.13483 13.3679C8.13469 13.3464 8.13113 13.325 8.12756 13.3072ZM7.78875 13.0183H7.91358C7.9207 13.0183 7.92787 13.0183 7.93144 13.0219C7.95281 13.0219 7.9635 13.0255 7.9778 13.0362C7.99205 13.0505 7.99917 13.0683 7.99917 13.0933C7.99917 13.1147 7.99205 13.1325 7.9778 13.1467C7.95994 13.161 7.94212 13.1681 7.91358 13.1681H7.78875V13.0183ZM7.98492 13.4213C7.97067 13.4356 7.94925 13.4427 7.92431 13.4427H7.7888V13.2822H7.92431C7.9493 13.2822 7.97067 13.2894 7.98492 13.3037C7.99922 13.3179 8.00991 13.3358 8.00991 13.3607C8.00986 13.3857 7.99917 13.407 7.98492 13.4213Z" fill="#CECECF"/>
<path d="M8.55556 12.9043H8.45572L8.2168 13.5569H8.34875L8.38798 13.4392H8.61978L8.65902 13.5569H8.79097L8.55556 12.9043ZM8.42361 13.3323L8.5092 13.0969L8.58767 13.3323H8.42361Z" fill="#CECECF"/>
<path d="M9.26931 12.9043V13.3037L9.00897 12.9043H8.89844V13.5569H9.02327V13.154L9.28361 13.5569H9.39775V12.9043H9.26931Z" fill="#CECECF"/>
<path d="M9.86828 13.161L10.0822 12.9043H9.92889L9.69709 13.186V12.9043H9.57227V13.5569H9.69709V13.3608L9.78269 13.2573L9.95027 13.5569H10.1L9.86828 13.161Z" fill="#CECECF"/>
<path d="M16.679 8.81713C16.6612 8.83498 16.6362 8.84211 16.6042 8.84211C16.5863 8.84211 16.572 8.83855 16.5578 8.83137C16.5435 8.82781 16.5328 8.81708 16.5221 8.80995C16.5186 8.80283 16.5114 8.79566 16.5079 8.78502C16.5043 8.77789 16.5008 8.76716 16.4972 8.75295C16.4972 8.73866 16.4936 8.72084 16.4936 8.70298C16.4936 8.68161 16.4901 8.65667 16.4901 8.62456C16.4901 8.59245 16.4936 8.56752 16.4936 8.54609C16.4936 8.52467 16.4972 8.51042 16.4972 8.49622C16.5008 8.48192 16.5043 8.47123 16.5079 8.46411C16.5114 8.45342 16.5186 8.44625 16.5221 8.43912C16.5328 8.42848 16.5435 8.42131 16.5578 8.41419C16.572 8.41062 16.5863 8.40711 16.6042 8.40711C16.6362 8.40711 16.6612 8.41419 16.679 8.43205C16.6968 8.44986 16.7076 8.47128 16.7147 8.49978H16.8431C16.8323 8.42848 16.8038 8.37856 16.761 8.34289C16.7183 8.31083 16.6648 8.29297 16.6042 8.29297C16.5685 8.29297 16.5328 8.30009 16.5079 8.31083C16.4793 8.32152 16.4544 8.33933 16.4294 8.3607C16.4152 8.37856 16.4009 8.39637 16.3937 8.41419C16.383 8.42848 16.3759 8.44981 16.3724 8.47123C16.3688 8.49266 16.3652 8.51403 16.3652 8.53897V8.71016C16.3652 8.73514 16.3688 8.75656 16.3724 8.77794C16.3759 8.79931 16.383 8.81717 16.3937 8.83498C16.4009 8.85284 16.4152 8.87066 16.4294 8.88842C16.4544 8.90984 16.4793 8.9277 16.5079 8.93839C16.5329 8.94908 16.5685 8.9562 16.6042 8.9562C16.6648 8.9562 16.7183 8.93839 16.761 8.90272C16.8038 8.87066 16.8323 8.81712 16.8431 8.74939H16.7147C16.7076 8.77789 16.6968 8.79927 16.679 8.81713Z" fill="#CECECF"/>
<path d="M17.3244 8.6678C17.3422 8.66423 17.3565 8.65706 17.3708 8.64637C17.3851 8.63564 17.3993 8.62495 17.41 8.6107C17.4207 8.59641 17.4279 8.57864 17.435 8.56078C17.4385 8.55005 17.4421 8.5358 17.4421 8.52155C17.4457 8.51442 17.4457 8.50369 17.4457 8.49661C17.4457 8.47163 17.4385 8.44308 17.4314 8.4217C17.4207 8.39677 17.4064 8.37534 17.3886 8.35748C17.3708 8.33967 17.3493 8.32542 17.3208 8.31473C17.3066 8.30761 17.2959 8.304 17.278 8.30044H17.2745C17.2602 8.29687 17.246 8.29688 17.2317 8.29688H16.9785V8.94947H17.1033V8.68917H17.1961L17.3245 8.94947H17.4707L17.3244 8.6678ZM17.2923 8.56078C17.2745 8.57508 17.2531 8.58577 17.2246 8.58577H17.1033V8.41097H17.2246C17.2531 8.41097 17.2745 8.41809 17.2923 8.43591C17.3102 8.4502 17.3173 8.47163 17.3173 8.49661C17.3173 8.52511 17.3102 8.54297 17.2923 8.56078Z" fill="#CECECF"/>
<path d="M18.0311 8.41097V8.29688H17.5996V8.94947H18.0311V8.83538H17.728V8.67844H17.9848V8.56434H17.728V8.41097H18.0311Z" fill="#CECECF"/>
<path d="M18.6485 8.50725C18.6485 8.50013 18.6449 8.493 18.6449 8.48944C18.6449 8.47158 18.6378 8.45377 18.6342 8.43947C18.6271 8.42166 18.62 8.40741 18.6093 8.39316C18.5879 8.36105 18.5593 8.33611 18.5272 8.32181C18.4952 8.30756 18.4595 8.29688 18.4131 8.29688H18.1777V8.94947H18.4131C18.4595 8.94947 18.4951 8.94239 18.5272 8.92809C18.5451 8.92097 18.5593 8.91023 18.5736 8.89955C18.5879 8.88881 18.5986 8.87461 18.6093 8.85675C18.62 8.8425 18.6271 8.82825 18.6342 8.81039C18.6378 8.79609 18.6449 8.77833 18.6449 8.76052C18.6485 8.74266 18.6485 8.72123 18.6521 8.69986V8.55005C18.6485 8.53575 18.6485 8.52155 18.6485 8.50725ZM18.5237 8.69269C18.5237 8.7105 18.5201 8.72475 18.5201 8.73905C18.5165 8.75334 18.5165 8.76403 18.513 8.77111C18.5094 8.7818 18.5022 8.78897 18.4987 8.79605C18.4774 8.82459 18.4452 8.83533 18.4025 8.83533H18.3062V8.41092H18.4025C18.4452 8.41092 18.4774 8.42522 18.4987 8.45372C18.5023 8.46084 18.5094 8.46802 18.513 8.4787C18.5165 8.48583 18.5165 8.49656 18.5201 8.51077C18.5201 8.52502 18.5237 8.53927 18.5237 8.55713V8.69269Z" fill="#CECECF"/>
<path d="M18.8047 8.29688V8.94947H18.9295V8.29688H18.8047Z" fill="#CECECF"/>
<path d="M19.0586 8.29688V8.41097H19.2298V8.94947H19.3546V8.41097H19.5258V8.29688H19.0586Z" fill="#CECECF"/>
<path d="M20.181 8.81713C20.1632 8.83498 20.1382 8.84211 20.1061 8.84211C20.0883 8.84211 20.074 8.83855 20.0597 8.83137C20.0454 8.82781 20.0347 8.81708 20.024 8.80995C20.0205 8.80283 20.0133 8.79566 20.0098 8.78502C20.0062 8.77789 20.0027 8.76716 19.9991 8.75295C19.9991 8.73866 19.9955 8.72084 19.9955 8.70298C19.992 8.68161 19.992 8.65667 19.992 8.62456C19.992 8.59245 19.992 8.56752 19.9955 8.54609C19.9955 8.52467 19.9991 8.51042 19.9991 8.49622C20.0027 8.48192 20.0062 8.47123 20.0098 8.46411C20.0133 8.45342 20.0205 8.44625 20.024 8.43912C20.0347 8.42848 20.0454 8.42131 20.0597 8.41419C20.074 8.41062 20.0882 8.40711 20.1061 8.40711C20.1382 8.40711 20.1631 8.41419 20.181 8.43205C20.1988 8.44986 20.2095 8.47128 20.2166 8.49978H20.345C20.3343 8.42848 20.3058 8.37856 20.263 8.34289C20.2202 8.31083 20.1667 8.29297 20.1061 8.29297C20.0704 8.29297 20.0348 8.30009 20.0063 8.31083C19.9813 8.32152 19.9528 8.33933 19.9314 8.3607C19.9135 8.37856 19.9029 8.39637 19.8921 8.41419C19.885 8.42848 19.8779 8.44981 19.8743 8.47123C19.8708 8.49266 19.8672 8.51403 19.8672 8.53897V8.71016C19.8672 8.73514 19.8708 8.75656 19.8743 8.77794C19.8779 8.79931 19.885 8.81717 19.8921 8.83498C19.9028 8.85284 19.9135 8.87066 19.9314 8.88842C19.9527 8.90984 19.9813 8.9277 20.0063 8.93839C20.0348 8.94908 20.0704 8.9562 20.1061 8.9562C20.1668 8.9562 20.2203 8.93839 20.263 8.90272C20.3058 8.87066 20.3343 8.81712 20.345 8.74939H20.2166C20.2095 8.77789 20.1988 8.79927 20.181 8.81713Z" fill="#CECECF"/>
<path d="M20.745 8.29688H20.6452L20.4062 8.94947H20.5418L20.581 8.83538H20.8128L20.852 8.94947H20.984L20.745 8.29688ZM20.6167 8.72836L20.6987 8.48944L20.7771 8.72836H20.6167Z" fill="#CECECF"/>
<path d="M21.4318 8.6678C21.4496 8.66423 21.4639 8.65706 21.4782 8.64637C21.4924 8.63564 21.5067 8.62495 21.5174 8.6107C21.5281 8.59641 21.5352 8.57864 21.5424 8.56078C21.5495 8.54292 21.5531 8.52155 21.5531 8.49661C21.5531 8.47163 21.5495 8.44308 21.5388 8.4217C21.5282 8.39677 21.5139 8.37534 21.496 8.35748C21.4782 8.33967 21.4568 8.32542 21.4283 8.31473C21.4033 8.304 21.3748 8.29688 21.3427 8.29688H21.0859V8.94947H21.2143V8.68917H21.3035L21.4319 8.94947H21.5781L21.4318 8.6678ZM21.3997 8.56078C21.3819 8.57508 21.3605 8.58577 21.332 8.58577H21.2143V8.41097H21.332C21.3605 8.41097 21.3819 8.41809 21.3997 8.43591C21.4176 8.4502 21.4247 8.47163 21.4247 8.49661C21.4247 8.52511 21.4176 8.54297 21.3997 8.56078Z" fill="#CECECF"/>
<path d="M22.1777 8.48944C22.1741 8.47158 22.1706 8.45377 22.1635 8.43947C22.1599 8.42166 22.1492 8.40741 22.1421 8.39316C22.1171 8.36105 22.0886 8.33611 22.0565 8.32181C22.0279 8.30756 21.9887 8.29688 21.9424 8.29688H21.707V8.94947H21.9424C21.9887 8.94947 22.028 8.94239 22.0565 8.92809C22.0885 8.9138 22.1171 8.88881 22.1421 8.85675C22.1492 8.8425 22.1599 8.82825 22.1635 8.81039C22.1706 8.79609 22.1741 8.77833 22.1777 8.76052C22.1777 8.74266 22.1813 8.72123 22.1813 8.69986V8.55005C22.1813 8.52863 22.1777 8.50725 22.1777 8.48944ZM22.0529 8.69269C22.0529 8.7105 22.0529 8.72475 22.0494 8.73905C22.0494 8.75334 22.0458 8.76403 22.0422 8.77111C22.0387 8.7818 22.0351 8.78897 22.0279 8.79605C22.0066 8.82459 21.9745 8.83533 21.9317 8.83533H21.8354V8.41092H21.9317C21.9745 8.41092 22.0065 8.42522 22.0279 8.45372C22.0351 8.46084 22.0386 8.46802 22.0422 8.4787C22.0458 8.48583 22.0494 8.49656 22.0494 8.51077C22.0529 8.52502 22.0529 8.53927 22.0529 8.55713V8.69269Z" fill="#CECECF"/>
<path d="M22.2487 2.38702V4.90041C22.2487 5.00156 22.166 5.0843 22.0648 5.0843H18.969C18.8679 5.0843 18.7852 5.00156 18.7852 4.90041V2.38702C18.7852 2.28586 18.8679 2.20313 18.969 2.20313H22.0648C22.1659 2.20308 22.2487 2.28586 22.2487 2.38702Z" fill="#F7D072"/>
<path opacity="0.2" d="M21.5686 2.81194L22.1071 2.27344H21.9324L21.4688 2.74059L21.3975 2.81194L21.344 2.86186L20.9767 3.22917H20.1779L20.1065 3.15783L19.8106 2.86186L19.6929 2.74059L19.2257 2.27344H19.051L19.5145 2.74059L19.5859 2.81194H18.8477V2.93316H19.7107L19.9389 3.16495L19.9995 3.22917V3.37177H18.8477V3.49659H19.9995V3.9352H18.8477V4.05642H19.9995V4.20262H20.0066L19.782 4.42378L19.7106 4.49512H18.8477V4.61995H19.5858L19.1223 5.08355H19.297L19.7606 4.61995L20.1778 4.20277H20.9766L21.8611 5.08359H22.0322L21.5686 4.62H22.2497V4.49517H21.4473L21.1549 4.20277V4.05656H22.2498V3.93534H21.1549V3.49673H22.2498V3.37191H21.1549V3.22931L21.4473 2.9333H22.2497V2.81208H21.5686V2.81194ZM21.0337 4.07789H20.1208V3.35044H21.0337V4.07789Z" fill="white"/>
<path d="M20.1178 3.1582L20.239 3.27942H20.7953L20.8453 3.22955L20.9166 3.1582H20.1178ZM20.1178 3.1582L20.239 3.27942H20.7953L20.8453 3.22955L20.9166 3.1582H20.1178ZM20.1178 3.1582L20.239 3.27942H20.7953L20.8453 3.22955L20.9166 3.1582H20.1178ZM20.1178 3.1582L20.239 3.27942H20.7953L20.8453 3.22955L20.9166 3.1582H20.1178ZM20.8666 4.07827L20.7953 4.00697H20.239L20.1713 4.07827H20.1677L20.1178 4.13175H20.9166L20.8666 4.07827ZM20.1178 3.1582L20.239 3.27942H20.7953L20.8453 3.22955L20.9166 3.1582H20.1178ZM19.9395 3.1582V4.13175H21.0949V3.1582H19.9395ZM20.9736 4.00697H20.0607V3.27947H20.9736V4.00697ZM20.1178 3.1582L20.239 3.27942H20.7953L20.8453 3.22955L20.9166 3.1582H20.1178ZM20.1178 3.1582L20.239 3.27942H20.7953L20.8453 3.22955L20.9166 3.1582H20.1178ZM20.1178 3.1582L20.239 3.27942H20.7953L20.8453 3.22955L20.9166 3.1582H20.1178ZM20.1178 3.1582L20.239 3.27942H20.7953L20.8453 3.22955L20.9166 3.1582H20.1178ZM20.1178 3.1582L20.239 3.27942H20.7953L20.8453 3.22955L20.9166 3.1582H20.1178ZM20.1178 3.1582L20.239 3.27942H20.7953L20.8453 3.22955L20.9166 3.1582H20.1178Z" fill="#717070"/>
<path d="M19.6993 2.74023L19.8219 2.86286H18.7852V2.74023H19.6993Z" fill="#717070"/>
<path d="M22.2497 2.74023V2.86286H21.2129L21.3355 2.74023H22.2497Z" fill="#717070"/>
<path d="M20.061 3.30273H18.7852V3.42536H20.061V3.30273Z" fill="#717070"/>
<path d="M22.2485 3.30273H20.9727V3.42536H22.2485V3.30273Z" fill="#717070"/>
<path d="M20.061 3.86328H18.7852V3.98591H20.061V3.86328Z" fill="#717070"/>
<path d="M22.2485 3.86328H20.9727V3.98591H22.2485V3.86328Z" fill="#717070"/>
<path d="M19.8221 4.42578L19.6995 4.54841H18.7852V4.42578H19.8221Z" fill="#717070"/>
<path d="M22.2479 4.42578V4.54841H21.3335L21.2109 4.42578H22.2479Z" fill="#717070"/>
<path d="M20.2402 4.00781L19.1635 5.08444H18.9902L20.0669 4.00781H20.2402Z" fill="#717070"/>
<path d="M22.0448 2.20312L20.9682 3.27975H20.7949L21.8715 2.20312H22.0448Z" fill="#717070"/>
<path d="M20.2402 3.27975H20.0669L18.9902 2.20312H19.1636L20.2402 3.27975Z" fill="#717070"/>
<path d="M22.0449 5.08444H21.8715L20.9175 4.13044L20.8665 4.07939L20.7949 4.00781H20.9683L21.0349 4.07447L21.0909 4.13044L21.1575 4.19709L21.3859 4.42542L21.4575 4.497L21.5085 4.54805L21.5801 4.61963L22.0449 5.08444Z" fill="#717070"/>
<path d="M3.70442 3.30113C3.70442 2.91741 3.86267 2.57081 4.1172 2.32247C3.87073 2.082 3.53398 1.93359 3.16245 1.93359C2.40716 1.93359 1.79492 2.54588 1.79492 3.30113C1.79492 4.05642 2.4072 4.66866 3.16245 4.66866C3.53403 4.66866 3.87078 4.52025 4.1172 4.27978C3.86267 4.03148 3.70442 3.68484 3.70442 3.30113Z" fill="#DC3B39"/>
<path d="M5.07194 1.93359C4.70036 1.93359 4.36366 2.082 4.11719 2.32247C4.37172 2.57081 4.52997 2.91741 4.52997 3.30113C4.52997 3.68484 4.37172 4.03144 4.11719 4.27978C4.36366 4.52025 4.70041 4.66866 5.07194 4.66866C5.82723 4.66866 6.43947 4.05638 6.43947 3.30113C6.43947 2.54588 5.82719 1.93359 5.07194 1.93359Z" fill="#E6AB2D"/>
<path d="M4.53064 3.30092C4.53064 2.9172 4.37239 2.57061 4.11786 2.32227C3.86333 2.57061 3.70508 2.9172 3.70508 3.30092C3.70508 3.68464 3.86333 4.03123 4.11786 4.27958C4.37239 4.03128 4.53064 3.68464 4.53064 3.30092Z" fill="#D67261"/>
<path d="M4.53105 3.30148C4.53105 3.27261 4.52987 3.24402 4.52809 3.21556L3.90428 2.5918C3.85858 2.66684 3.81981 2.74658 3.78906 2.83025L4.50812 3.54931C4.52289 3.46887 4.53105 3.38619 4.53105 3.30148Z" fill="#E6AB2D"/>
<path d="M3.719 3.10742C3.71005 3.17066 3.70508 3.2352 3.70508 3.30087C3.70508 3.35337 3.70831 3.40512 3.71408 3.45608L4.30719 4.04919C4.35491 3.97648 4.39583 3.899 4.42916 3.81753L3.719 3.10742Z" fill="#E6AB2D"/>
<path opacity="0.2" d="M24 9.51953H0V9.81911H24V9.51953Z" fill="#040000"/>
<path opacity="0.2" d="M23.9998 1.56005V16.3381C23.9998 16.7589 23.6539 17.1048 23.2331 17.1048H3.84766L7.66342 13.2891L7.7882 13.1642L7.93084 13.0216L8.02712 12.9254L10.0135 10.939L10.1169 10.8356V10.832L10.1846 10.7678L10.1917 10.7607L10.4949 10.454L10.5911 10.3613L11.1332 9.81923L11.4328 9.51966L14.6387 6.31373L15.6693 5.28319L20.0913 0.857578L20.152 0.796875H23.2331C23.6539 0.796875 23.9998 1.1392 23.9998 1.56005Z" fill="#040000"/>
<defs>
<linearGradient id="paint0_linear_431_8851" x1="12" y1="0.857408" x2="12" y2="17.1653" gradientUnits="userSpaceOnUse">
<stop stop-color="#44484A"/>
<stop offset="1" stop-color="#193741"/>
</linearGradient>
</defs>
</svg>
