<svg width="20" height="12" viewBox="0 0 20 12" fill="none" xmlns="http://www.w3.org/2000/svg">
<path d="M11.8886 5.99999C11.8886 9.17253 9.31678 11.7441 6.14439 11.7441C2.97201 11.7441 0.400391 9.17253 0.400391 5.99999C0.400391 2.82773 2.97197 0.255859 6.14439 0.255859C9.31678 0.255859 11.8886 2.82773 11.8886 5.99999Z" fill="#D9222A"/>
<path d="M13.8551 0.255859C12.371 0.255859 11.0186 0.818931 9.99915 1.7428C9.79156 1.93106 9.59767 2.13442 9.41915 2.35068H10.5797C10.7383 2.5436 10.8845 2.74655 11.0176 2.95906H8.98129C8.85928 3.15439 8.74852 3.35733 8.65035 3.56732H11.3484C11.4405 3.7644 11.5218 3.96719 11.5916 4.17544H8.40718C8.34078 4.37356 8.28491 4.57637 8.24023 4.7837H11.7583C11.8428 5.1757 11.8877 5.58264 11.8877 5.99996C11.8877 6.63784 11.7836 7.25154 11.5916 7.82463H8.40715C8.47675 8.03301 8.55809 8.23596 8.65022 8.43288H11.3483C11.25 8.6429 11.1394 8.84581 11.0173 9.04127H8.98126C9.11419 9.25343 9.26059 9.45663 9.41915 9.64914H10.5794C10.4012 9.86581 10.2071 10.0694 9.99927 10.2576C11.0187 11.1813 12.371 11.7441 13.8551 11.7441C17.0276 11.7441 19.5994 9.17253 19.5994 5.99999C19.5994 2.82786 17.0276 0.255859 13.8551 0.255859Z" fill="#EE9F2D"/>
<path d="M18.834 9.20126C18.834 9.09886 18.9169 9.01562 19.0195 9.01562C19.122 9.01562 19.2049 9.09886 19.2049 9.20126C19.2049 9.30362 19.122 9.38686 19.0195 9.38686C18.9169 9.38686 18.834 9.30362 18.834 9.20126ZM19.0195 9.34231C19.0973 9.34231 19.1605 9.27911 19.1605 9.20126C19.1605 9.12324 19.0973 9.06033 19.0195 9.06033C18.9414 9.06033 18.8785 9.12327 18.8785 9.20126C18.8785 9.27911 18.9415 9.34231 19.0195 9.34231ZM18.9944 9.28283H18.9564V9.11975H19.0252C19.0396 9.11975 19.0543 9.11975 19.0669 9.12788C19.0802 9.13681 19.0876 9.15255 19.0876 9.16881C19.0876 9.18708 19.0768 9.20414 19.0593 9.21083L19.0893 9.28283H19.0472L19.0223 9.21828H18.9944V9.28283H18.9944ZM18.9944 9.19031H19.0155C19.0233 9.19031 19.0316 9.19099 19.0387 9.18711C19.0449 9.18311 19.0482 9.17562 19.0482 9.16842C19.0482 9.16218 19.0443 9.15495 19.0389 9.15188C19.0323 9.14775 19.0218 9.14865 19.0147 9.14865H18.9944V9.19031Z" fill="black"/>
<path d="M4.80399 6.62844C4.73851 6.62082 4.70974 6.61881 4.66478 6.61881C4.31131 6.61881 4.13237 6.74002 4.13237 6.97938C4.13237 7.12697 4.2197 7.22082 4.35595 7.22082C4.61 7.22082 4.79304 6.97897 4.80399 6.62844ZM5.25746 7.68431H4.74078L4.75266 7.43868C4.59502 7.63279 4.38479 7.72508 4.09903 7.72508C3.76101 7.72508 3.5293 7.46108 3.5293 7.07775C3.5293 6.50098 3.93237 6.16444 4.62424 6.16444C4.6949 6.16444 4.78558 6.17081 4.87835 6.18268C4.89768 6.10457 4.90277 6.07109 4.90277 6.02908C4.90277 5.87202 4.7941 5.81349 4.50277 5.81349C4.19771 5.81004 3.9461 5.88617 3.84277 5.92015C3.8493 5.88082 3.92917 5.38706 3.92917 5.38706C4.23995 5.29599 4.44488 5.26172 4.67557 5.26172C5.21099 5.26172 5.49464 5.50213 5.4941 5.9565C5.49515 6.07826 5.47499 6.2285 5.44357 6.42597C5.38946 6.7694 5.27333 7.50498 5.25746 7.68431Z" fill="black"/>
<path d="M3.26825 7.68524H2.64467L3.00185 5.44537L2.20425 7.68524H1.77932L1.72678 5.45817L1.35132 7.68524H0.767578L1.25516 4.77148H2.15183L2.20623 6.40243L2.75318 4.77148H3.75052L3.26825 7.68524Z" fill="black"/>
<path d="M14.6277 6.62844C14.5625 6.62082 14.5335 6.61881 14.4887 6.61881C14.1354 6.61881 13.9565 6.74002 13.9565 6.97938C13.9565 7.12697 14.0437 7.22082 14.1799 7.22082C14.434 7.22082 14.6171 6.97897 14.6277 6.62844ZM15.0815 7.68431H14.5649L14.5766 7.43868C14.419 7.63279 14.2086 7.72508 13.9231 7.72508C13.585 7.72508 13.3535 7.46108 13.3535 7.07775C13.3535 6.50098 13.7563 6.16444 14.4483 6.16444C14.519 6.16444 14.6095 6.17081 14.7022 6.18268C14.7215 6.10457 14.7266 6.07109 14.7266 6.02908C14.7266 5.87202 14.6181 5.81349 14.3267 5.81349C14.0217 5.81004 13.7703 5.88617 13.6666 5.92015C13.6731 5.88082 13.7533 5.38706 13.7533 5.38706C14.0641 5.29599 14.2689 5.26172 14.4993 5.26172C15.035 5.26172 15.3186 5.50213 15.3181 5.9565C15.3191 6.07826 15.299 6.2285 15.2676 6.42597C15.2137 6.7694 15.0973 7.50498 15.0815 7.68431Z" fill="black"/>
<path d="M8.02894 7.64932C7.85829 7.70305 7.72523 7.72609 7.58094 7.72609C7.26216 7.72609 7.08818 7.54289 7.08818 7.20554C7.08363 7.10087 7.13403 6.82542 7.17365 6.57396C7.20965 6.35261 7.44402 4.95703 7.44402 4.95703H8.06389L7.99147 5.31569H8.36587L8.28133 5.88516H7.90558C7.83358 6.33582 7.73106 6.89716 7.72987 6.97156C7.72987 7.09367 7.79506 7.14702 7.94335 7.14702C8.01442 7.14702 8.06946 7.13978 8.11147 7.12461L8.02894 7.64932Z" fill="black"/>
<path d="M9.92804 7.62905C9.71511 7.69413 9.50964 7.72559 9.29191 7.72505C8.59802 7.72437 8.23633 7.36197 8.23633 6.66799C8.23633 5.85797 8.69646 5.26172 9.3211 5.26172C9.83217 5.26172 10.1586 5.59557 10.1586 6.11919C10.1586 6.29292 10.1362 6.46252 10.0822 6.70198H8.84778C8.80602 7.04569 9.02602 7.18892 9.38657 7.18892C9.60846 7.18892 9.80858 7.14319 10.0311 7.0397L9.92804 7.62905ZM9.57962 6.22425C9.58308 6.1749 9.64538 5.8013 9.29121 5.8013C9.09377 5.8013 8.95255 5.95183 8.89508 6.22425H9.57962Z" fill="black"/>
<path d="M5.63053 6.06373C5.63053 6.36348 5.77588 6.57017 6.10548 6.72537C6.35802 6.84402 6.39706 6.87925 6.39706 6.98681C6.39706 7.13455 6.28573 7.20124 6.03895 7.20124C5.85293 7.20124 5.67988 7.17218 5.48029 7.10773C5.48029 7.10773 5.39828 7.63001 5.39453 7.65497C5.53629 7.68591 5.66269 7.71455 6.04346 7.72508C6.70148 7.72508 7.00535 7.47455 7.00535 6.93308C7.00535 6.60748 6.87812 6.41641 6.56576 6.27279C6.30429 6.15279 6.27431 6.12601 6.27431 6.01535C6.27431 5.88722 6.37789 5.82188 6.57949 5.82188C6.70189 5.82188 6.86909 5.83493 7.02749 5.85746L7.11629 5.30786C6.95482 5.28226 6.71002 5.26172 6.56749 5.26172C5.86986 5.26175 5.62839 5.62613 5.63053 6.06373Z" fill="black"/>
<path d="M12.9606 5.32486C13.1338 5.32486 13.2953 5.37033 13.5178 5.48233L13.6198 4.84992C13.5285 4.81404 13.2069 4.60352 12.9345 4.60352C12.5171 4.60352 12.1643 4.81059 11.9162 5.15232C11.5543 5.03244 11.4056 5.27472 11.2232 5.51606L11.0611 5.55379C11.0734 5.47433 11.0845 5.39539 11.0807 5.31552H10.5081C10.4298 6.04886 10.2911 6.79161 10.1826 7.52592L10.1543 7.68515H10.7782C10.8823 7.00857 10.9394 6.57539 10.974 6.2822L11.209 6.15152C11.2441 6.02102 11.3539 5.97686 11.5743 5.9822C11.5455 6.13686 11.53 6.29952 11.53 6.46809C11.53 7.24329 11.9483 7.72595 12.6196 7.72595C12.7926 7.72595 12.941 7.70316 13.1707 7.64089L13.2804 6.9766C13.0738 7.07836 12.9042 7.12624 12.7506 7.12624C12.3881 7.12624 12.1687 6.85862 12.1687 6.41635C12.1687 5.77472 12.495 5.32486 12.9606 5.32486Z" fill="black"/>
<path d="M3.44791 7.511H2.82419L3.18167 5.27138L2.38403 7.511H1.95898L1.90643 5.28418L1.53098 7.511H0.947266L1.43485 4.59766H2.33152L2.35674 6.40124L2.96167 4.59766H3.93021L3.44791 7.511Z" fill="white"/>
<path d="M18.2415 4.77148L18.1032 5.61337C17.9327 5.38896 17.7495 5.22656 17.5076 5.22656C17.193 5.22656 16.9066 5.46512 16.7191 5.81616C16.458 5.76201 16.188 5.67014 16.188 5.67014L16.1879 5.67228C16.2089 5.476 16.2174 5.35628 16.2155 5.31561H15.6427C15.5646 6.04896 15.426 6.79171 15.3176 7.52601L15.2891 7.68524H15.9128C15.9971 7.13817 16.0616 6.6839 16.1091 6.32361C16.3221 6.1311 16.4288 5.9631 16.6441 5.9743C16.5488 6.20483 16.4929 6.47043 16.4929 6.74284C16.4929 7.33526 16.7926 7.72604 17.246 7.72604C17.4745 7.72604 17.6499 7.64726 17.8209 7.46457L17.7917 7.68486H18.3816L18.8566 4.77152H18.2415V4.77148ZM17.4616 7.1376C17.2494 7.1376 17.1422 6.98054 17.1422 6.67052C17.1422 6.2048 17.3428 5.87452 17.6257 5.87452C17.84 5.87452 17.956 6.03785 17.956 6.33881C17.956 6.80854 17.7521 7.1376 17.4616 7.1376Z" fill="black"/>
<path d="M4.98345 6.4566C4.9181 6.44904 4.88918 6.44703 4.84438 6.44703C4.4909 6.44703 4.31209 6.56821 4.31209 6.80754C4.31209 6.95487 4.39942 7.04904 4.53542 7.04904C4.78972 7.04901 4.97279 6.80716 4.98345 6.4566ZM5.43714 7.51208H4.92047L4.93222 7.26687C4.77474 7.4606 4.56422 7.55327 4.27874 7.55327C3.9406 7.55327 3.70898 7.28927 3.70898 6.90594C3.70898 6.32888 4.11193 5.9926 4.80393 5.9926C4.87458 5.9926 4.96527 5.999 5.05794 6.01087C5.07727 5.93276 5.08236 5.89928 5.08236 5.85701C5.08236 5.69992 4.97382 5.64168 4.68249 5.64168C4.3773 5.63823 4.12582 5.71436 4.02236 5.74796C4.02889 5.70876 4.10876 5.21557 4.10876 5.21557C4.41942 5.12412 4.6246 5.08984 4.855 5.08984C5.39058 5.08984 5.67433 5.33039 5.67382 5.78437C5.67474 5.90664 5.65449 6.05679 5.62313 6.25397C5.56914 6.59714 5.45292 7.33314 5.43714 7.51208Z" fill="white"/>
<path d="M13.8008 4.67672L13.6986 5.30926C13.4762 5.19739 13.3146 5.15182 13.1416 5.15182C12.676 5.15182 12.3496 5.60168 12.3496 6.24325C12.3496 6.68552 12.569 6.95301 12.9315 6.95301C13.0851 6.95301 13.2546 6.90526 13.4612 6.80341L13.3517 7.46741C13.1219 7.53006 12.9736 7.55288 12.8005 7.55288C12.1293 7.55288 11.7109 7.07019 11.7109 6.29499C11.7109 5.25339 12.2888 4.52539 13.1153 4.52539C13.3876 4.52539 13.7093 4.64085 13.8008 4.67672Z" fill="white"/>
<path d="M14.8057 6.4566C14.7403 6.44904 14.7115 6.44703 14.6666 6.44703C14.3133 6.44703 14.1343 6.56821 14.1343 6.80754C14.1343 6.95487 14.2217 7.04904 14.3578 7.04904C14.6118 7.04901 14.795 6.80716 14.8057 6.4566ZM15.2594 7.51208H14.7426L14.7544 7.26687C14.5968 7.4606 14.3864 7.55327 14.101 7.55327C13.763 7.55327 13.5312 7.28927 13.5312 6.90594C13.5312 6.32888 13.9343 5.9926 14.626 5.9926C14.6968 5.9926 14.7874 5.999 14.8802 6.01087C14.8994 5.93276 14.9046 5.89928 14.9046 5.85701C14.9046 5.69992 14.796 5.64168 14.5047 5.64168C14.1997 5.63823 13.9481 5.71436 13.8446 5.74796C13.8511 5.70876 13.9311 5.21557 13.9311 5.21557C14.2418 5.12412 14.4468 5.08984 14.6772 5.08984C15.2129 5.08984 15.4966 5.33039 15.4959 5.78437C15.4969 5.90664 15.4768 6.05679 15.4454 6.25397C15.3915 6.59714 15.275 7.33314 15.2594 7.51208Z" fill="white"/>
<path d="M8.20666 7.47536C8.03585 7.52909 7.90279 7.55242 7.75866 7.55242C7.43988 7.55242 7.2659 7.36922 7.2659 7.03188C7.26148 6.92695 7.31191 6.65172 7.3515 6.40029C7.38734 6.17866 7.62174 4.7832 7.62174 4.7832H8.24148L8.16919 5.14199H8.4873L8.40263 5.7112H8.08343C8.01143 6.16215 7.90862 6.72308 7.90756 6.7976C7.90756 6.92016 7.97287 6.97306 8.12103 6.97306C8.1921 6.97306 8.24705 6.96615 8.28916 6.95095L8.20666 7.47536Z" fill="white"/>
<path d="M10.1077 7.4573C9.89493 7.52236 9.6892 7.55368 9.4716 7.5533C8.77771 7.55263 8.41602 7.19023 8.41602 6.49624C8.41602 5.68597 8.87614 5.08984 9.50078 5.08984C10.0119 5.08984 10.3383 5.42357 10.3383 5.94744C10.3383 6.12133 10.3159 6.2909 10.262 6.53026H9.0276C8.98584 6.87397 9.20584 7.01733 9.56638 7.01733C9.78814 7.01733 9.9884 6.97144 10.2108 6.8677L10.1077 7.4573ZM9.75922 6.05212C9.76293 6.0029 9.8251 5.62917 9.4708 5.62917C9.27346 5.62917 9.13227 5.78012 9.0748 6.05212H9.75922Z" fill="white"/>
<path d="M5.81012 5.89196C5.81012 6.19167 5.95547 6.3981 6.28507 6.55356C6.53761 6.67224 6.57665 6.70757 6.57665 6.81506C6.57665 6.96277 6.46519 7.02943 6.21863 7.02943C6.03252 7.02943 5.85943 7.00037 5.65969 6.93596C5.65969 6.93596 5.57796 7.45823 5.57422 7.48319C5.71569 7.51413 5.84222 7.54239 6.22302 7.5533C6.88113 7.5533 7.18491 7.30277 7.18491 6.76143C7.18491 6.43567 7.05783 6.24463 6.74532 6.10104C6.48398 5.98076 6.45371 5.95436 6.45371 5.84357C6.45371 5.71557 6.55758 5.64968 6.75905 5.64968C6.88132 5.64968 7.04852 5.66316 7.20718 5.68568L7.29585 5.13596C7.13451 5.11036 6.88971 5.08984 6.74718 5.08984C6.04945 5.08984 5.80811 5.45397 5.81012 5.89196Z" fill="white"/>
<path d="M18.5604 7.511H17.9704L17.9997 7.29042C17.8287 7.47337 17.6533 7.55218 17.4248 7.55218C16.9715 7.55218 16.6719 7.16137 16.6719 6.56898C16.6719 5.78082 17.1365 5.11644 17.6865 5.11644C17.9284 5.11644 18.1115 5.21522 18.2819 5.43951L18.4203 4.59766H19.0353L18.5604 7.511ZM17.6405 6.96351C17.9309 6.96351 18.1349 6.63446 18.1349 6.16502C18.1349 5.86406 18.0188 5.70073 17.8045 5.70073C17.5218 5.70073 17.3208 6.03084 17.3208 6.49673C17.3208 6.80671 17.4283 6.96351 17.6405 6.96351Z" fill="white"/>
<path d="M15.8225 5.14272C15.7444 5.87606 15.6057 6.61888 15.4973 7.35273L15.4688 7.51197H16.0925C16.3156 6.06317 16.3695 5.78022 16.7193 5.81568C16.775 5.51913 16.8787 5.25942 16.9561 5.12835C16.6949 5.07395 16.549 5.22157 16.3581 5.50195C16.3731 5.38073 16.4007 5.26301 16.3952 5.14275H15.8225" fill="white"/>
<path d="M10.6877 5.14272C10.6095 5.87606 10.4708 6.61888 10.3624 7.35273L10.334 7.51197H10.958C11.1808 6.06317 11.2347 5.78022 11.5843 5.81568C11.6403 5.51913 11.744 5.25942 11.821 5.12835C11.5601 5.07395 11.4141 5.22157 11.2233 5.50195C11.2384 5.38073 11.2657 5.26301 11.2605 5.14275H10.6877" fill="white"/>
<path d="M18.834 7.32619C18.834 7.22341 18.9171 7.14062 19.0195 7.14062C19.122 7.14062 19.2049 7.22341 19.2049 7.32619C19.2049 7.42847 19.122 7.5117 19.0195 7.5117C18.917 7.5117 18.834 7.4285 18.834 7.32619ZM19.0195 7.46715C19.0975 7.46715 19.1604 7.40395 19.1604 7.32623C19.1604 7.24837 19.0974 7.18517 19.0195 7.18517C18.9416 7.18517 18.8784 7.2484 18.8784 7.32623C18.8784 7.40395 18.9416 7.46715 19.0195 7.46715ZM18.9944 7.40728H18.9564V7.24466H19.0252C19.0395 7.24466 19.0543 7.24491 19.0667 7.25279C19.0801 7.26184 19.0876 7.2773 19.0876 7.29355C19.0876 7.31195 19.0769 7.32914 19.0592 7.3357L19.0894 7.40725H19.0471L19.0222 7.34299H18.9943L18.9944 7.40728ZM18.9944 7.31515H19.0153C19.0231 7.31515 19.0317 7.31573 19.0386 7.31195C19.0449 7.30795 19.0481 7.30037 19.0481 7.29314C19.0481 7.28712 19.0444 7.27995 19.0389 7.27637C19.0324 7.27266 19.0215 7.27371 19.0145 7.27371H18.9943L18.9944 7.31515Z" fill="white"/>
</svg>
