<svg width="24" height="16" viewBox="0 0 24 16" fill="none" xmlns="http://www.w3.org/2000/svg">
<path d="M22.3077 0.464844H1.69231C0.759169 0.464844 0 1.2071 0 2.11945V13.8822C0 14.7946 0.759169 15.5368 1.69231 15.5368H22.3077C23.2408 15.5368 24 14.7946 24 13.8822V2.11945C24 1.2071 23.2408 0.464844 22.3077 0.464844Z" fill="white"/>
<path d="M5.22546 5.53452C4.96869 5.358 4.63363 5.26953 4.22027 5.26953H2.61998C2.49326 5.26953 2.42325 5.33291 2.40995 5.4595L1.75985 9.5403C1.7531 9.58038 1.76312 9.61703 1.78984 9.65036C1.81641 9.68374 1.84982 9.70034 1.88984 9.70034H2.64997C2.78329 9.70034 2.85657 9.63712 2.87002 9.51034L3.05003 8.4102C3.0566 8.35688 3.08005 8.31353 3.12007 8.28014C3.16006 8.24682 3.21007 8.22502 3.27008 8.21503C3.33009 8.20512 3.38668 8.20014 3.44012 8.20014C3.49341 8.20014 3.55672 8.2035 3.63018 8.21014C3.70346 8.2168 3.75018 8.22004 3.7702 8.22004C4.3436 8.22004 4.79367 8.05847 5.12045 7.73499C5.44707 7.41164 5.61057 6.96325 5.61057 6.38973C5.61057 5.99637 5.48211 5.71132 5.22546 5.53452ZM4.40034 6.75983C4.36689 6.99324 4.28031 7.14653 4.1403 7.2199C4.00025 7.29336 3.80022 7.32986 3.54021 7.32986L3.21013 7.33989L3.3802 6.26968C3.39347 6.1964 3.43679 6.15971 3.51019 6.15971H3.70028C3.96687 6.15971 4.16035 6.19814 4.28038 6.27469C4.40034 6.35142 4.44036 6.51321 4.40034 6.75983Z" fill="#003087"/>
<path d="M22.1143 5.26953H21.3742C21.3007 5.26953 21.2574 5.30622 21.2442 5.37956L20.594 9.5403L20.584 9.56029C20.584 9.5938 20.5973 9.62532 20.6241 9.65534C20.6506 9.6853 20.6841 9.70031 20.724 9.70031H21.3842C21.5107 9.70031 21.5808 9.63709 21.5943 9.51031L22.2444 5.41948V5.40955C22.2443 5.31621 22.2009 5.26953 22.1143 5.26953Z" fill="#009CDE"/>
<path d="M13.1728 6.88025C13.1728 6.84699 13.1594 6.81526 13.1329 6.7853C13.1061 6.75531 13.0761 6.74023 13.0428 6.74023H12.2727C12.1992 6.74023 12.1392 6.77374 12.0927 6.84023L11.0325 8.4006L10.5924 6.90031C10.5589 6.79367 10.4856 6.74023 10.3724 6.74023H9.62215C9.58873 6.74023 9.55871 6.75528 9.53221 6.7853C9.50546 6.81526 9.49219 6.84702 9.49219 6.88025C9.49219 6.8937 9.55721 7.09031 9.6872 7.47037C9.81719 7.8505 9.95724 8.26058 10.1073 8.70072C10.2573 9.14073 10.3356 9.37424 10.3423 9.40074C9.79552 10.1476 9.52218 10.5477 9.52218 10.6009C9.52218 10.6877 9.5655 10.731 9.6522 10.731H10.4224C10.4957 10.731 10.5557 10.6977 10.6024 10.631L13.1529 6.95026C13.1661 6.93699 13.1728 6.91376 13.1728 6.88025Z" fill="#003087"/>
<path d="M20.3431 6.73996H19.5829C19.4895 6.73996 19.4329 6.84999 19.413 7.07004C19.2394 6.80346 18.9229 6.66992 18.4627 6.66992C17.9826 6.66992 17.5741 6.84999 17.2375 7.21006C16.9007 7.57016 16.7324 7.99363 16.7324 8.48033C16.7324 8.87382 16.8474 9.18717 17.0774 9.42046C17.3075 9.654 17.6158 9.77054 18.0027 9.77054C18.196 9.77054 18.3927 9.73046 18.5927 9.65051C18.7928 9.57051 18.9493 9.46388 19.0629 9.33046C19.0629 9.33716 19.0561 9.36712 19.0429 9.42043C19.0294 9.47387 19.0228 9.51395 19.0228 9.54046C19.0228 9.64727 19.0661 9.70047 19.1529 9.70047H19.8431C19.9696 9.70047 20.043 9.63725 20.063 9.51047L20.4731 6.9C20.4797 6.85998 20.4697 6.82336 20.4431 6.78998C20.4163 6.75668 20.3831 6.73996 20.3431 6.73996ZM19.0378 8.71035C18.8678 8.87706 18.6628 8.96036 18.4227 8.96036C18.2293 8.96036 18.0727 8.90711 17.9526 8.80035C17.8326 8.69384 17.7726 8.54713 17.7726 8.36028C17.7726 8.11372 17.8559 7.90522 18.0227 7.73518C18.1892 7.56515 18.3961 7.48013 18.6428 7.48013C18.8293 7.48013 18.9844 7.53515 19.1079 7.64515C19.2311 7.75518 19.2929 7.90693 19.2929 8.1003C19.2929 8.34031 19.2079 8.54374 19.0378 8.71035Z" fill="#009CDE"/>
<path d="M8.98179 6.73996H8.22167C8.12818 6.73996 8.07162 6.84999 8.0516 7.07004C7.87156 6.80346 7.55481 6.66992 7.10141 6.66992C6.62131 6.66992 6.21285 6.84999 5.87616 7.21006C5.53939 7.57016 5.37109 7.99363 5.37109 8.48033C5.37109 8.87382 5.48613 9.18717 5.71618 9.42046C5.94623 9.654 6.25455 9.77054 6.64134 9.77054C6.82794 9.77054 7.02143 9.73046 7.22143 9.65051C7.42146 9.57051 7.5815 9.46388 7.70152 9.33046C7.67477 9.41047 7.66151 9.48051 7.66151 9.54046C7.66151 9.64727 7.70482 9.70047 7.79153 9.70047H8.48165C8.60824 9.70047 8.68167 9.63725 8.7017 9.51047L9.11175 6.9C9.11833 6.85998 9.10833 6.82336 9.08176 6.78998C9.05507 6.75668 9.02178 6.73996 8.98179 6.73996ZM7.67655 8.7153C7.50648 8.87886 7.29801 8.96036 7.05145 8.96036C6.85797 8.96036 6.70294 8.90711 6.58634 8.80035C6.46959 8.69384 6.41129 8.54713 6.41129 8.36028C6.41129 8.11372 6.49459 7.90522 6.66136 7.73518C6.82794 7.56515 7.03467 7.48013 7.28147 7.48013C7.46808 7.48013 7.62311 7.53515 7.74659 7.64515C7.86985 7.75518 7.9316 7.90693 7.9316 8.1003C7.9316 8.34701 7.84658 8.55211 7.67655 8.7153Z" fill="#003087"/>
<path d="M16.5868 5.53452C16.3301 5.358 15.9951 5.26953 15.5816 5.26953H13.9913C13.8579 5.26953 13.7845 5.33291 13.7713 5.4595L13.1212 9.54027C13.1144 9.58035 13.1244 9.617 13.1512 9.65033C13.1776 9.68371 13.2112 9.70031 13.2512 9.70031H14.0713C14.1513 9.70031 14.2046 9.65702 14.2313 9.57032L14.4114 8.41016C14.418 8.35685 14.4414 8.3135 14.4814 8.28011C14.5214 8.24679 14.5714 8.22499 14.6314 8.215C14.6914 8.20509 14.748 8.20011 14.8015 8.20011C14.8548 8.20011 14.9181 8.20347 14.9915 8.21011C15.0648 8.21677 15.1116 8.22001 15.1315 8.22001C15.705 8.22001 16.155 8.05844 16.4817 7.73496C16.8085 7.41161 16.9718 6.96322 16.9718 6.3897C16.9719 5.99637 16.8434 5.71132 16.5868 5.53452ZM15.5616 7.17988C15.4149 7.27988 15.1948 7.32986 14.9015 7.32986L14.5814 7.33989L14.7515 6.26968C14.7647 6.1964 14.808 6.15971 14.8815 6.15971H15.0615C15.2081 6.15971 15.3248 6.16637 15.4116 6.17967C15.4982 6.19312 15.5816 6.23467 15.6616 6.30468C15.7417 6.37472 15.7817 6.47643 15.7817 6.60978C15.7817 6.88982 15.7082 7.07982 15.5616 7.17988Z" fill="#009CDE"/>
</svg>
