<svg width="22" height="8" viewBox="0 0 22 8" fill="none" xmlns="http://www.w3.org/2000/svg">
<path d="M7.90234 7.1609L8.96986 0.896484H10.6773L9.60903 7.1609H7.90234Z" fill="#0E4595"/>
<path d="M15.7778 1.03068C15.4396 0.90377 14.9095 0.767578 14.2475 0.767578C12.5603 0.767578 11.3719 1.61721 11.3618 2.83491C11.3522 3.73503 12.2102 4.23718 12.8579 4.53683C13.5225 4.84393 13.7459 5.03974 13.7427 5.31388C13.7385 5.73382 13.212 5.92559 12.7212 5.92559C12.0378 5.92559 11.6747 5.83065 11.114 5.59683L10.8939 5.49724L10.6543 6.89958C11.0531 7.07449 11.7906 7.22595 12.5563 7.23382C14.3512 7.23382 15.5164 6.39388 15.5296 5.09353C15.536 4.38089 15.0811 3.83862 14.096 3.39151C13.4992 3.10172 13.1337 2.90835 13.1376 2.61491C13.1376 2.35452 13.4469 2.07609 14.1154 2.07609C14.6738 2.06742 15.0783 2.18918 15.3934 2.31609L15.5464 2.38838L15.7778 1.03068Z" fill="#0E4595"/>
<path d="M20.1731 0.896484H18.8537C18.445 0.896484 18.1391 1.00804 17.9596 1.41597L15.4238 7.15684H17.2168C17.2168 7.15684 17.5099 6.38496 17.5762 6.21546C17.7722 6.21546 19.514 6.21815 19.763 6.21815C19.8141 6.43748 19.9707 7.15684 19.9707 7.15684H21.5551L20.1731 0.896484ZM18.0798 4.94154C18.221 4.58061 18.7601 3.19037 18.7601 3.19037C18.75 3.20704 18.9003 2.82768 18.9865 2.59248L19.1019 3.13258C19.1019 3.13258 19.4288 4.62791 19.4971 4.94144H18.0798V4.94154Z" fill="#0E4595"/>
<path d="M0.469078 0.896484L0.447266 1.0268C1.12224 1.19019 1.72509 1.42668 2.25289 1.72086L3.76795 7.15086L5.57452 7.14886L8.26264 0.896484H6.45383L4.7822 5.16836L4.60414 4.30017C4.5958 4.27335 4.58673 4.24648 4.57745 4.21955L3.99633 1.42536C3.893 1.02869 3.59324 0.910308 3.22239 0.896484H0.469078Z" fill="#0E4595"/>
</svg>
