<svg width="1000" height="1000" viewBox="0 0 1000 1000" fill="none" xmlns="http://www.w3.org/2000/svg">
<path d="M82.3799 502.28C93.0599 554.87 86.0599 612.19 112.77 618.64C135.01 624.01 149.3 601.24 157.29 580.67C165.27 560.1 171.26 532.52 224.37 516.4C276.49 500.58 285.3 480.11 272.26 447.86C255.98 407.61 246.93 364.53 190.75 378.96C138.56 392.36 117.37 396.66 105.5 402.6C93.63 408.54 63.7499 410.59 82.3799 502.28Z" fill="url(#paint0_linear_2643_13565)"/>
<path d="M209.94 575.66C228.96 557.83 262.07 551.71 264.68 591.01C267.29 630.31 214.08 630.77 203.49 611.27C194.67 595.04 204.77 580.51 209.94 575.66Z" fill="url(#paint1_linear_2643_13565)"/>
<path d="M428.8 488.07C425.76 493.69 421 498.22 414.52 501.66C408.04 505.1 399.87 506.82 390 506.82H369.87V552.93H345.78V432.85H389.99C399.28 432.85 407.19 434.46 413.73 437.67C420.27 440.88 425.17 445.3 428.44 450.92C431.71 456.54 433.34 462.91 433.34 470.02C433.36 476.43 431.84 482.45 428.8 488.07ZM403.77 482.82C406.98 479.78 408.59 475.51 408.59 470C408.59 458.3 402.05 452.45 388.98 452.45H369.88V487.38H388.98C395.62 487.38 400.56 485.86 403.77 482.82Z" fill="#172E4E"/>
<path d="M524.98 477.09V552.93H504.88V544.59C499.19 551.42 490.85 555.21 480.8 555.21C460.13 555.21 443.07 538.52 443.07 515.01C443.07 491.5 460.14 474.81 480.8 474.81C490.85 474.81 499.19 478.6 504.88 485.43V477.09H524.98ZM505.83 515.01C505.83 500.6 495.02 493.39 484.4 493.39C473.78 493.39 463.16 500.41 463.16 515.01C463.16 529.61 473.59 536.63 484.21 536.63C495.02 536.62 505.83 529.23 505.83 515.01Z" fill="#172E4E"/>
<path d="M611.9 484.89C617.2 490.65 619.85 498.55 619.85 508.61V552.92H596.74V511.73C596.74 506.66 595.42 502.71 592.8 499.9C590.17 497.09 586.64 495.69 582.2 495.69C577.76 495.69 574.22 497.1 571.6 499.9C568.97 502.71 567.66 506.65 567.66 511.73V552.92H544.41V477.07H567.66V487.13C570.02 483.78 573.19 481.13 577.18 479.18C581.17 477.23 585.65 476.26 590.64 476.26C599.51 476.26 606.6 479.14 611.9 484.89Z" fill="#172E4E"/>
<path d="M714.06 477.09V554.26C714.06 580.43 697.75 596.73 671.78 596.73C657.94 596.73 644.29 592.75 635 582.7L646.38 568.67C653.02 574.36 663.07 577.96 671.79 577.96C686.2 577.96 693.78 569.81 693.78 554.26V544.97C688.09 551.61 680.13 555.21 670.46 555.21C649.41 555.21 632.16 538.52 632.16 515.01C632.16 491.5 649.41 474.81 670.46 474.81C680.13 474.81 688.09 478.41 693.78 485.05V477.09H714.06ZM694.91 514.82C694.91 500.6 684.1 493.39 673.48 493.39C662.86 493.39 652.24 500.41 652.24 515.01C652.24 529.61 662.67 536.63 673.29 536.63C684.11 536.62 694.91 529.23 694.91 514.82Z" fill="#172E4E"/>
<path d="M807.17 521.83H750.48C753.13 531.88 760.91 539.27 772.85 539.27C781.19 539.27 787.83 535.67 794.09 531.12L804.9 542.88C796.94 550.65 784.99 555.2 772.1 555.2C747.45 555.2 730.58 538.13 730.58 514.62C730.58 491.11 747.27 474.8 770.78 474.8C793.15 474.8 807.94 489.4 807.94 512.15C807.92 514.82 807.73 518.42 807.17 521.83ZM750.66 505.91H789.15C787.06 496.05 780.05 490.74 770.76 490.74C761.09 490.74 753.32 496.43 750.66 505.91Z" fill="#172E4E"/>
<path d="M887.37 544.21C880.17 551.79 871.44 555.21 862.91 555.21C842.05 555.21 830.49 542.7 830.49 523.55V494.16H817.22V477.1H830.49V458.14H850.78V477.1H881.69V494.16H850.78V523.55C850.78 531.13 854.95 536.06 863.67 536.06C867.46 536.06 871.44 534.35 874.86 530.94L887.37 544.21Z" fill="#172E4E"/>
<path d="M897.61 447.13C897.61 439.74 902.73 434.24 910.5 434.24C918.27 434.24 923.58 439.74 923.58 447.13C923.58 454.52 918.27 459.83 910.5 459.83C902.73 459.83 897.61 454.52 897.61 447.13ZM900.46 477.09H920.75V552.93H900.46V477.09Z" fill="#172E4E"/>
<defs>
<linearGradient id="paint0_linear_2643_13565" x1="105.721" y1="610.794" x2="212.561" y2="378.692" gradientUnits="userSpaceOnUse">
<stop stop-color="#EB4A32"/>
<stop offset="1" stop-color="#F5AD4A"/>
</linearGradient>
<linearGradient id="paint1_linear_2643_13565" x1="204.8" y1="656.402" x2="311.641" y2="424.3" gradientUnits="userSpaceOnUse">
<stop stop-color="#EB4A32"/>
<stop offset="1" stop-color="#F5AD4A"/>
</linearGradient>
</defs>
</svg>
