<svg width="20" height="21" viewBox="0 0 20 21" fill="none" xmlns="http://www.w3.org/2000/svg">
<g clip-path="url(#clip0_365_36647)">
<path d="M10 20.5C15.5228 20.5 20 16.0228 20 10.5C20 4.97715 15.5228 0.5 10 0.5C4.47715 0.5 0 4.97715 0 10.5C0 16.0228 4.47715 20.5 10 20.5Z" fill="#FC4581"/>
<path d="M15.3332 2.04023H4.66602C4.85638 1.91992 5.05091 1.80599 5.24961 1.69844C6.65692 0.936821 8.22735 0.526356 9.82734 0.501953H10.1719C10.3633 0.504687 10.5531 0.513672 10.7418 0.527344C12.3735 0.646019 13.9506 1.16569 15.3332 2.04023Z" fill="#DB1B1B"/>
<path d="M17.2176 3.57832H2.7832C2.79258 3.56816 2.80234 3.5584 2.81211 3.54824C2.9944 3.36074 3.18255 3.18066 3.37656 3.00801C3.56328 2.84316 3.75612 2.68496 3.95508 2.5334C4.18477 2.35918 4.42383 2.19395 4.6668 2.04004H15.334C16.0221 2.47426 16.6546 2.99084 17.2176 3.57832Z" fill="white"/>
<path d="M18.4293 5.11602H1.57227C1.71484 4.89375 1.86602 4.67656 2.02539 4.4668C2.26065 4.1561 2.51381 3.85937 2.78359 3.57812H17.218C17.6707 4.05021 18.0764 4.56527 18.4293 5.11602Z" fill="#DB1B1B"/>
<path d="M19.2328 6.65449H0.765625C0.814062 6.5373 0.864844 6.42246 0.918359 6.30762C1.08832 5.93991 1.28048 5.58287 1.49375 5.23848C1.51914 5.19941 1.54492 5.15723 1.57187 5.11621H18.4277C18.7403 5.6046 19.0097 6.11931 19.2328 6.65449Z" fill="white"/>
<path d="M19.7316 8.19277H0.267578C0.323307 7.95449 0.388411 7.72012 0.462891 7.48965C0.552214 7.20527 0.653776 6.92715 0.767578 6.65527H19.2332C19.441 7.15331 19.6077 7.66753 19.7316 8.19277Z" fill="#DB1B1B"/>
<path d="M19.9707 9.73066H0.0292969C0.0684447 9.21244 0.148248 8.6981 0.267969 8.19238H19.732C19.8518 8.6981 19.9316 9.21244 19.9707 9.73066Z" fill="white"/>
<path d="M20 10.4996C20 10.7582 19.9902 11.0146 19.9707 11.2688H0.0292969C0.00976562 11.0148 0 10.7585 0 10.4996V10.0016C3.89443e-05 10.0145 0.00369089 10.0273 0.0105469 10.0383C0.0105469 10.0113 0.0128906 9.98438 0.0144531 9.95781C0.0183594 9.88164 0.0234375 9.80625 0.0292969 9.73047H19.9707C19.9902 9.98438 20 10.2408 20 10.4996Z" fill="#DB1B1B"/>
<path d="M19.9707 11.2695C19.9316 11.7878 19.8518 12.3021 19.732 12.8078H0.267969C0.148214 12.3021 0.068411 11.7878 0.0292969 11.2695H19.9707Z" fill="white"/>
<path d="M19.7316 12.8076C19.608 13.3331 19.4413 13.8474 19.2332 14.3455H0.766016C0.557945 13.8474 0.391236 13.3331 0.267578 12.8076H19.7316Z" fill="#DB1B1B"/>
<path d="M19.2328 14.3457C19.0099 14.881 18.7405 15.3957 18.4277 15.884H1.5707C1.25791 15.3957 0.988519 14.881 0.765625 14.3457H19.2328Z" fill="white"/>
<path d="M18.4289 15.8838C18.0762 16.4347 17.6707 16.9499 17.218 17.4221H2.7832C2.33049 16.9499 1.92492 16.4347 1.57227 15.8838H18.4289Z" fill="#DB1B1B"/>
<path d="M17.2176 17.4219C16.6543 18.009 16.0218 18.5256 15.334 18.9602H4.6668C3.97895 18.5256 3.34645 18.009 2.7832 17.4219H17.2176Z" fill="white"/>
<path d="M15.3328 18.96C13.7935 19.9345 12.016 20.4671 10.1945 20.4998H9.80391C7.98204 20.468 6.20398 19.936 4.66406 18.9619L15.3328 18.96Z" fill="#DB1B1B"/>
<path d="M10.7422 0.527344V11.2695H0.0292969C0.00976562 11.0154 0 10.7589 0 10.5V10.002C3.89443e-05 10.0149 0.00369089 10.0276 0.0105469 10.0387C0.0105469 10.0117 0.0128906 9.98477 0.0144531 9.9582C0.0183594 9.88203 0.0234375 9.80664 0.0292969 9.73086C0.0684447 9.21264 0.148248 8.6983 0.267969 8.19258C0.323698 7.9543 0.388802 7.71992 0.463281 7.48945C0.552604 7.20508 0.654167 6.92695 0.767969 6.65508C0.816406 6.53789 0.867188 6.42305 0.920703 6.3082C1.09067 5.9405 1.28282 5.58346 1.49609 5.23906C1.52148 5.2 1.54727 5.15781 1.57422 5.1168C1.7168 4.89453 1.86797 4.67734 2.02734 4.46758C2.26171 4.15682 2.51396 3.85996 2.78281 3.57852C2.79219 3.56836 2.80195 3.55859 2.81172 3.54844C2.99401 3.36094 3.18216 3.18086 3.37617 3.0082C3.56289 2.84336 3.75573 2.68516 3.95469 2.53359C4.18437 2.35938 4.42344 2.19414 4.66641 2.04023C4.85677 1.91992 5.0513 1.80599 5.25 1.69844C6.65731 0.936821 8.22774 0.526356 9.82773 0.501953H10.1723C10.3637 0.504687 10.5535 0.513672 10.7422 0.527344Z" fill="#3E436D"/>
<path d="M9.58465 1.14074L9.72136 1.56144C9.72599 1.57573 9.73501 1.58819 9.74715 1.59703C9.75929 1.60588 9.77392 1.61065 9.78894 1.61066H10.2331C10.2478 1.61124 10.2621 1.6164 10.2737 1.62542C10.2854 1.63445 10.294 1.64689 10.2983 1.66103C10.3026 1.67516 10.3024 1.69028 10.2977 1.70428C10.293 1.71829 10.2841 1.73048 10.2721 1.73918L9.91394 1.99933C9.90199 2.008 9.89306 2.02021 9.88843 2.03423C9.88381 2.04825 9.88371 2.06338 9.88816 2.07746L10.0249 2.49855C10.0291 2.51274 10.0288 2.52788 10.0239 2.54187C10.0191 2.55586 10.0101 2.568 9.99804 2.5766C9.986 2.58519 9.97158 2.58982 9.95678 2.58984C9.94199 2.58985 9.92756 2.58525 9.9155 2.57668L9.55769 2.31652C9.54552 2.30775 9.5309 2.30303 9.5159 2.30303C9.50089 2.30303 9.48627 2.30775 9.4741 2.31652L9.1159 2.57668C9.10384 2.58525 9.08941 2.58985 9.07462 2.58984C9.05982 2.58982 9.0454 2.58519 9.03336 2.5766C9.02133 2.568 9.01227 2.55586 9.00746 2.54187C9.00265 2.52788 9.00232 2.51274 9.00652 2.49855L9.14363 2.07746C9.1479 2.06337 9.14772 2.0483 9.1431 2.03431C9.13849 2.02033 9.12967 2.00811 9.11785 1.99933L8.75965 1.73918C8.74754 1.73034 8.73853 1.7179 8.73392 1.70364C8.72931 1.68938 8.72932 1.67402 8.73395 1.65977C8.73859 1.64551 8.74761 1.63309 8.75973 1.62427C8.77185 1.61545 8.78645 1.61069 8.80144 1.61066H9.24402C9.25902 1.61059 9.27363 1.60579 9.28575 1.59696C9.29788 1.58813 9.30693 1.5757 9.3116 1.56144L9.44832 1.14074C9.45267 1.12604 9.46166 1.11314 9.47395 1.10397C9.48623 1.0948 9.50115 1.08984 9.51648 1.08984C9.53181 1.08984 9.54673 1.0948 9.55902 1.10397C9.5713 1.11314 9.58029 1.12604 9.58465 1.14074Z" fill="white"/>
<path d="M4.83672 2.04082C4.83315 2.0536 4.83315 2.06711 4.83672 2.07988L4.97383 2.5002C4.97803 2.51438 4.9777 2.52952 4.97289 2.54351C4.96808 2.5575 4.95902 2.56964 4.94699 2.57824C4.93495 2.58684 4.92053 2.59147 4.90573 2.59148C4.89094 2.5915 4.87651 2.5869 4.86445 2.57832L4.50625 2.31855C4.49414 2.30982 4.47958 2.30511 4.46465 2.30511C4.44971 2.30511 4.43516 2.30982 4.42305 2.31855L4.06484 2.57832C4.05514 2.5855 4.04375 2.59007 4.03178 2.5916C4.0198 2.59313 4.00764 2.59157 3.99644 2.58706C3.98524 2.58256 3.97538 2.57526 3.96779 2.56587C3.96021 2.55648 3.95516 2.5453 3.95312 2.5334C4.18281 2.35918 4.42188 2.19395 4.66484 2.04004C4.85521 1.91973 5.04974 1.80579 5.24844 1.69824C5.24396 1.71407 5.23417 1.72786 5.2207 1.7373L4.8625 1.99746C4.84898 2.00835 4.83983 2.02374 4.83672 2.04082Z" fill="white"/>
<path d="M9.58543 4.41484L9.72215 4.83593C9.72678 4.85018 9.73583 4.86259 9.74797 4.87137C9.76012 4.88014 9.77474 4.88483 9.78972 4.88476H10.2339C10.2489 4.88479 10.2635 4.88955 10.2756 4.89837C10.2877 4.90719 10.2967 4.91961 10.3014 4.93387C10.306 4.94812 10.306 4.96348 10.3014 4.97774C10.2968 4.992 10.2878 5.00444 10.2757 5.01328L9.91746 5.27343C9.9055 5.2821 9.89658 5.29431 9.89195 5.30833C9.88732 5.32235 9.88723 5.33748 9.89168 5.35156L10.0268 5.77343C10.031 5.78762 10.0307 5.80276 10.0259 5.81675C10.0211 5.83074 10.012 5.84288 9.99999 5.85148C9.98795 5.86008 9.97353 5.8647 9.95874 5.86472C9.94394 5.86473 9.92951 5.86013 9.91746 5.85156L9.55965 5.5914C9.54747 5.58263 9.53285 5.57791 9.51785 5.57791C9.50285 5.57791 9.48822 5.58263 9.47605 5.5914L9.11785 5.85156C9.10579 5.86013 9.09136 5.86473 9.07657 5.86472C9.06178 5.8647 9.04735 5.86008 9.03532 5.85148C9.02328 5.84288 9.01422 5.83074 9.00941 5.81675C9.0046 5.80276 9.00427 5.78762 9.00847 5.77343L9.14558 5.35234C9.14986 5.33825 9.14967 5.32318 9.14506 5.3092C9.14044 5.29521 9.13162 5.28299 9.1198 5.27421L8.7616 5.01406C8.74949 5.00522 8.74049 4.99278 8.73587 4.97852C8.73126 4.96426 8.73127 4.9489 8.73591 4.93465C8.74054 4.92039 8.74957 4.90797 8.76169 4.89915C8.77381 4.89033 8.78841 4.88557 8.8034 4.88554H9.24597C9.26094 4.88555 9.27554 4.88084 9.28767 4.87207C9.29981 4.86331 9.30886 4.85093 9.31355 4.83671L9.45027 4.41562C9.45484 4.40134 9.46382 4.38887 9.4759 4.38C9.48799 4.37112 9.50257 4.3663 9.51757 4.36621C9.53256 4.36613 9.5472 4.37078 9.55939 4.37952C9.57157 4.38825 9.58069 4.40061 9.58543 4.41484Z" fill="white"/>
<path d="M7.05808 4.41544L7.1948 4.83653C7.19944 4.85078 7.20848 4.86319 7.22063 4.87197C7.23277 4.88074 7.2474 4.88543 7.26238 4.88536H7.70496C7.71995 4.88539 7.73455 4.89015 7.74667 4.89897C7.75879 4.90779 7.76781 4.92021 7.77245 4.93447C7.77708 4.94872 7.77709 4.96408 7.77248 4.97834C7.76787 4.9926 7.75886 5.00504 7.74675 5.01388L7.38855 5.27403C7.37664 5.28274 7.36775 5.29495 7.36313 5.30896C7.3585 5.32297 7.35838 5.33807 7.36277 5.35216L7.49832 5.77403C7.50268 5.7882 7.50249 5.80338 7.49775 5.81743C7.49302 5.83148 7.48399 5.84368 7.47194 5.85232C7.45989 5.86096 7.44544 5.86559 7.43061 5.86556C7.41579 5.86553 7.40135 5.86084 7.38933 5.85216L7.03113 5.592C7.01896 5.58323 7.00434 5.57851 6.98933 5.57851C6.97433 5.57851 6.95971 5.58323 6.94754 5.592L6.5905 5.85216C6.57849 5.86084 6.56405 5.86553 6.54923 5.86556C6.5344 5.86559 6.51994 5.86096 6.50789 5.85232C6.49585 5.84368 6.48682 5.83148 6.48208 5.81743C6.47735 5.80338 6.47715 5.7882 6.48152 5.77403L6.61824 5.35294C6.62263 5.33885 6.6225 5.32375 6.61788 5.30974C6.61326 5.29573 6.60437 5.28352 6.59246 5.27481L6.23425 5.01466C6.22215 5.00582 6.21314 4.99338 6.20853 4.97912C6.20392 4.96486 6.20393 4.9495 6.20856 4.93525C6.2132 4.92099 6.22222 4.90857 6.23434 4.89975C6.24646 4.89093 6.26106 4.88617 6.27605 4.88614H6.71707C6.73205 4.88621 6.74667 4.88152 6.75882 4.87275C6.77097 4.86397 6.78001 4.85156 6.78465 4.83731L6.92136 4.41622C6.92552 4.40134 6.93441 4.38822 6.9467 4.37884C6.95898 4.36947 6.97398 4.36435 6.98943 4.36426C7.00488 4.36417 7.01994 4.36912 7.03233 4.37835C7.04471 4.38759 7.05375 4.40061 7.05808 4.41544Z" fill="white"/>
<path d="M2.69483 5.01406L2.55303 5.1168L2.33662 5.27305C2.32476 5.28179 2.3159 5.29401 2.31128 5.308C2.30666 5.322 2.30651 5.33708 2.31084 5.35117L2.44873 5.77383C2.45268 5.78797 2.45218 5.80299 2.4473 5.81684C2.44242 5.83069 2.43339 5.8427 2.42143 5.85124C2.40948 5.85977 2.39519 5.86442 2.38051 5.86455C2.36582 5.86468 2.35145 5.86028 2.33936 5.85195L1.98154 5.59141C1.96937 5.58263 1.95475 5.57791 1.93975 5.57791C1.92474 5.57791 1.91012 5.58263 1.89795 5.59141L1.53975 5.85195C1.52765 5.86028 1.51328 5.86468 1.4986 5.86455C1.48391 5.86442 1.46962 5.85977 1.45767 5.85124C1.44572 5.8427 1.43669 5.83069 1.4318 5.81684C1.42692 5.80299 1.42642 5.78797 1.43037 5.77383L1.56748 5.35313C1.57164 5.33903 1.5714 5.32399 1.56679 5.31004C1.56219 5.29608 1.55343 5.28386 1.5417 5.275L1.49404 5.24023C1.51943 5.20117 1.54522 5.15898 1.57217 5.11797C1.71475 4.8957 1.86592 4.67852 2.02529 4.46875L2.14404 4.83633C2.14867 4.85062 2.15769 4.86308 2.16983 4.87192C2.18197 4.88076 2.1966 4.88553 2.21162 4.88555H2.65576C2.6704 4.88635 2.68445 4.89163 2.69598 4.90068C2.70752 4.90973 2.716 4.92211 2.72026 4.93614C2.72453 4.95017 2.72437 4.96517 2.71982 4.97911C2.71527 4.99305 2.70655 5.00525 2.69483 5.01406Z" fill="white"/>
<path d="M9.58582 7.75085L9.72254 8.17195C9.72722 8.18617 9.73628 8.19854 9.74842 8.20731C9.76055 8.21608 9.77514 8.22079 9.79011 8.22078H10.2343C10.2492 8.2208 10.2638 8.22556 10.276 8.23438C10.2881 8.2432 10.2971 8.25563 10.3017 8.26988C10.3064 8.28414 10.3064 8.29949 10.3018 8.31375C10.2972 8.32802 10.2882 8.34045 10.2761 8.34929L9.91785 8.60945C9.90589 8.61811 9.89697 8.63032 9.89234 8.64435C9.88771 8.65837 9.88762 8.67349 9.89207 8.68757L10.0288 9.10867C10.033 9.12285 10.0327 9.13799 10.0278 9.15198C10.023 9.16597 10.014 9.17811 10.0019 9.18671C9.98991 9.19531 9.97548 9.19994 9.96069 9.19995C9.9459 9.19997 9.93147 9.19537 9.91941 9.18679L9.5616 8.92664C9.54943 8.91786 9.53481 8.91314 9.5198 8.91314C9.5048 8.91314 9.49018 8.91786 9.478 8.92664L9.1198 9.18679C9.10775 9.19537 9.09332 9.19997 9.07852 9.19995C9.06373 9.19994 9.04931 9.19531 9.03727 9.18671C9.02523 9.17811 9.01618 9.16597 9.01136 9.15198C9.00655 9.13799 9.00622 9.12285 9.01043 9.10867L9.14754 8.68757C9.15181 8.67348 9.15163 8.65841 9.14701 8.64443C9.1424 8.63045 9.13358 8.61823 9.12176 8.60945L8.76355 8.34929C8.75145 8.34045 8.74244 8.32802 8.73783 8.31375C8.73321 8.29949 8.73322 8.28414 8.73786 8.26988C8.7425 8.25563 8.75152 8.2432 8.76364 8.23438C8.77576 8.22556 8.79036 8.2208 8.80535 8.22078H9.24793C9.26288 8.22073 9.27745 8.21599 9.28957 8.20723C9.30169 8.19847 9.31076 8.18613 9.3155 8.17195L9.45222 7.75085C9.45722 7.73715 9.46631 7.72531 9.47825 7.71695C9.4902 7.70859 9.50444 7.7041 9.51902 7.7041C9.53361 7.7041 9.54784 7.70859 9.55979 7.71695C9.57174 7.72531 9.58082 7.73715 9.58582 7.75085Z" fill="white"/>
<path d="M7.05925 7.75021L7.19597 8.1713C7.20066 8.18552 7.20972 8.19789 7.22185 8.20666C7.23399 8.21543 7.24858 8.22014 7.26355 8.22013H7.70613C7.72112 8.22016 7.73572 8.22492 7.74784 8.23374C7.75996 8.24256 7.76898 8.25498 7.77362 8.26924C7.77825 8.28349 7.77827 8.29885 7.77365 8.31311C7.76904 8.32737 7.76003 8.33981 7.74793 8.34865L7.38972 8.6088C7.37781 8.61751 7.36892 8.62972 7.3643 8.64373C7.35968 8.65774 7.35955 8.67284 7.36394 8.68693L7.49949 9.10919C7.50386 9.12336 7.50366 9.13854 7.49892 9.15259C7.49419 9.16664 7.48516 9.17884 7.47311 9.18748C7.46107 9.19612 7.44661 9.20075 7.43178 9.20072C7.41696 9.20069 7.40252 9.196 7.39051 9.18732L7.0323 8.92716C7.02013 8.91839 7.00551 8.91367 6.9905 8.91367C6.9755 8.91367 6.96088 8.91839 6.94871 8.92716L6.5905 9.18732C6.57849 9.196 6.56405 9.20069 6.54923 9.20072C6.5344 9.20075 6.51994 9.19612 6.50789 9.18748C6.49585 9.17884 6.48682 9.16664 6.48208 9.15259C6.47735 9.13854 6.47715 9.12336 6.48152 9.10919L6.61824 8.6881C6.62263 8.67402 6.6225 8.65891 6.61788 8.6449C6.61326 8.63089 6.60437 8.61868 6.59246 8.60997L6.23425 8.34982C6.22215 8.34098 6.21314 8.32854 6.20853 8.31428C6.20392 8.30002 6.20393 8.28466 6.20856 8.27041C6.2132 8.25615 6.22222 8.24373 6.23434 8.23491C6.24646 8.22609 6.26106 8.22133 6.27605 8.2213H6.71824C6.73321 8.22132 6.7478 8.2166 6.75994 8.20783C6.77207 8.19907 6.78113 8.18669 6.78582 8.17247L6.92254 7.75138C6.92665 7.73649 6.93551 7.72334 6.94776 7.71393C6.96002 7.70452 6.975 7.69935 6.99045 7.69922C7.0059 7.69909 7.02098 7.70399 7.03339 7.71319C7.04581 7.72239 7.05489 7.73539 7.05925 7.75021Z" fill="white"/>
<path d="M4.53355 7.75079L4.67027 8.17188C4.67501 8.18606 4.68408 8.19841 4.6962 8.20716C4.70832 8.21592 4.72289 8.22066 4.73784 8.22071H5.18042C5.19541 8.22073 5.21001 8.22549 5.22213 8.23431C5.23425 8.24313 5.24327 8.25556 5.24791 8.26981C5.25255 8.28407 5.25256 8.29942 5.24794 8.31368C5.24333 8.32795 5.23433 8.34038 5.22222 8.34922L4.86402 8.60938C4.8522 8.61816 4.84338 8.63038 4.83876 8.64436C4.83415 8.65834 4.83396 8.67341 4.83824 8.6875L4.97535 9.1086C4.97955 9.12278 4.97922 9.13792 4.97441 9.15191C4.9696 9.1659 4.96054 9.17804 4.9485 9.18664C4.93646 9.19524 4.92204 9.19987 4.90725 9.19988C4.89245 9.1999 4.87802 9.1953 4.86597 9.18672L4.50777 8.92657C4.49566 8.91783 4.4811 8.91312 4.46617 8.91312C4.45123 8.91312 4.43667 8.91783 4.42456 8.92657L4.06636 9.18672C4.05431 9.1953 4.03988 9.1999 4.02508 9.19988C4.01029 9.19987 3.99587 9.19524 3.98383 9.18664C3.97179 9.17804 3.96273 9.1659 3.95792 9.15191C3.95311 9.13792 3.95278 9.12278 3.95699 9.1086L4.0937 8.6875C4.09816 8.67342 4.09806 8.6583 4.09343 8.64428C4.0888 8.63025 4.07988 8.61804 4.06792 8.60938L3.71089 8.34922C3.69895 8.34053 3.69001 8.32833 3.68532 8.31433C3.68063 8.30032 3.68042 8.2852 3.68471 8.27107C3.68901 8.25694 3.6976 8.2445 3.70929 8.23547C3.72098 8.22644 3.7352 8.22128 3.74995 8.22071H4.19253C4.2075 8.22072 4.2221 8.21601 4.23423 8.20724C4.24636 8.19847 4.25542 8.1861 4.26011 8.17188L4.39683 7.75079C4.40107 7.73593 4.41004 7.72286 4.42237 7.71356C4.43471 7.70425 4.44974 7.69922 4.46519 7.69922C4.48064 7.69922 4.49567 7.70425 4.508 7.71356C4.52034 7.72286 4.5293 7.73593 4.53355 7.75079Z" fill="white"/>
<path d="M2.00652 7.75019L2.14324 8.17128C2.14793 8.1855 2.15698 8.19787 2.16912 8.20664C2.18125 8.21541 2.19585 8.22012 2.21082 8.22011H2.65496C2.66972 8.22069 2.68393 8.22585 2.69562 8.23487C2.70731 8.2439 2.7159 8.25634 2.7202 8.27047C2.72449 8.2846 2.72428 8.29972 2.71959 8.31373C2.7149 8.32773 2.70596 8.33993 2.69402 8.34862L2.33582 8.60878C2.32386 8.61745 2.31494 8.62966 2.31031 8.64368C2.30568 8.6577 2.30559 8.67282 2.31004 8.6869L2.44675 9.108C2.45096 9.12218 2.45063 9.13733 2.44582 9.15131C2.44101 9.1653 2.43195 9.17744 2.41991 9.18604C2.40787 9.19464 2.39345 9.19927 2.37866 9.19929C2.36386 9.1993 2.34943 9.1947 2.33738 9.18612L1.97957 8.92597C1.9674 8.9172 1.95277 8.91247 1.93777 8.91247C1.92277 8.91247 1.90814 8.9172 1.89597 8.92597L1.53777 9.18612C1.52572 9.1947 1.51129 9.1993 1.49649 9.19929C1.4817 9.19927 1.46728 9.19464 1.45524 9.18604C1.4432 9.17744 1.43414 9.1653 1.42933 9.15131C1.42452 9.13733 1.42419 9.12218 1.4284 9.108L1.5655 8.6869C1.56978 8.67281 1.56959 8.65775 1.56498 8.64376C1.56036 8.62978 1.55154 8.61756 1.53972 8.60878L1.18152 8.34862C1.16941 8.33979 1.16041 8.32735 1.1558 8.31309C1.15118 8.29882 1.15119 8.28347 1.15583 8.26921C1.16047 8.25496 1.16949 8.24253 1.18161 8.23371C1.19373 8.2249 1.20833 8.22013 1.22332 8.22011H1.66707C1.68202 8.22006 1.69659 8.21533 1.70871 8.20657C1.72084 8.19781 1.72991 8.18547 1.73465 8.17128L1.87136 7.75019C1.87602 7.73593 1.88506 7.72352 1.8972 7.71472C1.90934 7.70591 1.92395 7.70117 1.93894 7.70117C1.95394 7.70117 1.96855 7.70591 1.98068 7.71472C1.99282 7.72352 2.00186 7.73593 2.00652 7.75019Z" fill="white"/>
<path d="M8.32261 2.68438L8.45933 3.10547C8.46402 3.11969 8.47308 3.13206 8.48521 3.14083C8.49734 3.1496 8.51194 3.15431 8.52691 3.1543H8.96949C8.98447 3.15433 8.99907 3.15909 9.01119 3.16791C9.02331 3.17673 9.03234 3.18915 9.03697 3.20341C9.04161 3.21766 9.04162 3.23302 9.03701 3.24728C9.03239 3.26154 9.02339 3.27398 9.01128 3.28282L8.65308 3.54297C8.64126 3.55175 8.63244 3.56397 8.62782 3.57795C8.62321 3.59194 8.62303 3.60701 8.6273 3.6211L8.76441 4.04219C8.76861 4.05638 8.76828 4.07152 8.76347 4.08551C8.75866 4.0995 8.7496 4.11164 8.73756 4.12024C8.72553 4.12883 8.71111 4.13346 8.69631 4.13348C8.68152 4.13349 8.66709 4.12889 8.65503 4.12032L8.29683 3.86016C8.28472 3.85142 8.27016 3.84672 8.25523 3.84672C8.24029 3.84672 8.22574 3.85142 8.21363 3.86016L7.85542 4.12032C7.84337 4.12889 7.82894 4.13349 7.81414 4.13348C7.79935 4.13346 7.78493 4.12883 7.77289 4.12024C7.76085 4.11164 7.7518 4.0995 7.74699 4.08551C7.74217 4.07152 7.74185 4.05638 7.74605 4.04219L7.88277 3.6211C7.88722 3.60702 7.88712 3.59189 7.88249 3.57787C7.87787 3.56385 7.86894 3.55164 7.85699 3.54297L7.49995 3.28282C7.48801 3.27412 7.47908 3.26193 7.47438 3.24792C7.46969 3.23392 7.46948 3.2188 7.47378 3.20467C7.47807 3.19053 7.48666 3.17809 7.49835 3.16906C7.51005 3.16004 7.52426 3.15488 7.53902 3.1543H7.98159C7.99658 3.15437 8.0112 3.14968 8.02335 3.14091C8.03549 3.13213 8.04454 3.11972 8.04917 3.10547L8.18589 2.68438C8.19014 2.66952 8.1991 2.65645 8.21144 2.64715C8.22377 2.63785 8.2388 2.63281 8.25425 2.63281C8.2697 2.63281 8.28473 2.63785 8.29707 2.64715C8.3094 2.65645 8.31837 2.66952 8.32261 2.68438Z" fill="white"/>
<path d="M3.5747 3.57871C3.57021 3.59295 3.57021 3.60822 3.5747 3.62246L3.71025 4.04316C3.71435 4.05729 3.71398 4.07234 3.70917 4.08625C3.70436 4.10015 3.69536 4.11222 3.6834 4.12079C3.67144 4.12936 3.65712 4.13401 3.64241 4.1341C3.6277 4.13419 3.61332 4.12971 3.60126 4.12129L3.24306 3.86074C3.23089 3.85197 3.21627 3.84725 3.20126 3.84725C3.18626 3.84725 3.17164 3.85197 3.15947 3.86074L2.80126 4.12129C2.7892 4.12971 2.77483 4.13419 2.76012 4.1341C2.7454 4.13401 2.73108 4.12936 2.71913 4.12079C2.70717 4.11222 2.69817 4.10015 2.69336 4.08625C2.68855 4.07234 2.68817 4.05729 2.69228 4.04316L2.829 3.62246C2.83349 3.60822 2.83349 3.59295 2.829 3.57871C2.82639 3.56675 2.82043 3.55577 2.81181 3.54707C2.9941 3.35957 3.18225 3.17949 3.37626 3.00684L3.40751 3.10332C3.4119 3.11803 3.42093 3.13093 3.43325 3.14008C3.44557 3.14923 3.46052 3.15415 3.47587 3.1541H3.91845C3.93342 3.15426 3.94796 3.15912 3.96002 3.16799C3.97209 3.17686 3.98106 3.18929 3.98568 3.20353C3.99029 3.21778 3.99032 3.23311 3.98576 3.24737C3.9812 3.26163 3.97228 3.27409 3.96025 3.28301L3.60205 3.54277C3.58923 3.55142 3.57962 3.56405 3.5747 3.57871Z" fill="white"/>
<path d="M1.56992 6.65488C1.56893 6.66463 1.56583 6.67405 1.56084 6.68248C1.55585 6.69091 1.54909 6.69815 1.54102 6.70371L1.18281 6.96426C1.17099 6.97304 1.16217 6.98526 1.15756 6.99924C1.15294 7.01322 1.15276 7.02829 1.15703 7.04238L1.29375 7.46348C1.29812 7.47764 1.29792 7.49282 1.29319 7.50687C1.28845 7.52092 1.27942 7.53313 1.26738 7.54176C1.25533 7.5504 1.24087 7.55503 1.22604 7.555C1.21122 7.55497 1.19678 7.55029 1.18477 7.5416L0.826563 7.28184C0.814539 7.27271 0.79986 7.26777 0.784766 7.26777C0.769672 7.26777 0.754992 7.27271 0.742969 7.28184L0.460938 7.48691C0.55026 7.20254 0.651823 6.92441 0.765625 6.65254C0.814063 6.53535 0.864844 6.42051 0.918359 6.30566L0.989063 6.52402C0.993669 6.53836 1.00268 6.55087 1.01482 6.55977C1.02695 6.56868 1.04159 6.57353 1.05664 6.57363H1.49922C1.50944 6.57358 1.51955 6.57574 1.52887 6.57996C1.53818 6.58417 1.54648 6.59034 1.55319 6.59806C1.5599 6.60577 1.56487 6.61484 1.56776 6.62464C1.57064 6.63445 1.57138 6.64476 1.56992 6.65488Z" fill="white"/>
<path d="M8.32254 6.10589L8.45925 6.52698C8.46399 6.54117 8.47307 6.55351 8.48519 6.56227C8.49731 6.57103 8.51188 6.57576 8.52683 6.57581H8.96941C8.9844 6.57584 8.999 6.5806 9.01112 6.58942C9.02324 6.59824 9.03226 6.61066 9.0369 6.62492C9.04153 6.63917 9.04155 6.65453 9.03693 6.66879C9.03232 6.68305 9.02332 6.69549 9.01121 6.70433L8.65301 6.96448C8.64118 6.97326 8.63236 6.98548 8.62775 6.99946C8.62313 7.01345 8.62295 7.02852 8.62722 7.04261L8.76433 7.4637C8.76853 7.47789 8.76821 7.49303 8.7634 7.50702C8.75858 7.52101 8.74953 7.53315 8.73749 7.54175C8.72545 7.55034 8.71103 7.55497 8.69624 7.55499C8.68144 7.555 8.66701 7.5504 8.65496 7.54183L8.29675 7.28167C8.28464 7.27293 8.27009 7.26823 8.25515 7.26823C8.24022 7.26823 8.22566 7.27293 8.21355 7.28167L7.85535 7.54183C7.84329 7.5504 7.82886 7.555 7.81407 7.55499C7.79928 7.55497 7.78485 7.55034 7.77282 7.54175C7.76078 7.53315 7.75172 7.52101 7.74691 7.50702C7.7421 7.49303 7.74177 7.47789 7.74597 7.4637L7.88269 7.04261C7.88714 7.02853 7.88705 7.0134 7.88242 6.99938C7.87779 6.98536 7.86887 6.97315 7.85691 6.96448L7.49988 6.70433C7.48777 6.69549 7.47877 6.68305 7.47415 6.66879C7.46954 6.65453 7.46955 6.63917 7.47419 6.62492C7.47882 6.61066 7.48785 6.59824 7.49997 6.58942C7.51209 6.5806 7.52669 6.57584 7.54168 6.57581H7.98425C7.99923 6.57582 8.01382 6.57111 8.02595 6.56234C8.03809 6.55357 8.04714 6.5412 8.05183 6.52698L8.18855 6.10589C8.19347 6.09205 8.20255 6.08008 8.21454 6.07161C8.22654 6.06314 8.24086 6.05859 8.25554 6.05859C8.27023 6.05859 8.28455 6.06314 8.29655 6.07161C8.30854 6.08008 8.31762 6.09205 8.32254 6.10589Z" fill="white"/>
<path d="M5.79675 6.10535L5.93347 6.52644C5.93816 6.54066 5.94722 6.55303 5.95935 6.5618C5.97149 6.57057 5.98608 6.57528 6.00105 6.57527H6.44519C6.46018 6.57529 6.47478 6.58006 6.4869 6.58888C6.49902 6.59769 6.50804 6.61012 6.51268 6.62437C6.51732 6.63863 6.51733 6.65398 6.51271 6.66825C6.5081 6.68251 6.4991 6.69495 6.48699 6.70378L6.12879 6.96394C6.11683 6.97261 6.1079 6.98482 6.10328 6.99884C6.09865 7.01286 6.09855 7.02799 6.10301 7.04207L6.23972 7.46316C6.24393 7.47734 6.2436 7.49249 6.23879 7.50648C6.23397 7.52046 6.22492 7.5326 6.21288 7.5412C6.20084 7.5498 6.18642 7.55443 6.17163 7.55445C6.15683 7.55446 6.1424 7.54986 6.13035 7.54128L5.77254 7.28113C5.76036 7.27236 5.74574 7.26764 5.73074 7.26764C5.71574 7.26764 5.70111 7.27236 5.68894 7.28113L5.33074 7.54128C5.31868 7.54986 5.30425 7.55446 5.28946 7.55445C5.27467 7.55443 5.26025 7.5498 5.24821 7.5412C5.23617 7.5326 5.22711 7.52046 5.2223 7.50648C5.21749 7.49249 5.21716 7.47734 5.22136 7.46316L5.35847 7.04207C5.36275 7.02797 5.36256 7.01291 5.35795 6.99892C5.35333 6.98494 5.34451 6.97272 5.33269 6.96394L4.97449 6.70378C4.96238 6.69495 4.95338 6.68251 4.94876 6.66825C4.94415 6.65398 4.94416 6.63863 4.9488 6.62437C4.95343 6.61012 4.96246 6.59769 4.97458 6.58888C4.9867 6.58006 5.0013 6.57529 5.01629 6.57527H5.45886C5.47382 6.57522 5.48839 6.57049 5.50051 6.56173C5.51263 6.55297 5.5217 6.54063 5.52644 6.52644L5.66316 6.10535C5.66815 6.09164 5.67724 6.07981 5.68919 6.07144C5.70114 6.06308 5.71537 6.05859 5.72996 6.05859C5.74454 6.05859 5.75878 6.06308 5.77072 6.07144C5.78267 6.07981 5.79176 6.09164 5.79675 6.10535Z" fill="white"/>
<path d="M1.18281 10.3191C1.1709 10.3278 1.16201 10.34 1.15739 10.3541C1.15277 10.3681 1.15264 10.3832 1.15703 10.3973L1.29375 10.8187C1.29812 10.8329 1.29792 10.8481 1.29319 10.8621C1.28845 10.8762 1.27942 10.8884 1.26738 10.897C1.25533 10.9057 1.24087 10.9103 1.22604 10.9103C1.21122 10.9102 1.19678 10.9055 1.18477 10.8969L0.826563 10.6371C0.814463 10.6282 0.799813 10.6233 0.784766 10.6233C0.769719 10.6233 0.755069 10.6282 0.742969 10.6371L0.385156 10.8984C0.373149 10.9073 0.358655 10.9121 0.343745 10.9122C0.328834 10.9123 0.314272 10.9077 0.302139 10.899C0.290005 10.8904 0.280923 10.8781 0.276189 10.8639C0.271455 10.8498 0.271312 10.8345 0.275781 10.8203L0.4125 10.3988C0.417012 10.3847 0.416947 10.3696 0.412315 10.3556C0.407683 10.3415 0.398722 10.3293 0.386719 10.3207L0.0285156 10.0586C0.021008 10.0533 0.0146347 10.0465 0.00976562 10.0387C0.00976563 10.0117 0.0121094 9.98476 0.0136719 9.95819C0.0201695 9.94934 0.0287164 9.94219 0.0385808 9.93736C0.0484451 9.93253 0.0593331 9.93016 0.0703125 9.93046H0.512891C0.527944 9.93036 0.542581 9.92551 0.554715 9.9166C0.56685 9.90769 0.575863 9.89518 0.580469 9.88085L0.629297 9.73085L0.717188 9.46015C0.721844 9.44589 0.730888 9.43348 0.743025 9.42468C0.755162 9.41587 0.769772 9.41113 0.784766 9.41113C0.799759 9.41113 0.814369 9.41587 0.826506 9.42468C0.838644 9.43348 0.847687 9.44589 0.852344 9.46015L0.940234 9.73085L0.989063 9.88085C0.993669 9.89518 1.00268 9.90769 1.01482 9.9166C1.02695 9.92551 1.04159 9.93036 1.05664 9.93046H1.49922C1.51423 9.93034 1.52889 9.93501 1.54107 9.94377C1.55325 9.95254 1.56233 9.96496 1.56698 9.97923C1.57164 9.9935 1.57163 10.0089 1.56696 10.0232C1.5623 10.0374 1.55321 10.0498 1.54102 10.0586L1.18281 10.3191Z" fill="white"/>
<path d="M8.32254 9.46038L8.45925 9.88148C8.46394 9.89569 8.473 9.90807 8.48513 9.91684C8.49727 9.9256 8.51186 9.93032 8.52683 9.9303H8.96941C8.9844 9.93033 8.999 9.93509 9.01112 9.94391C9.02324 9.95273 9.03226 9.96515 9.0369 9.97941C9.04153 9.99366 9.04155 10.009 9.03693 10.0233C9.03232 10.0375 9.02332 10.05 9.01121 10.0588L8.65301 10.319C8.64127 10.3278 8.63252 10.3401 8.62791 10.354C8.62331 10.368 8.62307 10.383 8.62722 10.3971L8.76433 10.8178C8.76853 10.832 8.76821 10.8471 8.7634 10.8611C8.75858 10.8751 8.74953 10.8872 8.73749 10.8958C8.72545 10.9044 8.71103 10.9091 8.69624 10.9091C8.68144 10.9091 8.66701 10.9045 8.65496 10.8959L8.29675 10.6358C8.28464 10.627 8.27009 10.6223 8.25515 10.6223C8.24022 10.6223 8.22566 10.627 8.21355 10.6358L7.85535 10.8959C7.84329 10.9045 7.82886 10.9091 7.81407 10.9091C7.79928 10.9091 7.78485 10.9044 7.77282 10.8958C7.76078 10.8872 7.75172 10.8751 7.74691 10.8611C7.7421 10.8471 7.74177 10.832 7.74597 10.8178L7.88269 10.3971C7.88702 10.383 7.88687 10.3679 7.88225 10.3539C7.87763 10.3399 7.86878 10.3277 7.85691 10.319L7.49988 10.0588C7.48777 10.05 7.47877 10.0375 7.47415 10.0233C7.46954 10.009 7.46955 9.99366 7.47419 9.97941C7.47882 9.96515 7.48785 9.95273 7.49997 9.94391C7.51209 9.93509 7.52669 9.93033 7.54168 9.9303H7.98425C7.99924 9.93038 8.01386 9.92569 8.02601 9.91691C8.03815 9.90813 8.0472 9.89573 8.05183 9.88148L8.18855 9.46038C8.19347 9.44655 8.20255 9.43457 8.21454 9.4261C8.22654 9.41763 8.24086 9.41309 8.25554 9.41309C8.27023 9.41309 8.28455 9.41763 8.29655 9.4261C8.30854 9.43457 8.31762 9.44655 8.32254 9.46038Z" fill="white"/>
<path d="M5.79558 9.46007L5.9323 9.88117C5.93694 9.89542 5.94598 9.90783 5.95813 9.9166C5.97027 9.92538 5.98489 9.93007 5.99988 9.93H6.44402C6.45878 9.93057 6.47299 9.93573 6.48468 9.94476C6.49638 9.95379 6.50497 9.96623 6.50926 9.98036C6.51356 9.99449 6.51334 10.0096 6.50865 10.0236C6.50396 10.0376 6.49502 10.0498 6.48308 10.0585L6.12488 10.3187C6.11301 10.3274 6.10416 10.3396 6.09954 10.3536C6.09492 10.3676 6.09477 10.3827 6.0991 10.3968L6.23582 10.8175C6.24002 10.8317 6.23969 10.8468 6.23488 10.8608C6.23007 10.8748 6.22101 10.8869 6.20897 10.8955C6.19694 10.9041 6.18252 10.9088 6.16772 10.9088C6.15293 10.9088 6.1385 10.9042 6.12644 10.8956L5.76863 10.6355C5.75646 10.6267 5.74184 10.622 5.72683 10.622C5.71183 10.622 5.69721 10.6267 5.68504 10.6355L5.32683 10.8956C5.31478 10.9042 5.30035 10.9088 5.28555 10.9088C5.27076 10.9088 5.25634 10.9041 5.2443 10.8955C5.23226 10.8869 5.22321 10.8748 5.2184 10.8608C5.21358 10.8468 5.21326 10.8317 5.21746 10.8175L5.35457 10.3968C5.35873 10.3827 5.35849 10.3677 5.35388 10.3537C5.34927 10.3397 5.34052 10.3275 5.32879 10.3187L4.97058 10.0585C4.95848 10.0497 4.94947 10.0372 4.94486 10.023C4.94024 10.0087 4.94026 9.99336 4.94489 9.9791C4.94953 9.96485 4.95855 9.95242 4.97067 9.9436C4.98279 9.93478 4.99739 9.93002 5.01238 9.93H5.45496C5.46993 9.93001 5.48452 9.9253 5.49666 9.91653C5.50879 9.90776 5.51785 9.89539 5.52254 9.88117L5.65925 9.46007C5.66361 9.44538 5.6726 9.43248 5.68488 9.42331C5.69717 9.41414 5.71209 9.40918 5.72742 9.40918C5.74275 9.40918 5.75767 9.41414 5.76995 9.42331C5.78224 9.43248 5.79123 9.44538 5.79558 9.46007Z" fill="white"/>
<path d="M3.27019 9.45998L3.40691 9.88108C3.41163 9.89558 3.42091 9.90818 3.43337 9.91698C3.44583 9.92578 3.4608 9.93031 3.47605 9.9299H3.91863C3.93362 9.92993 3.94822 9.93469 3.96034 9.94351C3.97246 9.95233 3.98148 9.96475 3.98612 9.97901C3.99075 9.99326 3.99077 10.0086 3.98615 10.0229C3.98154 10.0371 3.97253 10.0496 3.96043 10.0584L3.60222 10.3186C3.5904 10.3274 3.58158 10.3396 3.57697 10.3536C3.57235 10.3675 3.57217 10.3826 3.57644 10.3967L3.71043 10.819C3.71479 10.8331 3.7146 10.8483 3.70986 10.8624C3.70513 10.8764 3.6961 10.8886 3.68405 10.8973C3.672 10.9059 3.65755 10.9105 3.64272 10.9105C3.6279 10.9105 3.61346 10.9058 3.60144 10.8971L3.24324 10.6369C3.23107 10.6282 3.21645 10.6234 3.20144 10.6234C3.18644 10.6234 3.17182 10.6282 3.15965 10.6369L2.80144 10.8971C2.78943 10.9058 2.77499 10.9105 2.76016 10.9105C2.74534 10.9105 2.73088 10.9059 2.71883 10.8973C2.70678 10.8886 2.69776 10.8764 2.69302 10.8624C2.68829 10.8483 2.68809 10.8331 2.69246 10.819L2.82918 10.3983C2.83345 10.3842 2.83327 10.3691 2.82865 10.3551C2.82404 10.3411 2.81522 10.3289 2.8034 10.3201L2.44519 10.06C2.43309 10.0511 2.42408 10.0387 2.41947 10.0244C2.41485 10.0102 2.41487 9.99483 2.4195 9.98057C2.42414 9.96632 2.43316 9.95389 2.44528 9.94507C2.4574 9.93625 2.472 9.93149 2.48699 9.93147H2.92918C2.94416 9.93154 2.95878 9.92685 2.97093 9.91807C2.98307 9.9093 2.99212 9.89689 2.99676 9.88264L3.13347 9.46154C3.13754 9.44664 3.14636 9.43346 3.15859 9.42401C3.17082 9.41457 3.18579 9.40936 3.20124 9.40918C3.2167 9.40901 3.23178 9.41387 3.24422 9.42304C3.25667 9.4322 3.26578 9.44517 3.27019 9.45998Z" fill="white"/>
<path d="M11.2105 0.572656C11.0543 0.591016 10.898 0.614062 10.7418 0.639844C9.70313 0.814805 8.699 1.15422 7.76719 1.64531C7.73359 1.6625 7.70039 1.68086 7.66719 1.69844C7.46823 1.80599 7.2737 1.91992 7.08359 2.04023H4.66602C4.85638 1.91992 5.05091 1.80599 5.24961 1.69844C6.65692 0.936821 8.22735 0.526356 9.82734 0.501953H10.1719C10.3633 0.504687 10.5531 0.513672 10.7418 0.527344C10.898 0.538802 11.0543 0.553906 11.2105 0.572656Z" fill="#DB1B1B"/>
<path d="M7.08438 2.04063C6.88594 2.1651 6.69258 2.29688 6.5043 2.43594C6.46016 2.46797 6.41641 2.50078 6.37266 2.53398C6.20352 2.66289 6.03906 2.79609 5.87891 2.93516C5.85039 2.95898 5.82227 2.98359 5.79414 3.00859C5.61523 3.1668 5.44258 3.33203 5.27539 3.50234L5.33164 3.54141C5.34388 3.5503 5.35292 3.5629 5.35742 3.57734H2.7832C2.79258 3.56719 2.80234 3.55742 2.81211 3.54727C2.9944 3.35977 3.18255 3.17969 3.37656 3.00703C3.56328 2.84219 3.75612 2.68398 3.95508 2.53242C4.18477 2.3582 4.42383 2.19297 4.6668 2.03906L7.08438 2.04063Z" fill="white"/>
<path d="M5.20117 3.57812C4.95683 3.83289 4.72604 4.10031 4.50977 4.3793L4.44297 4.4668C4.40664 4.51484 4.3707 4.56289 4.33516 4.61172L4.2625 4.83555C4.25788 4.84984 4.24885 4.8623 4.23671 4.87114C4.22457 4.87998 4.20994 4.88475 4.19492 4.88477H4.14141C4.08906 4.96289 4.03828 5.03867 3.98828 5.11641H1.57227C1.71484 4.89414 1.86602 4.67695 2.02539 4.46719C2.26064 4.15636 2.5138 3.8595 2.78359 3.57812H5.20117Z" fill="#DB1B1B"/>
<path d="M3.98828 5.1166L3.94531 5.18496L3.91133 5.23887C3.69805 5.58326 3.5059 5.9403 3.33594 6.30801C3.28242 6.42246 3.23164 6.5373 3.1832 6.65449H0.765625C0.814062 6.5373 0.864844 6.42246 0.918359 6.30762C1.08832 5.93991 1.28048 5.58287 1.49375 5.23848C1.51914 5.19941 1.54492 5.15723 1.57187 5.11621L3.98828 5.1166Z" fill="white"/>
<path d="M3.18359 6.65508C3.06979 6.92695 2.96823 7.20482 2.87891 7.48867C2.80599 7.71966 2.74089 7.95404 2.68359 8.1918H0.267578C0.323307 7.95352 0.388411 7.71914 0.462891 7.48867C0.552214 7.2043 0.653776 6.92617 0.767578 6.6543L3.18359 6.65508Z" fill="#DB1B1B"/>
<path d="M2.69531 8.34844L2.64023 8.3875C2.54458 8.82991 2.47932 9.27836 2.44492 9.72969H0.0292969C0.0684447 9.21147 0.148248 8.69712 0.267969 8.19141H2.68555C2.6832 8.20195 2.68047 8.21289 2.67812 8.22305C2.69048 8.22737 2.70139 8.23503 2.70967 8.24516C2.71795 8.2553 2.72328 8.26752 2.72505 8.28049C2.72683 8.29345 2.72499 8.30666 2.71975 8.31865C2.7145 8.33064 2.70604 8.34095 2.69531 8.34844Z" fill="white"/>
<path d="M2.41758 10.4996C2.41758 10.7582 2.42734 11.0146 2.44688 11.2688H0.0292969C0.00976563 11.0148 0 10.7585 0 10.4996V10.0016C3.89443e-05 10.0145 0.00369089 10.0273 0.0105469 10.0383C0.0105469 10.0113 0.0128906 9.98438 0.0144531 9.95781C0.0183594 9.88164 0.0234375 9.80625 0.0292969 9.73047H2.44688C2.44102 9.80625 2.43594 9.88164 2.43203 9.95781C2.43203 9.98438 2.4293 10.0113 2.42813 10.0383C2.42458 10.0329 2.42194 10.027 2.42031 10.0207C2.42031 10.0172 2.42031 10.0141 2.41836 10.0109C2.41815 10.0078 2.41815 10.0047 2.41836 10.0016L2.41758 10.4996Z" fill="#DB1B1B"/>
<path d="M2.68555 12.8078H0.267969C0.148214 12.3021 0.068411 11.7878 0.0292969 11.2695H2.44688C2.48599 11.7878 2.56579 12.3021 2.68555 12.8078Z" fill="#DBDBDB"/>
<path d="M3.18359 14.3455H0.766016C0.557945 13.8474 0.391236 13.3331 0.267578 12.8076H2.68516C2.80881 13.3331 2.97552 13.8474 3.18359 14.3455Z" fill="#C11A1A"/>
<path d="M3.98828 15.884H1.5707C1.25791 15.3957 0.988519 14.881 0.765625 14.3457H3.1832C3.4061 14.881 3.67549 15.3957 3.98828 15.884Z" fill="#DBDBDB"/>
<path d="M5.20078 17.4221H2.7832C2.33049 16.9499 1.92492 16.4347 1.57227 15.8838H3.98984C4.3425 16.4347 4.74807 16.9499 5.20078 17.4221Z" fill="#C11A1A"/>
<path d="M7.08438 18.9602H4.6668C3.97895 18.5256 3.34645 18.009 2.7832 17.4219H5.20078C5.76403 18.009 6.39653 18.5256 7.08438 18.9602Z" fill="#DBDBDB"/>
<path d="M11.2102 20.4271C10.8731 20.4688 10.5341 20.493 10.1945 20.4998H9.80391C7.98204 20.468 6.20398 19.936 4.66406 18.9619H7.08164C8.33153 19.7517 9.74204 20.2523 11.2102 20.4271Z" fill="#C11A1A"/>
<path d="M10.7422 0.527344V0.639844C9.70352 0.814805 8.69939 1.15422 7.76758 1.64531C7.73398 1.6625 7.70078 1.68086 7.66758 1.69844C7.46862 1.80599 7.27409 1.91992 7.08398 2.04023C6.88555 2.16471 6.69219 2.29648 6.50391 2.43555C6.45977 2.46758 6.41602 2.50039 6.37227 2.53359C6.20312 2.6625 6.03867 2.7957 5.87852 2.93477C5.85 2.95859 5.82188 2.9832 5.79375 3.0082C5.61484 3.16641 5.44219 3.33164 5.275 3.50195L5.33125 3.54102C5.34349 3.54991 5.35253 3.56251 5.35703 3.57695H5.20078C4.95644 3.83171 4.72565 4.09914 4.50938 4.37812L4.44258 4.46562C4.40625 4.51367 4.37031 4.56172 4.33477 4.61055L4.26172 4.83594C4.2571 4.85023 4.24807 4.86269 4.23593 4.87153C4.22379 4.88037 4.20916 4.88514 4.19414 4.88516H4.14062C4.08828 4.96328 4.0375 5.03906 3.9875 5.1168L3.94453 5.18516L3.91055 5.23906C3.69727 5.58346 3.50512 5.9405 3.33516 6.3082C3.28164 6.42266 3.23086 6.5375 3.18242 6.65469C3.06966 6.92656 2.96862 7.20443 2.8793 7.48828C2.80638 7.71927 2.74128 7.95365 2.68398 8.19141C2.68164 8.20195 2.67891 8.21289 2.67656 8.22305C2.68881 8.22733 2.69965 8.23488 2.70792 8.24488C2.71618 8.25489 2.72155 8.26696 2.72344 8.2798C2.72533 8.29263 2.72368 8.30574 2.71865 8.31771C2.71362 8.32967 2.70542 8.34002 2.69492 8.34766L2.63984 8.38672C2.54419 8.82913 2.47893 9.27758 2.44453 9.72891C2.43867 9.80469 2.43359 9.88008 2.42969 9.95625C2.42969 9.98281 2.42695 10.0098 2.42578 10.0367C2.42223 10.0313 2.41959 10.0254 2.41797 10.0191C2.41797 10.0156 2.41797 10.0125 2.41602 10.0094C2.41581 10.0063 2.41581 10.0031 2.41602 10V10.5C2.41602 10.7586 2.42578 11.015 2.44531 11.2691H0.0292969C0.00976562 11.0152 0 10.7589 0 10.5V10.002C3.89443e-05 10.0149 0.00369089 10.0276 0.0105469 10.0387C0.0105469 10.0117 0.0128906 9.98477 0.0144531 9.9582C0.0183594 9.88203 0.0234375 9.80664 0.0292969 9.73086C0.0684447 9.21264 0.148248 8.6983 0.267969 8.19258C0.323698 7.9543 0.388802 7.71992 0.463281 7.48945C0.552604 7.20508 0.654167 6.92695 0.767969 6.65508C0.816406 6.53789 0.867188 6.42305 0.920703 6.3082C1.09067 5.9405 1.28282 5.58346 1.49609 5.23906C1.52148 5.2 1.54727 5.15781 1.57422 5.1168C1.7168 4.89453 1.86797 4.67734 2.02734 4.46758C2.26171 4.15682 2.51396 3.85996 2.78281 3.57852C2.79219 3.56836 2.80195 3.55859 2.81172 3.54844C2.99401 3.36094 3.18216 3.18086 3.37617 3.0082C3.56289 2.84336 3.75573 2.68516 3.95469 2.53359C4.18437 2.35938 4.42344 2.19414 4.66641 2.04023C4.85677 1.91992 5.0513 1.80599 5.25 1.69844C6.65731 0.936821 8.22774 0.526356 9.82773 0.501953H10.1723C10.3637 0.504687 10.5535 0.513672 10.7422 0.527344Z" fill="#32314B"/>
<path d="M4.83672 2.03984C4.83315 2.05262 4.83315 2.06613 4.83672 2.07891L4.97383 2.49922C4.97803 2.5134 4.9777 2.52855 4.97289 2.54253C4.96808 2.55652 4.95902 2.56866 4.94699 2.57726C4.93495 2.58586 4.92053 2.59049 4.90573 2.59051C4.89094 2.59052 4.87651 2.58592 4.86445 2.57734L4.50625 2.31758C4.49414 2.30884 4.47958 2.30414 4.46465 2.30414C4.44971 2.30414 4.43516 2.30884 4.42305 2.31758L4.06484 2.57734C4.05514 2.58452 4.04375 2.58909 4.03178 2.59062C4.0198 2.59215 4.00764 2.59059 3.99644 2.58609C3.98524 2.58158 3.97538 2.57429 3.96779 2.56489C3.96021 2.5555 3.95516 2.54432 3.95312 2.53242C4.18281 2.3582 4.42188 2.19297 4.66484 2.03906C4.85521 1.91875 5.04974 1.80482 5.24844 1.69727C5.24396 1.71309 5.23417 1.72688 5.2207 1.73633L4.8625 1.99648C4.84898 2.00737 4.83983 2.02276 4.83672 2.03984Z" fill="#DBDBDB"/>
<path d="M4.50859 4.37921L4.4418 4.46671C4.40547 4.51475 4.36953 4.5628 4.33398 4.61163L4.39805 4.41632C4.40127 4.40533 4.4071 4.39529 4.41504 4.38704C4.42297 4.37878 4.43279 4.37257 4.44364 4.36893C4.4545 4.36529 4.46607 4.36432 4.47738 4.36611C4.48869 4.3679 4.49939 4.37239 4.50859 4.37921Z" fill="#DBDBDB"/>
<path d="M2.69483 5.01406L2.55303 5.1168L2.33662 5.27305C2.32476 5.28179 2.3159 5.29401 2.31128 5.308C2.30666 5.322 2.30651 5.33708 2.31084 5.35117L2.44873 5.77383C2.45268 5.78797 2.45218 5.80299 2.4473 5.81684C2.44242 5.83069 2.43339 5.8427 2.42143 5.85124C2.40948 5.85977 2.39519 5.86442 2.38051 5.86455C2.36582 5.86468 2.35145 5.86028 2.33936 5.85195L1.98154 5.59141C1.96937 5.58263 1.95475 5.57791 1.93975 5.57791C1.92474 5.57791 1.91012 5.58263 1.89795 5.59141L1.53975 5.85195C1.52765 5.86028 1.51328 5.86468 1.4986 5.86455C1.48391 5.86442 1.46962 5.85977 1.45767 5.85124C1.44572 5.8427 1.43669 5.83069 1.4318 5.81684C1.42692 5.80299 1.42642 5.78797 1.43037 5.77383L1.56748 5.35313C1.57164 5.33903 1.5714 5.32399 1.56679 5.31004C1.56219 5.29608 1.55343 5.28386 1.5417 5.275L1.49404 5.24023C1.51943 5.20117 1.54522 5.15898 1.57217 5.11797C1.71475 4.8957 1.86592 4.67852 2.02529 4.46875L2.14404 4.83633C2.14867 4.85062 2.15769 4.86308 2.16983 4.87192C2.18197 4.88076 2.1966 4.88553 2.21162 4.88555H2.65576C2.6704 4.88635 2.68445 4.89163 2.69598 4.90068C2.70752 4.90973 2.716 4.92211 2.72026 4.93614C2.72453 4.95017 2.72437 4.96517 2.71982 4.97911C2.71527 4.99305 2.70655 5.00525 2.69483 5.01406Z" fill="#DBDBDB"/>
<path d="M2.69597 8.34843L2.6409 8.38749L2.33777 8.60819C2.32572 8.61678 2.31672 8.62898 2.31209 8.64303C2.30745 8.65708 2.30742 8.67225 2.31199 8.68632L2.44871 9.10702C2.45291 9.12121 2.45258 9.13635 2.44777 9.15034C2.44296 9.16433 2.4339 9.17647 2.42186 9.18507C2.40983 9.19366 2.39541 9.19829 2.38061 9.19831C2.36582 9.19832 2.35139 9.19372 2.33933 9.18515L1.98152 8.92499C1.96935 8.91622 1.95473 8.9115 1.93972 8.9115C1.92472 8.9115 1.9101 8.91622 1.89793 8.92499L1.53972 9.18515C1.52767 9.19372 1.51324 9.19832 1.49844 9.19831C1.48365 9.19829 1.46923 9.19366 1.45719 9.18507C1.44515 9.17647 1.4361 9.16433 1.43129 9.15034C1.42647 9.13635 1.42615 9.12121 1.43035 9.10702L1.56746 8.68632C1.57185 8.67223 1.57172 8.65713 1.5671 8.64312C1.56248 8.62911 1.55359 8.6169 1.54168 8.60819L1.18347 8.34765C1.17137 8.33881 1.16236 8.32637 1.15775 8.31211C1.15313 8.29785 1.15315 8.28249 1.15778 8.26824C1.16242 8.25398 1.17144 8.24156 1.18356 8.23274C1.19568 8.22392 1.21028 8.21916 1.22527 8.21913H1.66902C1.67989 8.21912 1.69062 8.21661 1.70037 8.2118C1.71012 8.20699 1.71864 8.20001 1.72527 8.1914C1.73011 8.18485 1.73393 8.17761 1.7366 8.16991L1.87332 7.74921C1.87797 7.73496 1.88702 7.72254 1.89915 7.71374C1.91129 7.70494 1.9259 7.7002 1.9409 7.7002C1.95589 7.7002 1.9705 7.70494 1.98264 7.71374C1.99477 7.72254 2.00382 7.73496 2.00847 7.74921L2.14519 8.16991C2.14786 8.17761 2.15168 8.18485 2.15652 8.1914C2.16315 8.20001 2.17167 8.20699 2.18142 8.2118C2.19117 8.21661 2.2019 8.21912 2.21277 8.21913H2.65691C2.66488 8.21916 2.6728 8.22048 2.68035 8.22304C2.6926 8.22754 2.70337 8.23533 2.71149 8.24555C2.7196 8.25577 2.72475 8.26802 2.72636 8.28097C2.72798 8.29392 2.72599 8.30707 2.72063 8.31896C2.71527 8.33086 2.70674 8.34106 2.69597 8.34843Z" fill="#DBDBDB"/>
<path d="M3.5747 3.57871C3.57021 3.59295 3.57021 3.60822 3.5747 3.62246L3.71025 4.04316C3.71435 4.05729 3.71398 4.07234 3.70917 4.08625C3.70436 4.10015 3.69536 4.11222 3.6834 4.12079C3.67144 4.12936 3.65712 4.13401 3.64241 4.1341C3.6277 4.13419 3.61332 4.12971 3.60126 4.12129L3.24306 3.86074C3.23089 3.85197 3.21627 3.84725 3.20126 3.84725C3.18626 3.84725 3.17164 3.85197 3.15947 3.86074L2.80126 4.12129C2.7892 4.12971 2.77483 4.13419 2.76012 4.1341C2.7454 4.13401 2.73108 4.12936 2.71913 4.12079C2.70717 4.11222 2.69817 4.10015 2.69336 4.08625C2.68855 4.07234 2.68817 4.05729 2.69228 4.04316L2.829 3.62246C2.83349 3.60822 2.83349 3.59295 2.829 3.57871C2.82639 3.56675 2.82043 3.55577 2.81181 3.54707C2.9941 3.35957 3.18225 3.17949 3.37626 3.00684L3.40751 3.10332C3.4119 3.11803 3.42093 3.13093 3.43325 3.14008C3.44557 3.14923 3.46052 3.15415 3.47587 3.1541H3.91845C3.93342 3.15426 3.94796 3.15912 3.96002 3.16799C3.97209 3.17686 3.98106 3.18929 3.98568 3.20353C3.99029 3.21778 3.99032 3.23311 3.98576 3.24737C3.9812 3.26163 3.97228 3.27409 3.96025 3.28301L3.60205 3.54277C3.58923 3.55142 3.57962 3.56405 3.5747 3.57871Z" fill="#DBDBDB"/>
<path d="M1.56992 6.65488C1.56893 6.66463 1.56583 6.67405 1.56084 6.68248C1.55585 6.69091 1.54909 6.69815 1.54102 6.70371L1.18281 6.96426C1.17099 6.97304 1.16217 6.98526 1.15756 6.99924C1.15294 7.01322 1.15276 7.02829 1.15703 7.04238L1.29375 7.46348C1.29812 7.47764 1.29792 7.49282 1.29319 7.50687C1.28845 7.52092 1.27942 7.53313 1.26738 7.54176C1.25533 7.5504 1.24087 7.55503 1.22604 7.555C1.21122 7.55497 1.19678 7.55029 1.18477 7.5416L0.826563 7.28184C0.814539 7.27271 0.79986 7.26777 0.784766 7.26777C0.769672 7.26777 0.754992 7.27271 0.742969 7.28184L0.460938 7.48691C0.55026 7.20254 0.651823 6.92441 0.765625 6.65254C0.814063 6.53535 0.864844 6.42051 0.918359 6.30566L0.989063 6.52402C0.993669 6.53836 1.00268 6.55087 1.01482 6.55977C1.02695 6.56868 1.04159 6.57353 1.05664 6.57363H1.49922C1.50944 6.57358 1.51955 6.57574 1.52887 6.57996C1.53818 6.58417 1.54648 6.59034 1.55319 6.59806C1.5599 6.60577 1.56487 6.61484 1.56776 6.62464C1.57064 6.63445 1.57138 6.64476 1.56992 6.65488Z" fill="#DBDBDB"/>
<path d="M1.18281 10.3191C1.1709 10.3278 1.16201 10.34 1.15739 10.3541C1.15277 10.3681 1.15264 10.3832 1.15703 10.3973L1.29375 10.8187C1.29812 10.8329 1.29792 10.8481 1.29319 10.8621C1.28845 10.8762 1.27942 10.8884 1.26738 10.897C1.25533 10.9057 1.24087 10.9103 1.22604 10.9103C1.21122 10.9102 1.19678 10.9055 1.18477 10.8969L0.826563 10.6371C0.814463 10.6282 0.799813 10.6233 0.784766 10.6233C0.769719 10.6233 0.755069 10.6282 0.742969 10.6371L0.385156 10.8984C0.373149 10.9073 0.358655 10.9121 0.343745 10.9122C0.328834 10.9123 0.314272 10.9077 0.302139 10.899C0.290005 10.8904 0.280923 10.8781 0.276189 10.8639C0.271455 10.8498 0.271312 10.8345 0.275781 10.8203L0.4125 10.3988C0.417012 10.3847 0.416947 10.3696 0.412315 10.3556C0.407683 10.3415 0.398722 10.3293 0.386719 10.3207L0.0285156 10.0586C0.021008 10.0533 0.0146347 10.0465 0.00976562 10.0387C0.00976563 10.0117 0.0121094 9.98476 0.0136719 9.95819C0.0201695 9.94934 0.0287164 9.94219 0.0385808 9.93736C0.0484451 9.93253 0.0593331 9.93016 0.0703125 9.93046H0.512891C0.527944 9.93036 0.542581 9.92551 0.554715 9.9166C0.56685 9.90769 0.575863 9.89518 0.580469 9.88085L0.629297 9.73085L0.717188 9.46015C0.721844 9.44589 0.730888 9.43348 0.743025 9.42468C0.755162 9.41587 0.769772 9.41113 0.784766 9.41113C0.799759 9.41113 0.814369 9.41587 0.826506 9.42468C0.838644 9.43348 0.847687 9.44589 0.852344 9.46015L0.940234 9.73085L0.989063 9.88085C0.993669 9.89518 1.00268 9.90769 1.01482 9.9166C1.02695 9.92551 1.04159 9.93036 1.05664 9.93046H1.49922C1.51423 9.93034 1.52889 9.93501 1.54107 9.94377C1.55325 9.95254 1.56233 9.96496 1.56698 9.97923C1.57164 9.9935 1.57163 10.0089 1.56696 10.0232C1.5623 10.0374 1.55321 10.0498 1.54102 10.0586L1.18281 10.3191Z" fill="#DBDBDB"/>
<path d="M2.41797 10.0018C2.41802 9.98601 2.42308 9.97069 2.43242 9.95801C2.43242 9.98457 2.42969 10.0115 2.42852 10.0385C2.42497 10.0331 2.42233 10.0271 2.4207 10.0209C2.4207 10.0174 2.4207 10.0143 2.41875 10.0111C2.41828 10.008 2.41802 10.0049 2.41797 10.0018Z" fill="white"/>
<path d="M3.27019 6.10568L3.40691 6.52677C3.41168 6.54125 3.42097 6.5538 3.43342 6.5626C3.44587 6.57139 3.46082 6.57595 3.47605 6.5756H3.91863C3.93362 6.57562 3.94822 6.58039 3.96034 6.58921C3.97246 6.59803 3.98148 6.61045 3.98612 6.62471C3.99075 6.63896 3.99077 6.65431 3.98615 6.66858C3.98154 6.68284 3.97253 6.69528 3.96043 6.70412L3.60222 6.96427C3.59031 6.97298 3.58142 6.98519 3.5768 6.9992C3.57218 7.01321 3.57205 7.02831 3.57644 7.0424L3.71043 7.46466C3.71479 7.47883 3.7146 7.49401 3.70986 7.50806C3.70513 7.52211 3.6961 7.53431 3.68405 7.54295C3.672 7.55159 3.65755 7.55622 3.64272 7.55619C3.6279 7.55616 3.61346 7.55147 3.60144 7.54279L3.24324 7.28263C3.23107 7.27386 3.21645 7.26914 3.20144 7.26914C3.18644 7.26914 3.17182 7.27386 3.15965 7.28263L2.80144 7.54279C2.78943 7.55147 2.77499 7.55616 2.76016 7.55619C2.74534 7.55622 2.73088 7.55159 2.71883 7.54295C2.70678 7.53431 2.69776 7.52211 2.69302 7.50806C2.68829 7.49401 2.68809 7.47883 2.69246 7.46466L2.82918 7.04357C2.83357 7.02948 2.83344 7.01438 2.82882 7.00037C2.8242 6.98636 2.81531 6.97415 2.8034 6.96544L2.44519 6.70529C2.43309 6.69645 2.42408 6.68401 2.41947 6.66975C2.41485 6.65549 2.41487 6.64013 2.4195 6.62588C2.42414 6.61162 2.43316 6.5992 2.44528 6.59038C2.4574 6.58156 2.472 6.5768 2.48699 6.57677H2.92918C2.94415 6.57678 2.95874 6.57207 2.97087 6.5633C2.98301 6.55454 2.99207 6.54216 2.99676 6.52794L3.13347 6.10685C3.13759 6.09196 3.14644 6.07881 3.1587 6.0694C3.17095 6.05999 3.18594 6.05482 3.20139 6.05469C3.21684 6.05456 3.23192 6.05946 3.24433 6.06866C3.25674 6.07786 3.26582 6.09086 3.27019 6.10568Z" fill="white"/>
<path d="M3.33707 6.308C3.28355 6.42245 3.23277 6.5373 3.18433 6.65448C3.07053 6.92662 2.96897 7.20461 2.87965 7.48847L2.80347 7.54315C2.79146 7.55184 2.77702 7.55653 2.76219 7.55656C2.74737 7.55658 2.73291 7.55195 2.72086 7.54332C2.70882 7.53468 2.69979 7.52247 2.69505 7.50843C2.69032 7.49438 2.69012 7.4792 2.69449 7.46503L2.83121 7.04394C2.8356 7.02985 2.83547 7.01475 2.83085 7.00074C2.82623 6.98673 2.81734 6.97452 2.80543 6.96581L2.44722 6.70526C2.43915 6.69971 2.43239 6.69246 2.4274 6.68403C2.42241 6.6756 2.41931 6.66618 2.41832 6.65644C2.41734 6.64656 2.41843 6.63659 2.42154 6.62716C2.42464 6.61773 2.42969 6.60906 2.43635 6.6017C2.44301 6.59434 2.45114 6.58846 2.46021 6.58443C2.46928 6.5804 2.47909 6.57832 2.48902 6.57831H2.93004C2.94509 6.57821 2.95973 6.57336 2.97186 6.56445C2.984 6.55554 2.99301 6.54303 2.99761 6.5287L3.13433 6.10761C3.13899 6.09336 3.14803 6.08094 3.16017 6.07214C3.17231 6.06333 3.18692 6.05859 3.20191 6.05859C3.2169 6.05859 3.23151 6.06333 3.24365 6.07214C3.25579 6.08094 3.26483 6.09336 3.26949 6.10761L3.33707 6.308Z" fill="#DBDBDB"/>
<path d="M4.53355 4.41523L4.67027 4.83632C4.67496 4.85054 4.68401 4.86291 4.69615 4.87168C4.70828 4.88045 4.72287 4.88516 4.73784 4.88515H5.18042C5.19541 4.88517 5.21001 4.88993 5.22213 4.89875C5.23425 4.90757 5.24327 4.92 5.24791 4.93425C5.25255 4.94851 5.25256 4.96386 5.24794 4.97812C5.24333 4.99239 5.23433 5.00482 5.22222 5.01366L4.86402 5.27382C4.8522 5.2826 4.84338 5.29482 4.83876 5.3088C4.83415 5.32278 4.83396 5.33785 4.83824 5.35194L4.97535 5.77382C4.97955 5.788 4.97922 5.80315 4.97441 5.81713C4.9696 5.83112 4.96054 5.84326 4.9485 5.85186C4.93646 5.86046 4.92204 5.86509 4.90725 5.86511C4.89245 5.86512 4.87802 5.86052 4.86597 5.85194L4.50777 5.59179C4.49566 5.58305 4.4811 5.57834 4.46617 5.57834C4.45123 5.57834 4.43667 5.58305 4.42456 5.59179L4.06636 5.85194C4.05431 5.86052 4.03988 5.86512 4.02508 5.86511C4.01029 5.86509 3.99587 5.86046 3.98383 5.85186C3.97179 5.84326 3.96273 5.83112 3.95792 5.81713C3.95311 5.80315 3.95278 5.788 3.95699 5.77382L4.0937 5.35273C4.09816 5.33865 4.09806 5.32352 4.09343 5.3095C4.0888 5.29548 4.07988 5.28327 4.06792 5.2746L3.71089 5.01366C3.69895 5.00497 3.69001 4.99277 3.68532 4.97877C3.68063 4.96476 3.68042 4.94964 3.68471 4.93551C3.68901 4.92138 3.6976 4.90894 3.70929 4.89991C3.72098 4.89088 3.7352 4.88572 3.74995 4.88515H4.19253C4.20778 4.88556 4.22276 4.88102 4.23522 4.87222C4.24768 4.86342 4.25696 4.85083 4.26167 4.83632L4.39839 4.41523C4.40305 4.40097 4.41209 4.38856 4.42423 4.37975C4.43637 4.37095 4.45098 4.36621 4.46597 4.36621C4.48096 4.36621 4.49557 4.37095 4.50771 4.37975C4.51985 4.38856 4.52889 4.40097 4.53355 4.41523Z" fill="white"/>
<path d="M3.74972 4.88477H4.14035C4.088 4.96289 4.03722 5.03867 3.98722 5.11641L3.94425 5.18477L3.84972 5.11641L3.71066 5.01367C3.69879 5.0049 3.68992 4.99268 3.68527 4.97867C3.68063 4.96466 3.68043 4.94956 3.68471 4.93544C3.68899 4.92131 3.69754 4.90886 3.70918 4.89979C3.72082 4.89072 3.73498 4.88547 3.74972 4.88477Z" fill="#DBDBDB"/>
<path d="M5.79754 2.68371L5.93425 3.1048C5.93889 3.11905 5.94793 3.13146 5.96008 3.14024C5.97223 3.14901 5.98685 3.1537 6.00183 3.15363H6.44597C6.46073 3.15421 6.47495 3.15937 6.48664 3.16839C6.49833 3.17742 6.50692 3.18986 6.51121 3.20399C6.51551 3.21813 6.5153 3.23324 6.51061 3.24725C6.50591 3.26126 6.49698 3.27345 6.48504 3.28215L6.12683 3.5423C6.11488 3.55097 6.10595 3.56318 6.10132 3.5772C6.0967 3.59122 6.0966 3.60635 6.10105 3.62043L6.23777 4.04152C6.24197 4.0557 6.24164 4.07085 6.23683 4.08484C6.23202 4.09883 6.22297 4.11097 6.21093 4.11956C6.19889 4.12816 6.18447 4.13279 6.16967 4.13281C6.15488 4.13282 6.14045 4.12822 6.1284 4.11965L5.77058 3.85949C5.75841 3.85072 5.74379 3.846 5.72879 3.846C5.71378 3.846 5.69916 3.85072 5.68699 3.85949L5.32879 4.11965C5.31673 4.12822 5.3023 4.13282 5.28751 4.13281C5.27271 4.13279 5.25829 4.12816 5.24625 4.11956C5.23422 4.11097 5.22516 4.09883 5.22035 4.08484C5.21554 4.07085 5.21521 4.0557 5.21941 4.04152L5.35652 3.62043C5.36079 3.60633 5.36061 3.59127 5.35599 3.57728C5.35138 3.5633 5.34256 3.55108 5.33074 3.5423L4.97254 3.28215C4.96043 3.27331 4.95143 3.26087 4.94681 3.24661C4.9422 3.23235 4.94221 3.21699 4.94685 3.20274C4.95148 3.18848 4.9605 3.17606 4.97262 3.16724C4.98475 3.15842 4.99934 3.15366 5.01433 3.15363H5.45691C5.47188 3.15364 5.48647 3.14893 5.49861 3.14016C5.51074 3.13139 5.5198 3.11902 5.52449 3.1048L5.66121 2.68371C5.66556 2.66901 5.67455 2.65611 5.68684 2.64694C5.69912 2.63777 5.71404 2.63281 5.72937 2.63281C5.7447 2.63281 5.75962 2.63777 5.77191 2.64694C5.78419 2.65611 5.79318 2.66901 5.79754 2.68371Z" fill="white"/>
<path d="M5.87855 2.93515C5.85003 2.95897 5.82191 2.98358 5.79378 3.00858C5.61488 3.16679 5.44222 3.33202 5.27503 3.50233L4.97308 3.28319C4.9608 3.27441 4.95164 3.26195 4.94692 3.24761C4.94221 3.23328 4.94217 3.21781 4.94683 3.20345C4.95148 3.18909 4.96058 3.17659 4.97282 3.16775C4.98505 3.15891 4.99978 3.1542 5.01488 3.15429H5.45745C5.47246 3.15421 5.48706 3.14942 5.49919 3.14059C5.51132 3.13175 5.52036 3.11933 5.52503 3.10507L5.66175 2.68476C5.66641 2.6705 5.67545 2.65809 5.68759 2.64929C5.69972 2.64048 5.71433 2.63574 5.72933 2.63574C5.74432 2.63574 5.75893 2.64048 5.77107 2.64929C5.78321 2.65809 5.79225 2.6705 5.79691 2.68476L5.87855 2.93515Z" fill="#DBDBDB"/>
<path d="M7.05925 1.14083L7.19597 1.56154C7.20067 1.57608 7.20994 1.58873 7.22239 1.5976C7.23485 1.60646 7.24983 1.61108 7.26511 1.61076H7.70769C7.72268 1.61078 7.73728 1.61554 7.7494 1.62436C7.76152 1.63318 7.77054 1.64561 7.77518 1.65986C7.77982 1.67412 7.77983 1.68947 7.77521 1.70373C7.7706 1.71799 7.7616 1.73043 7.74949 1.73927L7.39129 1.99943C7.37938 2.00813 7.37049 2.02034 7.36586 2.03435C7.36124 2.04836 7.36111 2.06347 7.36551 2.07755L7.49949 2.49982C7.50386 2.51398 7.50366 2.52917 7.49892 2.54321C7.49419 2.55726 7.48516 2.56947 7.47311 2.5781C7.46107 2.58674 7.44661 2.59137 7.43178 2.59134C7.41696 2.59131 7.40252 2.58663 7.39051 2.57794L7.0323 2.31779C7.02013 2.30901 7.00551 2.30429 6.9905 2.30429C6.9755 2.30429 6.96088 2.30901 6.94871 2.31779L6.5905 2.57794C6.57849 2.58663 6.56405 2.59131 6.54923 2.59134C6.5344 2.59137 6.51994 2.58674 6.50789 2.5781C6.49585 2.56947 6.48682 2.55726 6.48208 2.54321C6.47735 2.52917 6.47715 2.51398 6.48152 2.49982L6.61824 2.07872C6.62263 2.06464 6.6225 2.04954 6.61788 2.03553C6.61326 2.02152 6.60437 2.0093 6.59246 2.0006L6.23425 1.74044C6.22215 1.73161 6.21314 1.71917 6.20853 1.7049C6.20392 1.69064 6.20393 1.67529 6.20856 1.66103C6.2132 1.64678 6.22222 1.63435 6.23434 1.62553C6.24646 1.61672 6.26106 1.61195 6.27605 1.61193H6.71824C6.73326 1.61191 6.74789 1.60714 6.76003 1.5983C6.77217 1.58946 6.7812 1.577 6.78582 1.56271L6.92254 1.14201C6.92665 1.12711 6.93551 1.11396 6.94776 1.10455C6.96002 1.09514 6.975 1.08998 6.99045 1.08985C7.0059 1.08971 7.02098 1.09462 7.03339 1.10382C7.04581 1.11302 7.05489 1.12601 7.05925 1.14083Z" fill="white"/>
<path d="M7.76852 1.6453C7.73492 1.66249 7.70172 1.68085 7.66852 1.69843C7.46956 1.80598 7.27503 1.91991 7.08492 2.04022C6.88649 2.1647 6.69313 2.29647 6.50485 2.43554L6.62203 2.0789C6.6256 2.06612 6.6256 2.05261 6.62203 2.03983C6.61819 2.0232 6.60848 2.0085 6.59469 1.99843L6.23649 1.73827C6.2243 1.72951 6.21521 1.7171 6.21054 1.70284C6.20587 1.68857 6.20586 1.67319 6.21052 1.65892C6.21517 1.64465 6.22425 1.63223 6.23643 1.62346C6.24862 1.61469 6.26327 1.61003 6.27828 1.61015H6.71969C6.73467 1.61022 6.74929 1.60553 6.76144 1.59675C6.77359 1.58798 6.78263 1.57557 6.78727 1.56132L6.92399 1.13983C6.92864 1.12558 6.93769 1.11317 6.94982 1.10436C6.96196 1.09556 6.97657 1.09082 6.99156 1.09082C7.00656 1.09082 7.02117 1.09556 7.03331 1.10436C7.04544 1.11317 7.05449 1.12558 7.05914 1.13983L7.19586 1.56132C7.20058 1.57617 7.21007 1.58904 7.22285 1.59794C7.23564 1.60684 7.251 1.61127 7.26656 1.61054H7.70914C7.72121 1.61064 7.73304 1.61391 7.74346 1.62001C7.75388 1.62611 7.76252 1.63483 7.76852 1.6453Z" fill="#DBDBDB"/>
<path d="M18.802 11.1322C19.1532 11.1322 19.4379 10.8475 19.4379 10.4963C19.4379 10.1451 19.1532 9.86035 18.802 9.86035C18.4507 9.86035 18.166 10.1451 18.166 10.4963C18.166 10.8475 18.4507 11.1322 18.802 11.1322Z" fill="#E54141"/>
<path d="M17.4758 10.9467C17.7245 10.9467 17.9262 10.745 17.9262 10.4963C17.9262 10.2475 17.7245 10.0459 17.4758 10.0459C17.227 10.0459 17.0254 10.2475 17.0254 10.4963C17.0254 10.745 17.227 10.9467 17.4758 10.9467Z" fill="#E54141"/>
</g>
<defs>
<clipPath id="clip0_365_36647">
<rect width="20" height="20" fill="white" transform="translate(0 0.5)"/>
</clipPath>
</defs>
</svg>
