<svg width="20" height="20" viewBox="0 0 20 20" fill="none" xmlns="http://www.w3.org/2000/svg">
<mask id="mask0_404_8495" style="mask-type:alpha" maskUnits="userSpaceOnUse" x="0" y="0" width="20" height="20">
<rect width="20" height="20" fill="#D9D9D9"/>
</mask>
<g mask="url(#mask0_404_8495)">
<path d="M8.00009 13.0404L10.0001 11.4987L12.0001 13.0404L11.2501 10.4987L13.1251 9.16536H10.7918L10.0001 6.58203L9.20843 9.16536H6.87509L8.75009 10.4987L8.00009 13.0404ZM10.0001 13.582L6.91676 15.9362C6.76398 16.0612 6.59732 16.1202 6.41676 16.1133C6.2362 16.1063 6.07648 16.0543 5.93759 15.957C5.7987 15.8598 5.69107 15.7279 5.61468 15.5612C5.53829 15.3945 5.53482 15.214 5.60426 15.0195L6.79176 11.1654L3.77093 9.01953C3.60426 8.90842 3.50009 8.76259 3.45843 8.58203C3.41676 8.40148 3.4237 8.23481 3.47926 8.08203C3.53482 7.92925 3.63204 7.79384 3.77093 7.67578C3.90982 7.55773 4.07648 7.4987 4.27093 7.4987H8.00009L9.20843 3.4987C9.27787 3.30425 9.38551 3.15495 9.53134 3.05078C9.67718 2.94661 9.83343 2.89453 10.0001 2.89453C10.1668 2.89453 10.323 2.94661 10.4688 3.05078C10.6147 3.15495 10.7223 3.30425 10.7918 3.4987L12.0001 7.4987H15.7293C15.9237 7.4987 16.0904 7.55773 16.2293 7.67578C16.3681 7.79384 16.4654 7.92925 16.5209 8.08203C16.5765 8.23481 16.5834 8.40148 16.5418 8.58203C16.5001 8.76259 16.3959 8.90842 16.2293 9.01953L13.2084 11.1654L14.3959 15.0195C14.4654 15.214 14.4619 15.3945 14.3855 15.5612C14.3091 15.7279 14.2015 15.8598 14.0626 15.957C13.9237 16.0543 13.764 16.1063 13.5834 16.1133C13.4029 16.1202 13.2362 16.0612 13.0834 15.9362L10.0001 13.582Z" fill="#FCAB3F"/>
</g>
</svg>
