<svg width="24" height="24" viewBox="0 0 24 24" fill="none" xmlns="http://www.w3.org/2000/svg">
<path fill-rule="evenodd" clip-rule="evenodd" d="M10.7362 7.00008L10.3487 7.29754L10.3215 7.32236C10.0783 7.54701 9.88483 7.80516 9.74001 8.09614C9.63359 8.30884 9.5434 8.60874 9.48325 9.00011L6.75 9.00011L10.0366 11.8172C9.62657 12.2702 9.41453 12.8218 9.41453 13.4782C9.41453 13.5998 9.42133 13.7175 9.43477 13.8315L5 10.0001V19.0001H19V10.0001L14.3715 13.9988C14.4001 13.8404 14.4145 13.6748 14.4145 13.5019C14.4145 12.8716 14.2255 12.3408 13.8646 11.902L17.25 9.00011L15.3454 9.00013C16.0223 8.48701 16.499 7.99754 16.7948 7.54854C16.9087 7.37555 17.0078 7.19281 17.0912 7.0001L21 7.00011V21.0001H3V7.00011L10.7362 7.00008ZM12.0614 15.9946L12 16.0476L11.9424 15.9978C11.9825 15.9975 12.0222 15.9965 12.0614 15.9946ZM12.0041 11.998C12.4368 11.998 12.7944 12.1405 13.0767 12.4255C13.359 12.7105 13.5002 13.0693 13.5002 13.502C13.5002 13.9294 13.359 14.2856 13.0767 14.5706C12.7944 14.8556 12.4368 14.998 12.0041 14.998C11.5608 14.998 11.1994 14.8556 10.9197 14.5706C10.64 14.2856 10.5002 13.9215 10.5002 13.4783C10.5002 13.0561 10.6426 12.7039 10.9276 12.4215C11.2126 12.1392 11.5714 11.998 12.0041 11.998ZM12.4689 1.99805C13.8246 1.99805 14.8562 2.33172 15.5637 2.99908C16.188 3.59846 16.5002 4.37703 16.5002 5.33481C16.5002 5.98363 16.3485 6.53821 16.0453 6.99856C15.78 7.40137 15.3326 7.83374 14.7031 8.29569L14.4221 8.49547C13.8275 8.90948 13.4619 9.22616 13.3251 9.44552C13.1884 9.66489 13.12 10.0557 13.12 10.618V10.998H10.489V10.1824C10.489 9.39763 10.5663 8.85078 10.7209 8.54182C10.8101 8.36262 10.929 8.20351 11.0776 8.06447L11.2436 7.92071C11.3118 7.8646 11.3929 7.80028 11.4868 7.72777L12.4436 7.01594C12.8477 6.70775 13.1222 6.46561 13.2672 6.2895C13.4604 6.05469 13.557 5.77972 13.557 5.46458C13.557 5.06911 13.4218 4.75551 13.1512 4.52379C12.8807 4.29207 12.5135 4.17621 12.0498 4.17621C11.2887 4.17621 10.3701 4.49444 9.29392 5.1309L8.50016 3.07323C9.82012 2.35644 11.143 1.99805 12.4689 1.99805Z" fill="#192D4E"/>
</svg>
