<svg width="16" height="16" viewBox="0 0 16 16" fill="none" xmlns="http://www.w3.org/2000/svg">
<mask id="mask0_1445_6576" style="mask-type:alpha" maskUnits="userSpaceOnUse" x="0" y="0" width="16" height="16">
<rect width="16" height="16" fill="#D9D9D9"/>
</mask>
<g mask="url(#mask0_1445_6576)">
<path d="M6.39988 10.4331L7.99988 9.19974L9.59988 10.4331L8.99988 8.39974L10.4999 7.33307H8.63321L7.99988 5.26641L7.36655 7.33307H5.49988L6.99988 8.39974L6.39988 10.4331ZM7.99988 10.8664L5.53321 12.7497C5.41099 12.8497 5.27766 12.897 5.13321 12.8914C4.98877 12.8858 4.86099 12.8442 4.74988 12.7664C4.63877 12.6886 4.55266 12.5831 4.49155 12.4497C4.43043 12.3164 4.42766 12.172 4.48321 12.0164L5.43321 8.93307L3.01655 7.21641C2.88321 7.12752 2.79988 7.01085 2.76655 6.86641C2.73321 6.72196 2.73877 6.58863 2.78321 6.46641C2.82766 6.34418 2.90543 6.23585 3.01655 6.14141C3.12766 6.04696 3.26099 5.99974 3.41655 5.99974H6.39988L7.36655 2.79974C7.4221 2.64418 7.50821 2.52474 7.62488 2.44141C7.74155 2.35807 7.86655 2.31641 7.99988 2.31641C8.13321 2.31641 8.25821 2.35807 8.37488 2.44141C8.49155 2.52474 8.57766 2.64418 8.63321 2.79974L9.59988 5.99974H12.5832C12.7388 5.99974 12.8721 6.04696 12.9832 6.14141C13.0943 6.23585 13.1721 6.34418 13.2165 6.46641C13.261 6.58863 13.2665 6.72196 13.2332 6.86641C13.1999 7.01085 13.1165 7.12752 12.9832 7.21641L10.5665 8.93307L11.5165 12.0164C11.5721 12.172 11.5693 12.3164 11.5082 12.4497C11.4471 12.5831 11.361 12.6886 11.2499 12.7664C11.1388 12.8442 11.011 12.8858 10.8665 12.8914C10.7221 12.897 10.5888 12.8497 10.4665 12.7497L7.99988 10.8664Z" fill="#FCAB3F"/>
</g>
</svg>
