<svg width="24" height="24" viewBox="0 0 24 24" fill="none" xmlns="http://www.w3.org/2000/svg">
<path d="M21.5999 9.83996C21.4314 9.57513 21.2907 9.29364 21.1799 8.99996C21.0833 8.69818 21.0228 8.38599 20.9999 8.06996C20.9867 7.30519 20.7655 6.55845 20.3599 5.90996C19.8639 5.32191 19.2176 4.87952 18.4899 4.62996C18.1929 4.51535 17.9082 4.3713 17.6399 4.19996C17.4072 3.99964 17.193 3.77874 16.9999 3.53996C16.5405 2.91622 15.9175 2.4317 15.1999 2.13996C14.4733 1.96826 13.7141 1.99242 12.9999 2.20996C12.3619 2.35989 11.6979 2.35989 11.0599 2.20996C10.3332 1.98516 9.55921 1.96098 8.81988 2.13996C8.09495 2.42851 7.46473 2.9133 6.99988 3.53996C6.80048 3.77963 6.57956 4.00055 6.33988 4.19996C6.07161 4.3713 5.78685 4.51535 5.48988 4.62996C4.75857 4.87791 4.10863 5.32042 3.60988 5.90996C3.21483 6.56149 3.00401 7.30802 2.99988 8.06996C2.97693 8.38599 2.91651 8.69818 2.81988 8.99996C2.70786 9.28674 2.56715 9.56147 2.39988 9.81996C1.94901 10.4627 1.68272 11.2166 1.62988 12C1.68629 12.7764 1.95242 13.5229 2.39988 14.16C2.571 14.4162 2.71193 14.6914 2.81988 14.98C2.90689 15.2897 2.95723 15.6085 2.96988 15.93C2.98203 16.6949 3.20336 17.4419 3.60988 18.09C4.10588 18.678 4.75219 19.1204 5.47988 19.37C5.77685 19.4846 6.06161 19.6286 6.32988 19.8C6.56956 19.9994 6.79048 20.2203 6.98988 20.46C7.44621 21.0867 8.07011 21.5719 8.78988 21.86C9.07192 21.9458 9.36507 21.9896 9.65988 21.99C10.1115 21.9756 10.5605 21.9153 10.9999 21.81C11.6368 21.6508 12.303 21.6508 12.9399 21.81C13.6683 22.0262 14.4409 22.0469 15.1799 21.87C15.8997 21.5819 16.5236 21.0967 16.9799 20.47C17.1793 20.2303 17.4002 20.0094 17.6399 19.81C17.9082 19.6386 18.1929 19.4946 18.4899 19.38C19.2176 19.1304 19.8639 18.688 20.3599 18.1C20.7664 17.4519 20.9877 16.7049 20.9999 15.94C21.0125 15.6185 21.0629 15.2997 21.1499 14.99C21.2619 14.7032 21.4026 14.4284 21.5699 14.17C22.0297 13.5333 22.3064 12.7828 22.3699 12C22.3135 11.2235 22.0473 10.477 21.5999 9.83996ZM16.7099 10.71L11.7099 15.71C11.6169 15.8037 11.5063 15.8781 11.3845 15.9289C11.2626 15.9796 11.1319 16.0058 10.9999 16.0058C10.8679 16.0058 10.7372 15.9796 10.6153 15.9289C10.4934 15.8781 10.3828 15.8037 10.2899 15.71L7.28988 12.71C7.19664 12.6167 7.12268 12.506 7.07222 12.3842C7.02176 12.2624 6.99579 12.1318 6.99579 12C6.99579 11.7337 7.10158 11.4783 7.28988 11.29C7.47819 11.1017 7.73358 10.9959 7.99988 10.9959C8.26618 10.9959 8.52158 11.1017 8.70988 11.29L10.9999 13.59L15.2899 9.28996C15.4782 9.10166 15.7336 8.99587 15.9999 8.99587C16.2662 8.99587 16.5216 9.10166 16.7099 9.28996C16.8982 9.47826 17.004 9.73366 17.004 9.99996C17.004 10.2663 16.8982 10.5217 16.7099 10.71Z" fill="#08AD36"/>
</svg>
