<svg width="512" height="512" viewBox="0 0 512 512" fill="none" xmlns="http://www.w3.org/2000/svg">
<g clip-path="url(#clip0_2517_13518)">
<path d="M341.333 238.835V418.532C341.333 425.822 336.315 432.158 329.219 433.831L174.273 470.384C171.899 470.941 169.433 470.941 167.059 470.384L12.114 433.831C5.018 432.158 0 425.822 0 418.532V238.835C0 234.451 1.816 230.421 4.798 227.532H336.518V227.515C339.517 230.404 341.333 234.442 341.333 238.835Z" fill="url(#paint0_linear_2517_13518)"/>
<path d="M170.667 279.078V262.396H188.257L170.667 279.078Z" fill="url(#paint1_linear_2517_13518)"/>
<path d="M336.518 227.532H240.597V454.737L329.219 433.83C336.315 432.157 341.333 425.822 341.333 418.531V238.835C341.333 234.442 339.517 230.404 336.518 227.515V227.532Z" fill="url(#paint2_linear_2517_13518)"/>
<path d="M170.667 227.532V470.797C169.459 470.797 168.251 470.662 167.06 470.383L12.114 433.831C5.018 432.158 0 425.822 0 418.532V238.835C0 234.451 1.816 230.421 4.798 227.532H170.667Z" fill="url(#paint3_linear_2517_13518)"/>
<path d="M170.667 227.532V470.797C169.459 470.797 168.251 470.662 167.06 470.383L12.114 433.831C5.018 432.158 0 425.822 0 418.532V238.835C0 234.451 1.816 230.421 4.798 227.532H170.667Z" fill="url(#paint4_linear_2517_13518)"/>
<path d="M170.667 360.007V470.797C169.459 470.797 168.251 470.662 167.06 470.383L12.114 433.831C5.018 432.158 0 425.822 0 418.532V321.832L153.248 357.979C158.975 359.331 164.821 360.007 170.667 360.007Z" fill="url(#paint5_linear_2517_13518)"/>
<path d="M170.667 360.007V470.797C171.875 470.797 173.083 470.662 174.274 470.383L329.22 433.83C336.316 432.157 341.334 425.822 341.334 418.531V321.831L188.086 357.98C182.358 359.331 176.512 360.007 170.667 360.007Z" fill="url(#paint6_linear_2517_13518)"/>
<path d="M336.518 227.532L179.748 264.516C173.776 265.927 167.558 265.927 161.586 264.516L4.81494 227.532C6.79994 225.623 9.28394 224.204 12.1049 223.536L167.059 186.983C169.433 186.425 171.9 186.425 174.273 186.983L232.131 200.634V207.603H261.689L329.227 223.535C332.049 224.204 334.533 225.623 336.518 227.532Z" fill="url(#paint7_linear_2517_13518)"/>
<path d="M232.131 200.635V207.604L76.2309 244.385L4.81494 227.532C6.79994 225.623 9.28394 224.204 12.1049 223.536L167.059 186.983C169.433 186.425 171.9 186.425 174.273 186.983L232.131 200.635Z" fill="url(#paint8_linear_2517_13518)"/>
<path d="M232.131 200.626L64.729 240.122C62.814 240.574 61.46 242.283 61.46 244.251L61.449 296.758C61.449 297.902 62.236 298.896 63.349 299.159L87.983 304.965C89.531 305.33 91.015 304.155 91.015 302.565V250.929C91.015 249.134 92.25 247.574 93.997 247.162L261.688 207.602L232.131 200.626Z" fill="url(#paint9_linear_2517_13518)"/>
<path d="M141.1 236.056L93.996 247.165C93.303 247.325 92.695 247.68 92.205 248.145L62.765 241.201C63.297 240.686 63.965 240.306 64.725 240.12L111.525 229.079L141.1 236.056Z" fill="url(#paint10_linear_2517_13518)"/>
<path d="M62.766 241.2L92.197 248.144C91.462 248.854 91.014 249.85 91.014 250.932V302.564C91.014 304.16 89.527 305.335 87.981 304.963L63.348 299.16C62.233 298.898 61.447 297.901 61.447 296.761L61.455 244.251C61.456 243.059 61.955 241.969 62.766 241.2Z" fill="url(#paint11_linear_2517_13518)"/>
<path d="M61.452 271.478L61.448 296.76C61.448 297.901 62.234 298.897 63.349 299.159L87.982 304.962C89.528 305.334 91.015 304.16 91.015 302.563V271.477H61.452V271.478Z" fill="url(#paint12_linear_2517_13518)"/>
<path d="M18.689 411.299L86.609 427.322C88.859 427.853 91.015 426.146 91.015 423.835V386.534C91.015 384.872 89.8719 383.428 88.255 383.047L20.335 367.026C18.085 366.495 15.929 368.202 15.929 370.513V407.812C15.929 409.474 17.071 410.917 18.689 411.299Z" fill="url(#paint13_linear_2517_13518)"/>
<path d="M15.929 381.087V407.811C15.929 409.473 17.072 410.917 18.689 411.298L86.609 427.321C88.859 427.852 91.015 426.145 91.015 423.834V398.8L15.929 381.087Z" fill="url(#paint14_linear_2517_13518)"/>
<path d="M88.2539 383.046L53.7629 374.91V419.573L86.6089 427.322C88.8589 427.853 91.0149 426.146 91.0149 423.835V386.533C91.0139 384.871 89.8709 383.427 88.2539 383.046Z" fill="url(#paint15_linear_2517_13518)"/>
<path d="M197.64 418.256V418.332C197.64 420.458 199.623 422.028 201.693 421.54L250.435 410.043C251.923 409.692 252.975 408.364 252.975 406.835V406.759C252.975 404.633 250.992 403.063 248.922 403.551L200.18 415.048C198.692 415.399 197.64 416.727 197.64 418.256Z" fill="url(#paint16_linear_2517_13518)"/>
<path d="M201.693 434.432L225.989 428.702C227.477 428.351 228.529 427.023 228.529 425.494V425.417C228.529 423.291 226.546 421.721 224.476 422.209L200.18 427.94C198.692 428.291 197.64 429.619 197.64 431.148V431.225C197.64 433.35 199.623 434.92 201.693 434.432Z" fill="url(#paint17_linear_2517_13518)"/>
<path d="M512 279.078V458.775C512 466.065 506.982 472.401 499.886 474.074L344.94 510.626C342.566 511.183 340.1 511.183 337.726 510.626L182.78 474.073C175.684 472.4 170.666 466.065 170.666 458.774V279.078C170.666 274.694 172.482 270.664 175.464 267.775H507.184V267.758C510.184 270.647 512 274.685 512 279.078Z" fill="url(#paint18_linear_2517_13518)"/>
<path d="M507.185 267.775H411.264V494.98L499.886 474.073C506.982 472.4 512 466.065 512 458.774V279.078C512 274.685 510.184 270.647 507.185 267.758V267.775Z" fill="url(#paint19_linear_2517_13518)"/>
<path d="M341.333 267.775V511.04C340.125 511.04 338.917 510.905 337.726 510.626L182.78 474.073C175.684 472.4 170.666 466.065 170.666 458.774V279.078C170.666 274.694 172.482 270.664 175.464 267.775H341.333Z" fill="url(#paint20_linear_2517_13518)"/>
<path d="M341.333 267.775V511.04C340.125 511.04 338.917 510.905 337.726 510.626L182.78 474.073C175.684 472.4 170.666 466.065 170.666 458.774V279.078C170.666 274.694 172.482 270.664 175.464 267.775H341.333Z" fill="url(#paint21_linear_2517_13518)"/>
<path d="M341.333 400.25V511.04C340.125 511.04 338.917 510.905 337.726 510.626L182.78 474.073C175.684 472.4 170.666 466.065 170.666 458.774V362.074L323.914 398.221C329.642 399.574 335.488 400.25 341.333 400.25Z" fill="url(#paint22_linear_2517_13518)"/>
<path d="M341.333 400.25V511.04C342.541 511.04 343.749 510.905 344.94 510.626L499.886 474.073C506.982 472.4 512 466.065 512 458.774V362.074L358.752 398.221C353.025 399.574 347.179 400.25 341.333 400.25Z" fill="url(#paint23_linear_2517_13518)"/>
<path d="M507.185 267.775L350.415 304.759C344.443 306.17 338.225 306.17 332.253 304.759L175.483 267.775C177.468 265.866 179.952 264.447 182.773 263.779L337.727 227.226C340.101 226.668 342.568 226.668 344.941 227.226L402.799 240.877V247.846H432.357L499.895 263.778C502.716 264.446 505.2 265.866 507.185 267.775Z" fill="url(#paint24_linear_2517_13518)"/>
<path d="M507.185 267.775L350.415 304.759C344.443 306.17 338.225 306.17 332.253 304.759L175.483 267.775C177.468 265.866 179.952 264.447 182.773 263.779L337.727 227.226C340.101 226.668 342.568 226.668 344.941 227.226L402.799 240.877V247.846H432.357L499.895 263.778C502.716 264.446 505.2 265.866 507.185 267.775Z" fill="url(#paint25_linear_2517_13518)"/>
<path d="M402.798 240.878V247.847L246.898 284.628L175.482 267.775C177.467 265.866 179.951 264.447 182.772 263.779L337.726 227.226C340.1 226.668 342.567 226.668 344.94 227.226L402.798 240.878Z" fill="url(#paint26_linear_2517_13518)"/>
<path d="M402.798 240.869L235.395 280.365C233.48 280.817 232.126 282.526 232.126 284.494L232.115 337.001C232.115 338.145 232.902 339.139 234.015 339.402L258.649 345.208C260.197 345.573 261.681 344.398 261.681 342.808V291.172C261.681 289.377 262.916 287.817 264.663 287.405L432.354 247.845L402.798 240.869Z" fill="url(#paint27_linear_2517_13518)"/>
<path d="M402.8 240.87L235.4 280.36C234.64 280.54 233.96 280.92 233.43 281.44L262.86 288.39C263.35 287.91 263.96 287.57 264.66 287.4L432.35 247.84L402.8 240.87Z" fill="url(#paint28_linear_2517_13518)"/>
<path d="M311.767 276.298L264.663 287.407C263.97 287.567 263.362 287.922 262.872 288.387L233.432 281.443C233.964 280.928 234.632 280.548 235.392 280.362L282.192 269.321L311.767 276.298Z" fill="url(#paint29_linear_2517_13518)"/>
<path d="M233.432 281.443L262.863 288.387C262.128 289.097 261.68 290.093 261.68 291.175V342.807C261.68 344.404 260.193 345.578 258.647 345.206L234.014 339.403C232.899 339.141 232.113 338.144 232.113 337.004L232.121 284.494C232.123 283.301 232.621 282.212 233.432 281.443Z" fill="url(#paint30_linear_2517_13518)"/>
<path d="M232.118 311.721L232.114 337.003C232.114 338.144 232.9 339.14 234.015 339.402L258.648 345.205C260.194 345.577 261.681 344.403 261.681 342.806V311.72H232.118V311.721Z" fill="url(#paint31_linear_2517_13518)"/>
<path d="M189.356 451.542L257.276 467.565C259.526 468.096 261.682 466.389 261.682 464.078V426.777C261.682 425.115 260.539 423.671 258.922 423.29L191.002 407.269C188.752 406.738 186.596 408.445 186.596 410.756V448.055C186.595 449.716 187.738 451.16 189.356 451.542Z" fill="url(#paint32_linear_2517_13518)"/>
<path d="M186.595 421.33V448.054C186.595 449.716 187.738 451.16 189.355 451.541L257.275 467.564C259.525 468.095 261.681 466.388 261.681 464.077V439.043L186.595 421.33Z" fill="url(#paint33_linear_2517_13518)"/>
<path d="M258.921 423.288L224.43 415.152V459.815L257.276 467.564C259.526 468.095 261.682 466.388 261.682 464.077V426.775C261.681 425.113 260.538 423.67 258.921 423.288Z" fill="url(#paint34_linear_2517_13518)"/>
<path d="M368.307 458.499V458.575C368.307 460.701 370.29 462.271 372.36 461.783L421.102 450.286C422.59 449.935 423.642 448.607 423.642 447.078V447.002C423.642 444.876 421.659 443.306 419.589 443.794L370.847 455.291C369.358 455.641 368.307 456.97 368.307 458.499Z" fill="url(#paint35_linear_2517_13518)"/>
<path d="M372.359 474.675L396.655 468.945C398.143 468.594 399.195 467.266 399.195 465.737V465.66C399.195 463.534 397.212 461.964 395.142 462.452L370.846 468.183C369.358 468.534 368.306 469.862 368.306 471.391V471.468C368.306 473.593 370.29 475.163 372.359 474.675Z" fill="url(#paint36_linear_2517_13518)"/>
<path d="M421.664 53.225V232.922C421.664 240.212 416.646 246.548 409.55 248.221L254.604 284.774C252.23 285.331 249.763 285.331 247.39 284.774L92.444 248.221C85.348 246.548 80.33 240.213 80.33 232.922V53.225C80.33 48.841 82.146 44.811 85.128 41.922H416.848V41.905C419.848 44.795 421.664 48.833 421.664 53.225Z" fill="url(#paint37_linear_2517_13518)"/>
<path d="M416.849 41.923H320.928V269.128L409.55 248.221C416.646 246.548 421.664 240.213 421.664 232.922V53.225C421.664 48.832 419.848 44.794 416.849 41.905V41.923Z" fill="url(#paint38_linear_2517_13518)"/>
<path d="M250.997 41.9231V285.188C249.789 285.188 248.581 285.053 247.39 284.774L92.444 248.221C85.348 246.548 80.33 240.213 80.33 232.922V53.2251C80.33 48.8411 82.146 44.8111 85.128 41.9221L250.997 41.9231Z" fill="url(#paint39_linear_2517_13518)"/>
<path d="M250.997 174.398V285.188C249.789 285.188 248.581 285.053 247.39 284.774L92.444 248.221C85.348 246.548 80.33 240.213 80.33 232.922V136.222L233.578 172.369C239.306 173.722 245.152 174.398 250.997 174.398Z" fill="url(#paint40_linear_2517_13518)"/>
<path d="M250.997 174.398V285.188C252.205 285.188 253.413 285.053 254.604 284.774L409.55 248.221C416.646 246.548 421.664 240.213 421.664 232.922V136.222L268.416 172.37C262.689 173.722 256.843 174.398 250.997 174.398Z" fill="url(#paint41_linear_2517_13518)"/>
<path d="M416.849 41.9231L260.079 78.9071C254.107 80.3181 247.889 80.3181 241.917 78.9071L85.146 41.9231C87.131 40.0141 89.615 38.5951 92.436 37.9271L247.39 1.37407C249.764 0.816066 252.23 0.816066 254.604 1.37407L312.462 15.0251V21.9941H342.02L409.558 37.9261C412.38 38.5941 414.864 40.0131 416.849 41.9231Z" fill="url(#paint42_linear_2517_13518)"/>
<path d="M312.462 15.0251V21.9941L156.562 58.7751L85.146 41.9231C87.131 40.0141 89.615 38.5951 92.436 37.9271L247.39 1.37407C249.764 0.816066 252.23 0.816066 254.604 1.37407L312.462 15.0251Z" fill="url(#paint43_linear_2517_13518)"/>
<path d="M312.462 15.0171L145.059 54.5131C143.144 54.9651 141.79 56.6741 141.79 58.6421L141.779 111.149C141.779 112.293 142.566 113.287 143.679 113.55L168.313 119.356C169.861 119.721 171.345 118.546 171.345 116.956V65.3201C171.345 63.5251 172.58 61.9651 174.327 61.5531L342.018 21.9931L312.462 15.0171Z" fill="url(#paint44_linear_2517_13518)"/>
<path d="M221.431 50.446L174.327 61.555C173.634 61.715 173.026 62.07 172.536 62.535L143.096 55.591C143.628 55.076 144.296 54.696 145.056 54.51L191.856 43.469L221.431 50.446Z" fill="url(#paint45_linear_2517_13518)"/>
<path d="M143.096 55.5911L172.527 62.5351C171.792 63.2451 171.344 64.2411 171.344 65.3231V116.955C171.344 118.552 169.857 119.726 168.311 119.354L143.678 113.551C142.563 113.289 141.777 112.292 141.777 111.152L141.785 58.6421C141.787 57.4491 142.285 56.3591 143.096 55.5911Z" fill="url(#paint46_linear_2517_13518)"/>
<path d="M141.782 85.8691L141.778 111.151C141.778 112.292 142.564 113.288 143.679 113.55L168.312 119.353C169.858 119.725 171.345 118.551 171.345 116.954V85.8691H141.782Z" fill="url(#paint47_linear_2517_13518)"/>
<path d="M99.0199 225.689L166.94 241.712C169.19 242.243 171.346 240.536 171.346 238.225V200.924C171.346 199.262 170.203 197.818 168.586 197.437L100.666 181.416C98.4159 180.885 96.2599 182.592 96.2599 184.903V222.202C96.2589 223.864 97.4019 225.308 99.0199 225.689Z" fill="url(#paint48_linear_2517_13518)"/>
<path d="M96.2589 195.477V222.201C96.2589 223.863 97.4019 225.307 99.0189 225.688L166.939 241.711C169.189 242.242 171.345 240.535 171.345 238.224V213.19L96.2589 195.477Z" fill="url(#paint49_linear_2517_13518)"/>
<path d="M168.584 197.436L134.093 189.3V233.963L166.939 241.712C169.189 242.243 171.345 240.536 171.345 238.225V200.923C171.345 199.261 170.202 197.817 168.584 197.436Z" fill="url(#paint50_linear_2517_13518)"/>
<path d="M277.971 232.646V232.722C277.971 234.848 279.954 236.418 282.024 235.93L330.766 224.433C332.254 224.082 333.306 222.754 333.306 221.225V221.149C333.306 219.023 331.323 217.453 329.253 217.941L280.511 229.438C279.022 229.789 277.971 231.117 277.971 232.646Z" fill="url(#paint51_linear_2517_13518)"/>
<path d="M282.023 248.823L306.319 243.093C307.807 242.742 308.859 241.414 308.859 239.885V239.808C308.859 237.682 306.876 236.112 304.806 236.6L280.51 242.331C279.022 242.682 277.97 244.01 277.97 245.539V245.616C277.97 247.741 279.954 249.311 282.023 248.823Z" fill="url(#paint52_linear_2517_13518)"/>
</g>
<defs>
<linearGradient id="paint0_linear_2517_13518" x1="21.449" y1="209.11" x2="318.937" y2="447.582" gradientUnits="userSpaceOnUse">
<stop stop-color="#FEA613"/>
<stop offset="1" stop-color="#C4573A"/>
</linearGradient>
<linearGradient id="paint1_linear_2517_13518" x1="151.455" y1="270.737" x2="172.288" y2="270.737" gradientUnits="userSpaceOnUse">
<stop stop-color="#C4573A" stop-opacity="0"/>
<stop offset="0.235" stop-color="#BE5539" stop-opacity="0.235"/>
<stop offset="0.539" stop-color="#AE4E35" stop-opacity="0.539"/>
<stop offset="0.8794" stop-color="#934330" stop-opacity="0.879"/>
<stop offset="1" stop-color="#883F2E"/>
</linearGradient>
<linearGradient id="paint2_linear_2517_13518" x1="288.172" y1="341.126" x2="346.034" y2="341.126" gradientUnits="userSpaceOnUse">
<stop stop-color="#C4573A" stop-opacity="0"/>
<stop offset="0.235" stop-color="#BE5539" stop-opacity="0.235"/>
<stop offset="0.539" stop-color="#AE4E35" stop-opacity="0.539"/>
<stop offset="0.8794" stop-color="#934330" stop-opacity="0.879"/>
<stop offset="1" stop-color="#883F2E"/>
</linearGradient>
<linearGradient id="paint3_linear_2517_13518" x1="72.468" y1="309.896" x2="194.415" y2="460.748" gradientUnits="userSpaceOnUse">
<stop stop-color="#C4573A" stop-opacity="0"/>
<stop offset="0.235" stop-color="#BE5539" stop-opacity="0.235"/>
<stop offset="0.539" stop-color="#AE4E35" stop-opacity="0.539"/>
<stop offset="0.8794" stop-color="#934330" stop-opacity="0.879"/>
<stop offset="1" stop-color="#883F2E"/>
</linearGradient>
<linearGradient id="paint4_linear_2517_13518" x1="116.739" y1="313.504" x2="173.413" y2="243.999" gradientUnits="userSpaceOnUse">
<stop stop-color="#C4573A" stop-opacity="0"/>
<stop offset="0.235" stop-color="#BE5539" stop-opacity="0.235"/>
<stop offset="0.539" stop-color="#AE4E35" stop-opacity="0.539"/>
<stop offset="0.8794" stop-color="#934330" stop-opacity="0.879"/>
<stop offset="1" stop-color="#883F2E"/>
</linearGradient>
<linearGradient id="paint5_linear_2517_13518" x1="81.625" y1="415.475" x2="74.399" y2="452.812" gradientUnits="userSpaceOnUse">
<stop stop-color="#C4573A" stop-opacity="0"/>
<stop offset="0.235" stop-color="#BE5539" stop-opacity="0.235"/>
<stop offset="0.539" stop-color="#AE4E35" stop-opacity="0.539"/>
<stop offset="0.8794" stop-color="#934330" stop-opacity="0.879"/>
<stop offset="1" stop-color="#883F2E"/>
</linearGradient>
<linearGradient id="paint6_linear_2517_13518" x1="259.708" y1="415.475" x2="266.935" y2="452.812" gradientUnits="userSpaceOnUse">
<stop stop-color="#C4573A" stop-opacity="0"/>
<stop offset="0.235" stop-color="#BE5539" stop-opacity="0.235"/>
<stop offset="0.539" stop-color="#AE4E35" stop-opacity="0.539"/>
<stop offset="0.8794" stop-color="#934330" stop-opacity="0.879"/>
<stop offset="1" stop-color="#883F2E"/>
</linearGradient>
<linearGradient id="paint7_linear_2517_13518" x1="169.531" y1="212.388" x2="174.047" y2="272.608" gradientUnits="userSpaceOnUse">
<stop stop-color="#FEA613"/>
<stop offset="1" stop-color="#C4573A"/>
</linearGradient>
<linearGradient id="paint8_linear_2517_13518" x1="118.812" y1="215.5" x2="122.124" y2="229.351" gradientUnits="userSpaceOnUse">
<stop stop-color="#C4573A" stop-opacity="0"/>
<stop offset="0.235" stop-color="#BE5539" stop-opacity="0.235"/>
<stop offset="0.539" stop-color="#AE4E35" stop-opacity="0.539"/>
<stop offset="0.8794" stop-color="#934330" stop-opacity="0.879"/>
<stop offset="1" stop-color="#883F2E"/>
</linearGradient>
<linearGradient id="paint9_linear_2517_13518" x1="140.751" y1="201.716" x2="164.237" y2="258.926" gradientUnits="userSpaceOnUse">
<stop stop-color="#FEF0AE"/>
<stop offset="1" stop-color="#FAC600"/>
</linearGradient>
<linearGradient id="paint10_linear_2517_13518" x1="101.933" y1="236.55" x2="101.933" y2="249.735" gradientUnits="userSpaceOnUse">
<stop stop-color="#FE9738" stop-opacity="0"/>
<stop offset="1" stop-color="#FE9738"/>
</linearGradient>
<linearGradient id="paint11_linear_2517_13518" x1="83.723" y1="273.116" x2="92.836" y2="273.116" gradientUnits="userSpaceOnUse">
<stop stop-color="#FE9738" stop-opacity="0"/>
<stop offset="1" stop-color="#FE9738"/>
</linearGradient>
<linearGradient id="paint12_linear_2517_13518" x1="75.261" y1="292.639" x2="73.455" y2="302.876" gradientUnits="userSpaceOnUse">
<stop stop-color="#FE9738" stop-opacity="0"/>
<stop offset="1" stop-color="#FE9738"/>
</linearGradient>
<linearGradient id="paint13_linear_2517_13518" x1="31.889" y1="360.003" x2="73.7979" y2="432.178" gradientUnits="userSpaceOnUse">
<stop stop-color="#F5FBFF"/>
<stop offset="1" stop-color="#DBD5EF"/>
</linearGradient>
<linearGradient id="paint14_linear_2517_13518" x1="53.04" y1="404.552" x2="49.838" y2="418.521" gradientUnits="userSpaceOnUse">
<stop stop-color="#DBD5EF" stop-opacity="0"/>
<stop offset="0.2853" stop-color="#D9D2EE" stop-opacity="0.285"/>
<stop offset="0.4739" stop-color="#D4C9E9" stop-opacity="0.474"/>
<stop offset="0.6346" stop-color="#CBBAE2" stop-opacity="0.635"/>
<stop offset="0.7795" stop-color="#BFA5D7" stop-opacity="0.78"/>
<stop offset="0.9126" stop-color="#AF8ACA" stop-opacity="0.913"/>
<stop offset="1" stop-color="#A274BF"/>
</linearGradient>
<linearGradient id="paint15_linear_2517_13518" x1="80.2459" y1="401.164" x2="91.1549" y2="401.164" gradientUnits="userSpaceOnUse">
<stop stop-color="#DBD5EF" stop-opacity="0"/>
<stop offset="0.2853" stop-color="#D9D2EE" stop-opacity="0.285"/>
<stop offset="0.4739" stop-color="#D4C9E9" stop-opacity="0.474"/>
<stop offset="0.6346" stop-color="#CBBAE2" stop-opacity="0.635"/>
<stop offset="0.7795" stop-color="#BFA5D7" stop-opacity="0.78"/>
<stop offset="0.9126" stop-color="#AF8ACA" stop-opacity="0.913"/>
<stop offset="1" stop-color="#A274BF"/>
</linearGradient>
<linearGradient id="paint16_linear_2517_13518" x1="212.23" y1="386.152" x2="234.31" y2="430.716" gradientUnits="userSpaceOnUse">
<stop stop-color="#5A5A5A"/>
<stop offset="1" stop-color="#444444"/>
</linearGradient>
<linearGradient id="paint17_linear_2517_13518" x1="196.14" y1="394.125" x2="218.221" y2="438.688" gradientUnits="userSpaceOnUse">
<stop stop-color="#5A5A5A"/>
<stop offset="1" stop-color="#444444"/>
</linearGradient>
<linearGradient id="paint18_linear_2517_13518" x1="192.115" y1="249.352" x2="489.604" y2="487.825" gradientUnits="userSpaceOnUse">
<stop stop-color="#FEA613"/>
<stop offset="1" stop-color="#C4573A"/>
</linearGradient>
<linearGradient id="paint19_linear_2517_13518" x1="458.839" y1="381.369" x2="516.7" y2="381.369" gradientUnits="userSpaceOnUse">
<stop stop-color="#C4573A" stop-opacity="0"/>
<stop offset="0.235" stop-color="#BE5539" stop-opacity="0.235"/>
<stop offset="0.539" stop-color="#AE4E35" stop-opacity="0.539"/>
<stop offset="0.8794" stop-color="#934330" stop-opacity="0.879"/>
<stop offset="1" stop-color="#883F2E"/>
</linearGradient>
<linearGradient id="paint20_linear_2517_13518" x1="243.135" y1="350.138" x2="365.081" y2="500.99" gradientUnits="userSpaceOnUse">
<stop stop-color="#C4573A" stop-opacity="0"/>
<stop offset="0.235" stop-color="#BE5539" stop-opacity="0.235"/>
<stop offset="0.539" stop-color="#AE4E35" stop-opacity="0.539"/>
<stop offset="0.8794" stop-color="#934330" stop-opacity="0.879"/>
<stop offset="1" stop-color="#883F2E"/>
</linearGradient>
<linearGradient id="paint21_linear_2517_13518" x1="261.728" y1="401.718" x2="231.788" y2="203.896" gradientUnits="userSpaceOnUse">
<stop stop-color="#C4573A" stop-opacity="0"/>
<stop offset="0.235" stop-color="#BE5539" stop-opacity="0.235"/>
<stop offset="0.539" stop-color="#AE4E35" stop-opacity="0.539"/>
<stop offset="0.8794" stop-color="#934330" stop-opacity="0.879"/>
<stop offset="1" stop-color="#883F2E"/>
</linearGradient>
<linearGradient id="paint22_linear_2517_13518" x1="252.292" y1="455.717" x2="245.065" y2="493.054" gradientUnits="userSpaceOnUse">
<stop stop-color="#C4573A" stop-opacity="0"/>
<stop offset="0.235" stop-color="#BE5539" stop-opacity="0.235"/>
<stop offset="0.539" stop-color="#AE4E35" stop-opacity="0.539"/>
<stop offset="0.8794" stop-color="#934330" stop-opacity="0.879"/>
<stop offset="1" stop-color="#883F2E"/>
</linearGradient>
<linearGradient id="paint23_linear_2517_13518" x1="430.375" y1="455.717" x2="437.602" y2="493.054" gradientUnits="userSpaceOnUse">
<stop stop-color="#C4573A" stop-opacity="0"/>
<stop offset="0.235" stop-color="#BE5539" stop-opacity="0.235"/>
<stop offset="0.539" stop-color="#AE4E35" stop-opacity="0.539"/>
<stop offset="0.8794" stop-color="#934330" stop-opacity="0.879"/>
<stop offset="1" stop-color="#883F2E"/>
</linearGradient>
<linearGradient id="paint24_linear_2517_13518" x1="340.198" y1="252.63" x2="344.714" y2="312.85" gradientUnits="userSpaceOnUse">
<stop stop-color="#FEA613"/>
<stop offset="1" stop-color="#C4573A"/>
</linearGradient>
<linearGradient id="paint25_linear_2517_13518" x1="354.003" y1="306.167" x2="338.32" y2="258.642" gradientUnits="userSpaceOnUse">
<stop stop-color="#C4573A" stop-opacity="0"/>
<stop offset="0.235" stop-color="#BE5539" stop-opacity="0.235"/>
<stop offset="0.539" stop-color="#AE4E35" stop-opacity="0.539"/>
<stop offset="0.8794" stop-color="#934330" stop-opacity="0.879"/>
<stop offset="1" stop-color="#883F2E"/>
</linearGradient>
<linearGradient id="paint26_linear_2517_13518" x1="289.479" y1="255.743" x2="292.791" y2="269.594" gradientUnits="userSpaceOnUse">
<stop stop-color="#C4573A" stop-opacity="0"/>
<stop offset="0.235" stop-color="#BE5539" stop-opacity="0.235"/>
<stop offset="0.539" stop-color="#AE4E35" stop-opacity="0.539"/>
<stop offset="0.8794" stop-color="#934330" stop-opacity="0.879"/>
<stop offset="1" stop-color="#883F2E"/>
</linearGradient>
<linearGradient id="paint27_linear_2517_13518" x1="311.417" y1="241.959" x2="334.903" y2="299.168" gradientUnits="userSpaceOnUse">
<stop stop-color="#FEF0AE"/>
<stop offset="1" stop-color="#FAC600"/>
</linearGradient>
<linearGradient id="paint28_linear_2517_13518" x1="337.143" y1="282.715" x2="332.39" y2="262.517" gradientUnits="userSpaceOnUse">
<stop stop-color="#FE9738" stop-opacity="0"/>
<stop offset="1" stop-color="#FE9738"/>
</linearGradient>
<linearGradient id="paint29_linear_2517_13518" x1="272.6" y1="276.793" x2="272.6" y2="289.977" gradientUnits="userSpaceOnUse">
<stop stop-color="#FE9738" stop-opacity="0"/>
<stop offset="1" stop-color="#FE9738"/>
</linearGradient>
<linearGradient id="paint30_linear_2517_13518" x1="254.39" y1="313.359" x2="263.503" y2="313.359" gradientUnits="userSpaceOnUse">
<stop stop-color="#FE9738" stop-opacity="0"/>
<stop offset="1" stop-color="#FE9738"/>
</linearGradient>
<linearGradient id="paint31_linear_2517_13518" x1="245.928" y1="332.881" x2="244.121" y2="343.119" gradientUnits="userSpaceOnUse">
<stop stop-color="#FE9738" stop-opacity="0"/>
<stop offset="1" stop-color="#FE9738"/>
</linearGradient>
<linearGradient id="paint32_linear_2517_13518" x1="202.556" y1="400.245" x2="244.464" y2="472.421" gradientUnits="userSpaceOnUse">
<stop stop-color="#F5FBFF"/>
<stop offset="1" stop-color="#DBD5EF"/>
</linearGradient>
<linearGradient id="paint33_linear_2517_13518" x1="223.706" y1="444.794" x2="220.505" y2="458.764" gradientUnits="userSpaceOnUse">
<stop stop-color="#DBD5EF" stop-opacity="0"/>
<stop offset="0.2853" stop-color="#D9D2EE" stop-opacity="0.285"/>
<stop offset="0.4739" stop-color="#D4C9E9" stop-opacity="0.474"/>
<stop offset="0.6346" stop-color="#CBBAE2" stop-opacity="0.635"/>
<stop offset="0.7795" stop-color="#BFA5D7" stop-opacity="0.78"/>
<stop offset="0.9126" stop-color="#AF8ACA" stop-opacity="0.913"/>
<stop offset="1" stop-color="#A274BF"/>
</linearGradient>
<linearGradient id="paint34_linear_2517_13518" x1="250.913" y1="441.407" x2="261.822" y2="441.407" gradientUnits="userSpaceOnUse">
<stop stop-color="#DBD5EF" stop-opacity="0"/>
<stop offset="0.2853" stop-color="#D9D2EE" stop-opacity="0.285"/>
<stop offset="0.4739" stop-color="#D4C9E9" stop-opacity="0.474"/>
<stop offset="0.6346" stop-color="#CBBAE2" stop-opacity="0.635"/>
<stop offset="0.7795" stop-color="#BFA5D7" stop-opacity="0.78"/>
<stop offset="0.9126" stop-color="#AF8ACA" stop-opacity="0.913"/>
<stop offset="1" stop-color="#A274BF"/>
</linearGradient>
<linearGradient id="paint35_linear_2517_13518" x1="382.896" y1="426.395" x2="404.977" y2="470.958" gradientUnits="userSpaceOnUse">
<stop stop-color="#5A5A5A"/>
<stop offset="1" stop-color="#444444"/>
</linearGradient>
<linearGradient id="paint36_linear_2517_13518" x1="366.807" y1="434.367" x2="388.888" y2="478.93" gradientUnits="userSpaceOnUse">
<stop stop-color="#5A5A5A"/>
<stop offset="1" stop-color="#444444"/>
</linearGradient>
<linearGradient id="paint37_linear_2517_13518" x1="101.779" y1="23.5" x2="399.268" y2="261.973" gradientUnits="userSpaceOnUse">
<stop stop-color="#FEA613"/>
<stop offset="1" stop-color="#C4573A"/>
</linearGradient>
<linearGradient id="paint38_linear_2517_13518" x1="368.502" y1="155.517" x2="426.364" y2="155.517" gradientUnits="userSpaceOnUse">
<stop stop-color="#C4573A" stop-opacity="0"/>
<stop offset="0.235" stop-color="#BE5539" stop-opacity="0.235"/>
<stop offset="0.539" stop-color="#AE4E35" stop-opacity="0.539"/>
<stop offset="0.8794" stop-color="#934330" stop-opacity="0.879"/>
<stop offset="1" stop-color="#883F2E"/>
</linearGradient>
<linearGradient id="paint39_linear_2517_13518" x1="152.799" y1="124.286" x2="274.745" y2="275.138" gradientUnits="userSpaceOnUse">
<stop stop-color="#C4573A" stop-opacity="0"/>
<stop offset="0.235" stop-color="#BE5539" stop-opacity="0.235"/>
<stop offset="0.539" stop-color="#AE4E35" stop-opacity="0.539"/>
<stop offset="0.8794" stop-color="#934330" stop-opacity="0.879"/>
<stop offset="1" stop-color="#883F2E"/>
</linearGradient>
<linearGradient id="paint40_linear_2517_13518" x1="161.956" y1="229.865" x2="154.729" y2="267.202" gradientUnits="userSpaceOnUse">
<stop stop-color="#C4573A" stop-opacity="0"/>
<stop offset="0.235" stop-color="#BE5539" stop-opacity="0.235"/>
<stop offset="0.539" stop-color="#AE4E35" stop-opacity="0.539"/>
<stop offset="0.8794" stop-color="#934330" stop-opacity="0.879"/>
<stop offset="1" stop-color="#883F2E"/>
</linearGradient>
<linearGradient id="paint41_linear_2517_13518" x1="340.039" y1="229.865" x2="347.265" y2="267.202" gradientUnits="userSpaceOnUse">
<stop stop-color="#C4573A" stop-opacity="0"/>
<stop offset="0.235" stop-color="#BE5539" stop-opacity="0.235"/>
<stop offset="0.539" stop-color="#AE4E35" stop-opacity="0.539"/>
<stop offset="0.8794" stop-color="#934330" stop-opacity="0.879"/>
<stop offset="1" stop-color="#883F2E"/>
</linearGradient>
<linearGradient id="paint42_linear_2517_13518" x1="249.861" y1="26.7781" x2="254.378" y2="86.9981" gradientUnits="userSpaceOnUse">
<stop stop-color="#FEA613"/>
<stop offset="1" stop-color="#C4573A"/>
</linearGradient>
<linearGradient id="paint43_linear_2517_13518" x1="199.143" y1="29.8911" x2="202.455" y2="43.7411" gradientUnits="userSpaceOnUse">
<stop stop-color="#C4573A" stop-opacity="0"/>
<stop offset="0.235" stop-color="#BE5539" stop-opacity="0.235"/>
<stop offset="0.539" stop-color="#AE4E35" stop-opacity="0.539"/>
<stop offset="0.8794" stop-color="#934330" stop-opacity="0.879"/>
<stop offset="1" stop-color="#883F2E"/>
</linearGradient>
<linearGradient id="paint44_linear_2517_13518" x1="221.081" y1="16.1071" x2="244.567" y2="73.3161" gradientUnits="userSpaceOnUse">
<stop stop-color="#FEF0AE"/>
<stop offset="1" stop-color="#FAC600"/>
</linearGradient>
<linearGradient id="paint45_linear_2517_13518" x1="182.264" y1="50.941" x2="182.264" y2="64.125" gradientUnits="userSpaceOnUse">
<stop stop-color="#FE9738" stop-opacity="0"/>
<stop offset="1" stop-color="#FE9738"/>
</linearGradient>
<linearGradient id="paint46_linear_2517_13518" x1="164.054" y1="87.5061" x2="173.167" y2="87.5061" gradientUnits="userSpaceOnUse">
<stop stop-color="#FE9738" stop-opacity="0"/>
<stop offset="1" stop-color="#FE9738"/>
</linearGradient>
<linearGradient id="paint47_linear_2517_13518" x1="155.592" y1="107.029" x2="153.785" y2="117.266" gradientUnits="userSpaceOnUse">
<stop stop-color="#FE9738" stop-opacity="0"/>
<stop offset="1" stop-color="#FE9738"/>
</linearGradient>
<linearGradient id="paint48_linear_2517_13518" x1="112.22" y1="174.393" x2="154.128" y2="246.569" gradientUnits="userSpaceOnUse">
<stop stop-color="#F5FBFF"/>
<stop offset="1" stop-color="#DBD5EF"/>
</linearGradient>
<linearGradient id="paint49_linear_2517_13518" x1="133.37" y1="218.942" x2="130.169" y2="232.912" gradientUnits="userSpaceOnUse">
<stop stop-color="#DBD5EF" stop-opacity="0"/>
<stop offset="0.2853" stop-color="#D9D2EE" stop-opacity="0.285"/>
<stop offset="0.4739" stop-color="#D4C9E9" stop-opacity="0.474"/>
<stop offset="0.6346" stop-color="#CBBAE2" stop-opacity="0.635"/>
<stop offset="0.7795" stop-color="#BFA5D7" stop-opacity="0.78"/>
<stop offset="0.9126" stop-color="#AF8ACA" stop-opacity="0.913"/>
<stop offset="1" stop-color="#A274BF"/>
</linearGradient>
<linearGradient id="paint50_linear_2517_13518" x1="160.577" y1="215.555" x2="171.486" y2="215.555" gradientUnits="userSpaceOnUse">
<stop stop-color="#DBD5EF" stop-opacity="0"/>
<stop offset="0.2853" stop-color="#D9D2EE" stop-opacity="0.285"/>
<stop offset="0.4739" stop-color="#D4C9E9" stop-opacity="0.474"/>
<stop offset="0.6346" stop-color="#CBBAE2" stop-opacity="0.635"/>
<stop offset="0.7795" stop-color="#BFA5D7" stop-opacity="0.78"/>
<stop offset="0.9126" stop-color="#AF8ACA" stop-opacity="0.913"/>
<stop offset="1" stop-color="#A274BF"/>
</linearGradient>
<linearGradient id="paint51_linear_2517_13518" x1="292.56" y1="200.543" x2="314.641" y2="245.106" gradientUnits="userSpaceOnUse">
<stop stop-color="#5A5A5A"/>
<stop offset="1" stop-color="#444444"/>
</linearGradient>
<linearGradient id="paint52_linear_2517_13518" x1="276.471" y1="208.515" x2="298.552" y2="253.078" gradientUnits="userSpaceOnUse">
<stop stop-color="#5A5A5A"/>
<stop offset="1" stop-color="#444444"/>
</linearGradient>
<clipPath id="clip0_2517_13518">
<rect width="512" height="512" fill="white"/>
</clipPath>
</defs>
</svg>
