<svg width="512" height="512" viewBox="0 0 512 512" fill="none" xmlns="http://www.w3.org/2000/svg">
<path fill-rule="evenodd" clip-rule="evenodd" d="M506 150.2V432.9H93.9V150.2L196.9 80.2L300 10.2L403 80.2L506 150.2Z" fill="#DD6E42"/>
<path fill-rule="evenodd" clip-rule="evenodd" d="M134.9 183.2H465.1V432.8H134.9V183.2Z" fill="#CCCCCB"/>
<path fill-rule="evenodd" clip-rule="evenodd" d="M134.9 183.2H465.1V257.2H134.9V183.2Z" fill="#969696"/>
<path fill-rule="evenodd" clip-rule="evenodd" d="M270.9 356.6H368V432.8H270.9V356.6Z" fill="#E2BC81"/>
<path fill-rule="evenodd" clip-rule="evenodd" d="M309.6 356.6H329.4V414.4H309.6V356.6Z" fill="#E5175E"/>
<path fill-rule="evenodd" clip-rule="evenodd" d="M368 356.6H465.1V432.8H368V356.6Z" fill="#B69867"/>
<path fill-rule="evenodd" clip-rule="evenodd" d="M406.6 356.6H426.4V414.4H406.6V356.6Z" fill="#BA1E4E"/>
<path fill-rule="evenodd" clip-rule="evenodd" d="M368 280.4H465.1V356.6H368V280.4Z" fill="#CBA974"/>
<path fill-rule="evenodd" clip-rule="evenodd" d="M406.6 280.4H426.4V338.2H406.6V280.4Z" fill="#CF1D56"/>
<path fill-rule="evenodd" clip-rule="evenodd" d="M368 204.2H465.1V280.5H368V204.2Z" fill="#E2BC81"/>
<path fill-rule="evenodd" clip-rule="evenodd" d="M406.6 204.2H426.4V262H406.6V204.2Z" fill="#E5175E"/>
<path fill-rule="evenodd" clip-rule="evenodd" d="M270.9 280.4H368V356.6H270.9V280.4Z" fill="#FBD18F"/>
<path fill-rule="evenodd" clip-rule="evenodd" d="M309.6 280.4H329.4V338.2H309.6V280.4Z" fill="#ED1968"/>
<path fill-rule="evenodd" clip-rule="evenodd" d="M300 170.8C322.1 170.8 340.1 152.8 340.1 130.7C340.1 108.6 322 90.5999 300 90.5999C277.9 90.5999 259.9 108.6 259.9 130.7C259.9 152.8 277.9 170.8 300 170.8Z" fill="#80311A"/>
<path fill-rule="evenodd" clip-rule="evenodd" d="M300 153.6C322.1 153.6 340.1 135.6 340.1 113.5C340.1 91.3999 322.1 73.3999 300 73.3999C277.9 73.3999 259.9 91.3999 259.9 113.5C259.9 135.6 277.9 153.6 300 153.6Z" fill="#FDCC9A"/>
<path fill-rule="evenodd" clip-rule="evenodd" d="M71.7 353.5H204.9V458.1H71.7V353.5Z" fill="#FCB13B"/>
<path fill-rule="evenodd" clip-rule="evenodd" d="M71.7 248.9H204.9V353.5H71.7V248.9Z" fill="#FCB13B"/>
<path fill-rule="evenodd" clip-rule="evenodd" d="M71.7 230.9V458H183.1V477H71.7H52.2V458V235.2C52.2 231.4 49.1 228.3 45.3 228.3H6V209.1H47C61 209.1 71.7 215.7 71.7 230.9Z" fill="#B3B4B4"/>
<path fill-rule="evenodd" clip-rule="evenodd" d="M61.8 501.8C79.6 501.8 94.1 487.3 94.1 469.5C94.1 451.7 79.6 437.2 61.8 437.2C44 437.2 29.5 451.7 29.5 469.5C29.4 487.3 44 501.8 61.8 501.8Z" fill="#5E5F5F"/>
<path fill-rule="evenodd" clip-rule="evenodd" d="M61.8 479.5C67.3 479.5 71.8 475 71.8 469.5C71.8 464 67.3 459.5 61.8 459.5C56.3 459.5 51.8 464 51.8 469.5C51.8 475 56.3 479.5 61.8 479.5Z" fill="#E6E6E6"/>
<path fill-rule="evenodd" clip-rule="evenodd" d="M71.7 353.5H204.9V383.8H71.7V353.5Z" fill="#FBD18F"/>
<path fill-rule="evenodd" clip-rule="evenodd" d="M71.7 248.9H204.9V279.2H71.7V248.9Z" fill="#FBD18F"/>
<path fill-rule="evenodd" clip-rule="evenodd" d="M124.7 353.5H151.9V432.8H124.7V353.5Z" fill="#ED1968"/>
<path fill-rule="evenodd" clip-rule="evenodd" d="M124.7 248.9H151.9V328.2H124.7V248.9Z" fill="#ED1968"/>
</svg>
