<svg width="40" height="40" viewBox="0 0 40 40" fill="none" xmlns="http://www.w3.org/2000/svg">
<path d="M36.4969 13.15L34.7469 7.53333C34.3802 6.03333 33.0802 5 31.5636 5H8.41358C6.91358 5 5.59691 6.05 5.24691 7.53333L3.49691 13.15C2.73024 16.4333 4.91358 18.3333 4.99691 18.4333V31.6667C4.99691 33.5 6.49691 35 8.33024 35H31.6636C33.4969 35 34.9969 33.5 34.9969 31.6667V18.4333C36.8636 16.5667 36.8136 14.4167 36.4969 13.15ZM21.6636 8.33333H24.9302L25.8302 14.2C25.9802 15.3833 25.1802 16.6667 23.6969 16.6667C22.5802 16.6667 21.6636 15.6833 21.6636 14.4833V8.33333ZM10.7302 14.7667C10.5969 15.85 9.73024 16.6667 8.71358 16.6667C7.16358 16.6667 6.46358 15.05 6.73024 13.9333L8.41358 8.33333H11.6969L10.7302 14.7667ZM18.3302 14.4833C18.3302 15.6833 17.4136 16.6667 16.1802 16.6667C14.9302 16.6667 14.0136 15.5 14.1469 14.2L15.0636 8.33333H18.3302V14.4833ZM31.2802 16.6667C30.2636 16.6667 29.3802 15.85 29.2636 14.7667L28.2969 8.33333L31.5136 8.31667L33.2636 13.9333C33.5302 15.05 32.8469 16.6667 31.2802 16.6667Z" fill="#192D4E"/>
</svg>
