<svg width="40" height="40" viewBox="0 0 40 40" fill="none" xmlns="http://www.w3.org/2000/svg">
<path d="M37.4021 21.3324L13.1641 34.6718C11.8354 35.4031 10.1653 34.9187 9.43403 33.5899L2.04784 20.1691C1.31655 18.8403 1.8009 17.1703 3.12969 16.439L27.3676 3.0996C28.6964 2.3683 30.3664 2.85266 31.0977 4.18144L38.4839 17.6023C39.2152 18.9311 38.7309 20.6011 37.4021 21.3324Z" fill="#FEBC1F"/>
<path d="M36.8708 20.3705L12.6329 33.7099C11.3041 34.4412 9.63408 33.9568 8.90278 32.628L1.51659 19.2072C0.785296 17.8784 1.26965 16.2084 2.59844 15.4771L26.8364 2.13769C28.1652 1.40639 29.8352 1.89075 30.5665 3.21953L37.9527 16.6404C38.684 17.9692 38.1996 19.6392 36.8708 20.3705Z" fill="#FFD475"/>
<path d="M26.8364 2.13755L2.59844 15.477C1.26965 16.2083 0.785304 17.8783 1.51659 19.2071L8.90278 32.6279C8.90278 32.6279 2.02033 19.4656 29.2868 2.04213C28.5269 1.70067 27.6225 1.7049 26.8364 2.13755Z" fill="#FEBC1F"/>
<path d="M3.68708 20.8531L4.61459 22.5384C4.84839 22.9632 5.3823 23.118 5.80711 22.8842L31.3764 8.81214C31.8012 8.57834 31.9561 8.04443 31.7223 7.61961L30.7948 5.93432C30.561 5.5095 30.0271 5.35465 29.6023 5.58845L4.03295 19.6606C3.60814 19.8944 3.45329 20.4283 3.68708 20.8531Z" fill="#1D2943"/>
<path d="M3.42927 20.3863L4.35678 22.0716C4.59057 22.4964 5.12449 22.6512 5.5493 22.4175L31.1186 8.34534C31.5434 8.11154 31.6983 7.57763 31.4645 7.15282L30.537 5.46752C30.3032 5.04271 29.7693 4.88786 29.3444 5.12165L3.77514 19.1938C3.35032 19.4276 3.19547 19.9615 3.42927 20.3863Z" fill="#4C5C75"/>
<path d="M33.0179 38.2032L5.35175 38.2032C3.83502 38.2032 2.60547 36.9737 2.60547 35.457L2.60547 20.1379C2.60547 18.6212 3.83502 17.3916 5.35174 17.3916L33.0179 17.3916C34.5347 17.3916 35.7642 18.6212 35.7642 20.1379L35.7642 35.457C35.7642 36.9737 34.5347 38.2032 33.0179 38.2032Z" fill="#5094FF"/>
<path d="M5.35174 37.1051L33.0179 37.1051C34.5347 37.1051 35.7642 35.8755 35.7642 34.3588L35.7642 19.0397C35.7642 17.523 34.5347 16.2935 33.0179 16.2935L5.35175 16.2935C3.83502 16.2935 2.60547 17.523 2.60547 19.0397L2.60547 34.3588C2.60547 35.8755 3.83502 37.1051 5.35174 37.1051Z" fill="#57B3FE"/>
<path d="M5.35297 16.2935L33.0192 16.2935C34.5359 16.2935 35.7654 17.5231 35.7654 19.0398V34.3589C35.7654 34.3589 35.4488 19.5092 3.16016 17.3914C3.6613 16.7258 4.45564 16.2935 5.35297 16.2935Z" fill="#5094FF"/>
<path d="M33.6151 32.1762V32.6024H33.6095C33.6206 33.1788 33.1398 33.663 32.5602 33.663L29.7737 33.663C29.2044 33.663 28.7132 33.1877 28.7244 32.6024H28.7188V32.1762H28.7868C28.9513 31.7621 29.3994 31.4785 29.8701 31.4785L32.4637 31.4785C32.9345 31.4785 33.3826 31.7621 33.5471 32.1762H33.6151Z" fill="#E3E7F0"/>
<path d="M32.555 33.2401L29.8615 33.2402C29.3188 33.2402 28.8059 32.8717 28.7298 32.3344C28.637 31.6801 29.143 31.1187 29.7795 31.1187L32.4624 31.1187C33.0379 31.1186 33.5739 31.5363 33.6089 32.1107C33.6478 32.7483 33.1436 33.2401 32.555 33.2401Z" fill="white"/>
<path d="M25.6269 32.1762V32.6024H25.6212C25.6323 33.1788 25.1515 33.663 24.5719 33.663L21.7854 33.663C21.2161 33.663 20.7249 33.1877 20.7361 32.6024H20.7305V32.1762H20.7985C20.963 31.7621 21.4111 31.4785 21.8818 31.4785L24.4754 31.4785C24.9462 31.4785 25.3943 31.7621 25.5588 32.1762H25.6269Z" fill="#E3E7F0"/>
<path d="M24.5706 33.2401L21.8771 33.2402C21.3344 33.2402 20.8216 32.8717 20.7454 32.3344C20.6526 31.6801 21.1587 31.1187 21.7951 31.1187L24.4781 31.1187C25.0536 31.1186 25.5895 31.5363 25.6245 32.1107C25.6634 32.7483 25.1593 33.2401 24.5706 33.2401Z" fill="white"/>
<path d="M17.6386 32.1762V32.6024H17.6329C17.644 33.1788 17.1632 33.663 16.5836 33.663H13.7972C13.2278 33.663 12.7366 33.1877 12.7479 32.6024H12.7422V32.1762H12.8102C12.9748 31.7621 13.4229 31.4785 13.8935 31.4785H16.4872C16.9579 31.4785 17.406 31.7621 17.5705 32.1762H17.6386Z" fill="#E3E7F0"/>
<path d="M16.5785 33.2401L13.8849 33.2402C13.3422 33.2402 12.8294 32.8717 12.7532 32.3344C12.6604 31.6801 13.1665 31.1187 13.8029 31.1187L16.4859 31.1187C17.0614 31.1186 17.5973 31.5363 17.6324 32.1107C17.6713 32.7483 17.1671 33.2401 16.5785 33.2401Z" fill="white"/>
<path d="M9.65421 32.1762V32.6024H9.64853C9.65963 33.1788 9.17883 33.663 8.59923 33.663L5.81279 33.663C5.24347 33.663 4.75222 33.1877 4.76349 32.6024H4.75781V32.1762H4.82587C4.99038 31.7621 5.43849 31.4785 5.90917 31.4785L8.50278 31.4785C8.97353 31.4785 9.42164 31.7621 9.58614 32.1762H9.65421Z" fill="#E3E7F0"/>
<path d="M8.59408 33.2401L5.90054 33.2402C5.35784 33.2402 4.845 32.8717 4.76882 32.3344C4.67605 31.6801 5.1821 31.1187 5.81855 31.1187L8.50151 31.1187C9.077 31.1186 9.61294 31.5363 9.64798 32.1107C9.68688 32.7483 9.1827 33.2401 8.59408 33.2401Z" fill="white"/>
<path d="M4.75781 21.1325L4.75781 23.6951C4.75781 24.3411 5.28147 24.8647 5.92743 24.8647L10.7258 24.8647C11.3718 24.8647 11.8955 24.3411 11.8955 23.6951L11.8955 21.1325C11.8955 20.4865 11.3718 19.9629 10.7258 19.9629L5.92743 19.9629C5.28147 19.9629 4.75781 20.4866 4.75781 21.1325Z" fill="#FEBC1F"/>
<path d="M4.75781 20.7331L4.75781 23.2957C4.75781 23.9417 5.28147 24.4653 5.92743 24.4653L10.7258 24.4653C11.3718 24.4653 11.8955 23.9417 11.8955 23.2957V20.7331C11.8955 20.0871 11.3718 19.5635 10.7258 19.5635L5.92743 19.5635C5.28147 19.5635 4.75781 20.0871 4.75781 20.7331Z" fill="#FFD475"/>
<path d="M8.20233 21.7379V19.5635H7.64678V21.7379H4.75781V22.2935H6.33837V24.4653H6.89392V22.2935H9.39538V24.4653H9.95091V22.2935H11.8955V21.7379H8.20233Z" fill="#FEBC1F"/>
<path d="M33.1024 23.6565L29.9746 23.6565C29.7139 23.6565 29.4677 23.4796 29.4311 23.2215C29.3865 22.9073 29.6295 22.6377 29.9352 22.6377L33.0579 22.6377C33.3343 22.6377 33.5917 22.8382 33.6085 23.1141C33.6272 23.4203 33.3851 23.6565 33.1024 23.6565Z" fill="white"/>
<path d="M33.1027 21.4759L27.6113 21.4759C27.3507 21.4759 27.1044 21.2989 27.0678 21.0409C27.0232 20.7267 27.2663 20.4571 27.5719 20.4571L33.0582 20.457C33.3346 20.457 33.592 20.6576 33.6088 20.9334C33.6275 21.2397 33.3853 21.4758 33.1027 21.4759Z" fill="white"/>
<path d="M32.2695 9.6001C33.5769 11.2778 34.6455 13.101 35.4642 15.0643C34.1548 13.3879 33.0902 11.5623 32.2695 9.6001Z" fill="white"/>
<path d="M7.90625 15.0635C9.81148 13.6057 11.8633 12.3859 14.0573 11.415C12.1532 12.8749 10.0991 14.0906 7.90625 15.0635Z" fill="white"/>
<path d="M23.6406 35.7264C26.0229 35.4446 28.4098 35.4422 30.792 35.7264C28.4098 36.0106 26.0229 36.0083 23.6406 35.7264Z" fill="white"/>
</svg>
