<svg width="40" height="40" viewBox="0 0 40 40" fill="none" xmlns="http://www.w3.org/2000/svg">
<path d="M20 38.75C30.3553 38.75 38.75 30.3553 38.75 20C38.75 9.64466 30.3553 1.25 20 1.25C9.64466 1.25 1.25 9.64466 1.25 20C1.25 30.3553 9.64466 38.75 20 38.75Z" fill="#0CB0FF"/>
<path fill-rule="evenodd" clip-rule="evenodd" d="M25.8767 37.8095C33.3518 35.3442 38.7478 28.3053 38.7498 20.0049L31.1972 12.4522C31.1515 12.3964 31.1024 12.3424 31.0502 12.2905C30.2143 11.4592 28.8627 11.4629 28.0313 12.2988L17.2777 23.1598L11.9745 17.8567C11.1395 17.0217 9.7832 17.0207 8.94727 17.8567C8.11133 18.6926 8.11133 20.048 8.94727 20.8839L15.7674 27.704C19.1364 31.0731 22.5076 34.4403 25.8767 37.8095Z" fill="#0092D8"/>
<path fill-rule="evenodd" clip-rule="evenodd" d="M8.94722 17.8567C9.78315 17.0207 11.1385 17.0207 11.9745 17.8567L17.2776 23.1598L28.0313 12.2988C28.8626 11.4629 30.2142 11.4592 31.0502 12.2905C31.8861 13.1218 31.8899 14.4735 31.0585 15.3094C26.9712 19.4376 22.9014 23.5973 18.7946 27.7041C17.9586 28.54 16.6032 28.54 15.7673 27.7041L8.94714 20.884C8.11136 20.048 8.11136 18.6925 8.94722 17.8567Z" fill="white"/>
</svg>
