<svg width="40" height="40" viewBox="0 0 40 40" fill="none" xmlns="http://www.w3.org/2000/svg">
<g clip-path="url(#clip0_947_15608)">
<path fillRule="evenodd" clip-rule="evenodd" d="M12.5434 6.045C11.7062 6.045 11.0195 6.73164 11.0195 7.57117V8.94453C11.0195 9.78406 11.7062 10.4684 12.5434 10.4684H14.0696C15.9494 8.33539 15.0551 6.64719 13.9624 6.04492L12.5434 6.045Z" fill="#9FD4FE"/>
<path fillRule="evenodd" clip-rule="evenodd" d="M26.996 10.4684H27.9345L28.5216 10.6775C28.5216 10.6775 28.9173 10.5232 29.1415 10.3785C29.7291 10.1663 30.151 9.60172 30.151 8.94438V7.57109C30.151 6.73156 29.4666 6.04492 28.6271 6.04492H27.1009C25.9215 6.58328 25.7321 9.54219 26.996 10.4684Z" fill="#9FD4FE"/>
<path fillRule="evenodd" clip-rule="evenodd" d="M11.0196 8.94412C11.0196 9.78365 11.7063 10.468 12.5435 10.468H14.0697C14.4005 10.0939 14.6445 9.73115 14.818 9.3867H13.9647H12.5434C11.7062 9.3867 11.0195 8.70006 11.0195 7.86279L11.0196 8.94412Z" fill="#85BEEF"/>
<path fillRule="evenodd" clip-rule="evenodd" d="M27.0973 9.3867H26.2852C26.4243 9.83615 26.6593 10.224 26.9923 10.468H28.5345H28.6234C29.463 10.468 30.1473 9.78139 30.1473 8.94412V7.86279C30.1473 8.70006 29.463 9.3867 28.6234 9.3867H28.5345H27.0973Z" fill="#85BEEF"/>
<path fillRule="evenodd" clip-rule="evenodd" d="M22.2049 15.2041C21.6004 15.43 21.0666 15.5418 20.535 15.5418C20.0012 15.5418 19.4673 15.43 18.8628 15.2041C18.3108 14.9988 17.777 14.7137 17.2773 14.3691V18.236L20.1016 20.5652H20.9662L22.2482 19.509L22.9326 18.9455L23.7903 18.236V14.3691C23.293 14.7136 22.7593 14.9988 22.2049 15.2041Z" fill="#F5A96C"/>
<path fillRule="evenodd" clip-rule="evenodd" d="M20.535 15.5419C20.0012 15.5419 19.4673 15.4301 18.8628 15.2042C18.3108 14.9989 17.777 14.7137 17.2773 14.3692V16.3038C17.948 17.0543 20.5578 18.049 22.2414 17.182V19.4656L23.7904 17.3827V15.2223V14.3691C23.293 14.7136 22.7593 14.9988 22.2049 15.2041C21.6004 15.4302 21.0666 15.5419 20.535 15.5419Z" fill="#EA9A58"/>
<path fillRule="evenodd" clip-rule="evenodd" d="M19.1051 29.7502L20.5355 23.8096L15.211 18.0493C14.246 18.4121 13.2195 18.8752 12.266 19.4478C10.6668 20.4105 9.27291 21.688 8.72775 23.3306C8.56806 23.8074 8.48134 24.3161 8.48134 24.8567V29.0088C8.44712 29.5996 8.58853 29.7502 9.16798 29.7502H16.4657H19.1051Z" fill="#375E7D"/>
<path fillRule="evenodd" clip-rule="evenodd" d="M32.5832 24.8568C32.5832 21.3459 28.908 19.1968 25.8534 18.0493L20.5312 23.8096L22.1099 29.7502H31.8966C32.4783 29.7502 32.6174 29.5996 32.5832 29.0088V24.8568Z" fill="#375E7D"/>
<path fillRule="evenodd" clip-rule="evenodd" d="M22.9459 29.7502L21.8715 23.8096L20.5346 23.0864L19.1955 23.8096L18.1211 29.7502H20.5346H22.9459Z" fill="#EB5468"/>
<path fillRule="evenodd" clip-rule="evenodd" d="M20.5343 23.0864L19.1952 23.8096L19.0195 24.7883H20.6406C20.7573 24.7883 20.8574 24.8718 20.8782 24.9867L21.7411 29.7502H22.9456L21.8712 23.8096L20.5343 23.0864Z" fill="#E5384F"/>
<path fillRule="evenodd" clip-rule="evenodd" d="M22.9868 21.4367L22.2477 20.4425L20.5344 20.0679L18.8727 20.3419L18.082 21.4367L19.1953 23.8093H20.5344H21.8713L22.9868 21.4367Z" fill="#EB5468"/>
<path fillRule="evenodd" clip-rule="evenodd" d="M20.5344 20.0679H18.8727L18.082 21.4367L18.6204 22.5842L19.5146 22.0846L20.4166 21.5822C20.4898 21.5414 20.5789 21.5415 20.652 21.5824L21.6796 22.1576L22.4461 22.5842L22.9867 21.4367L22.3938 20.3822L20.5344 20.0679Z" fill="#E5384F"/>
<path fillRule="evenodd" clip-rule="evenodd" d="M20.5354 20.068L17.2777 17.3828C16.6687 17.547 15.9569 17.7684 15.2109 18.049L17.0974 21.6995C17.1599 21.8204 17.31 21.8658 17.4291 21.7997L18.083 21.4367L20.5354 20.068Z" fill="#EFF6FF"/>
<path fillRule="evenodd" clip-rule="evenodd" d="M25.8534 18.049C25.1075 17.7684 24.398 17.5471 23.7866 17.3828L20.5312 20.068L22.9836 21.4368L23.6374 21.7997C23.7565 21.8658 23.9066 21.8203 23.9691 21.6993L25.8534 18.049Z" fill="#EFF6FF"/>
<path fillRule="evenodd" clip-rule="evenodd" d="M25.855 18.049C25.1091 17.7684 24.3995 17.5471 23.7882 17.3828L22.9305 18.09L22.2461 18.6535C22.8917 18.8588 23.5943 19.1144 24.3061 19.4223C24.5342 19.5205 24.7601 19.6254 24.9859 19.7326L25.855 18.049Z" fill="#D9EEFF"/>
<path fillRule="evenodd" clip-rule="evenodd" d="M32.5833 24.8568C32.5833 21.3459 28.9081 19.1968 25.8535 18.0493L24.9844 19.7329C28.039 20.8804 30.0739 23.0294 30.0739 26.5404V29.7503H31.8966C32.4784 29.7503 32.6175 29.5997 32.5833 29.0088V24.8568Z" fill="#2B4D66"/>
<path fillRule="evenodd" clip-rule="evenodd" d="M27.098 9.54229V7.85182C26.1878 5.7758 16.6179 0.784242 13.9648 8.33315V9.54229C13.9648 11.8989 16.1799 14.8555 18.8878 15.8592C19.4809 16.0805 20.0056 16.19 20.5326 16.19C21.0573 16.19 21.582 16.0805 22.1773 15.8592C24.8829 14.8555 27.098 11.8989 27.098 9.54229Z" fill="#FFBC85"/>
<path fillRule="evenodd" clip-rule="evenodd" d="M27.0996 5.49494C27.0996 0.674476 19.3387 -1.72998 16.9092 1.42502C13.736 1.70565 13.9686 5.92838 13.9686 6.48502L13.9663 7.85159V8.33291C16.2088 6.66752 15.4651 7.08502 17.0665 6.09494C19.5121 4.58471 21.5903 7.85159 25.4684 7.85159H27.0995L27.0996 5.49494Z" fill="#375E7D"/>
<path fillRule="evenodd" clip-rule="evenodd" d="M23.7388 15.038C24.998 14.1665 26.0337 12.9118 26.6087 11.6251C26.9235 10.9224 27.0991 10.2083 27.0991 9.54225V7.85179C26.4376 7.286 25.7167 7.03054 25.0027 7.83585V9.54225C25.0027 11.4266 23.5883 13.6943 21.6355 15.0426C21.1473 15.3802 20.6249 15.6585 20.082 15.8593C19.8745 15.9369 19.6783 15.9984 19.4844 16.0487C19.8471 16.1444 20.1893 16.1901 20.5337 16.1901C21.0584 16.1901 21.5831 16.0805 22.1785 15.8593C22.7213 15.6585 23.2484 15.3756 23.7388 15.038Z" fill="#F5A96C"/>
<path fillRule="evenodd" clip-rule="evenodd" d="M25.0036 7.83589C25.1564 7.8473 25.3116 7.85183 25.469 7.85183H27.1001V5.49519C27.1001 1.7994 22.5398 -0.475048 19.3164 0.0862021C22.1178 0.515108 25.0036 2.5569 25.0036 5.49519V7.83589Z" fill="#2B4D66"/>
<path fillRule="evenodd" clip-rule="evenodd" d="M2.01211 28.0913H37.9854C39.0918 28.0913 39.9975 28.997 39.9975 30.1034V37.9877C39.9975 39.0941 39.0919 39.9998 37.9854 39.9998H2.01211C0.905703 39.9998 0 39.0941 0 37.9877V30.1034C7.8125e-05 28.997 0.905703 28.0913 2.01211 28.0913Z" fill="#9FD4FE"/>
<path fillRule="evenodd" clip-rule="evenodd" d="M39.9977 37.9877V30.1034C39.9977 28.997 39.092 28.0913 37.9855 28.0913H34.9766C36.083 28.0913 36.9887 28.997 36.9887 30.1034V31.5977V37.9877C36.9887 39.0941 36.083 39.9998 34.9766 39.9998H37.9855C39.092 39.9998 39.9977 39.0941 39.9977 37.9877Z" fill="#85BEEF"/>
<path d="M4.19714 36.7824C3.45409 36.7824 2.72893 36.471 2.25745 35.9493C2.03386 35.702 2.05307 35.3204 2.30042 35.0968C2.54768 34.8733 2.9294 34.8925 3.15292 35.1398C3.3994 35.4124 3.78971 35.5751 4.19706 35.5751C4.57073 35.5751 4.84198 35.3515 4.87886 35.1442C4.928 34.8692 4.49425 34.6866 4.36018 34.6372C3.69362 34.391 3.10143 34.1264 3.07659 34.1152C3.04784 34.1023 3.02018 34.0872 2.99386 34.0701C2.51901 33.7608 2.27464 33.2183 2.3562 32.6541C2.44276 32.0554 2.88003 31.5689 3.49737 31.3844C4.69995 31.0212 5.69112 31.8375 5.73276 31.8724C5.98807 32.0868 6.0212 32.4675 5.80682 32.7228C5.59346 32.9769 5.21534 33.011 4.96003 32.7999C4.94409 32.7872 4.41143 32.3689 3.84479 32.5406C3.60659 32.6117 3.56011 32.7643 3.55104 32.8267C3.54362 32.8778 3.54495 32.9688 3.62487 33.0375C3.78331 33.107 4.26354 33.3143 4.77815 33.5045C5.89854 33.9174 6.17886 34.7318 6.06745 35.3561C5.92011 36.1826 5.13346 36.7824 4.19714 36.7824Z" fill="#2B4D66"/>
<path d="M9.30813 36.7826C8.89898 36.7826 8.52336 36.6742 8.1918 36.4604C7.56297 36.0615 7.24219 35.5162 7.24219 34.8421V31.8946C7.24219 31.5612 7.51242 31.291 7.84578 31.291C8.17922 31.291 8.44938 31.5612 8.44938 31.8946V34.8421C8.44938 35.0595 8.51508 35.2359 8.84211 35.4434C8.98109 35.533 9.13227 35.5753 9.30805 35.5753C9.47164 35.5753 9.61375 35.5436 9.74273 35.4784C10.1627 35.2665 10.2192 35.0367 10.2192 34.8398V31.8946C10.2192 31.5612 10.4895 31.291 10.8228 31.291C11.1562 31.291 11.4264 31.5612 11.4264 31.8946V34.8398C11.4264 35.3604 11.2287 36.0807 10.2871 36.5559C9.99008 36.7062 9.66047 36.7826 9.30813 36.7826Z" fill="#2B4D66"/>
<path d="M37.2935 31.3071H34.9278C34.5944 31.3071 34.3242 31.5774 34.3242 31.9107C34.3242 32.2442 34.5945 32.5143 34.9278 32.5143H35.5013V36.195C35.5013 36.5285 35.7716 36.7986 36.1049 36.7986C36.4383 36.7986 36.7085 36.5284 36.7085 36.195V32.5144H37.2934C37.6269 32.5144 37.897 32.2442 37.897 31.9108C37.8972 31.5774 37.627 31.3071 37.2935 31.3071Z" fill="#2B4D66"/>
<path d="M33.0891 33.008C33.0891 32.0612 32.2902 31.291 31.3083 31.291H30.17C29.8412 31.291 29.5664 31.566 29.5664 31.8946V36.179C29.5664 36.5124 29.8366 36.7826 30.17 36.7826C30.5034 36.7826 30.7736 36.5123 30.7736 36.179V35.1483L32.0324 36.5779C32.1517 36.7134 32.3183 36.7827 32.4857 36.7827C32.6274 36.7827 32.7697 36.733 32.8844 36.632C33.1346 36.4117 33.1588 36.0303 32.9385 35.7802L31.918 34.6212C32.6005 34.3806 33.0891 33.7483 33.0891 33.008ZM31.3084 32.4983C31.6192 32.4983 31.8819 32.7317 31.8819 33.008C31.8819 33.2842 31.6192 33.5177 31.3084 33.5177C31.1834 33.5177 30.98 33.5184 30.7798 33.5192C30.7789 33.3248 30.7774 32.7028 30.7766 32.4983H31.3084Z" fill="#2B4D66"/>
<path d="M19.6756 31.291H18.4825C18.1536 31.291 17.8789 31.566 17.8789 31.8946V36.179C17.8789 36.5124 18.1491 36.7826 18.4825 36.7826C18.8159 36.7826 19.0861 36.5123 19.0861 36.179V34.9182C19.3067 34.9173 19.537 34.9165 19.6755 34.9165C20.6877 34.9165 21.511 34.1034 21.511 33.1038C21.511 32.1041 20.6877 31.291 19.6756 31.291ZM19.6756 33.7093C19.538 33.7093 19.3104 33.7101 19.091 33.711C19.0896 33.4837 19.0884 33.2459 19.0884 33.1038C19.0884 32.9831 19.088 32.7371 19.0875 32.4983H19.6756C20.0162 32.4983 20.3038 32.7755 20.3038 33.1038C20.3038 33.432 20.0162 33.7093 19.6756 33.7093Z" fill="#2B4D66"/>
<path d="M14.8006 31.291H13.6075C13.2786 31.291 13.0039 31.566 13.0039 31.8946V36.179C13.0039 36.5124 13.2741 36.7826 13.6075 36.7826C13.9409 36.7826 14.2111 36.5123 14.2111 36.179V34.9182C14.432 34.9173 14.6623 34.9165 14.8005 34.9165C15.8127 34.9165 16.636 34.1034 16.636 33.1038C16.636 32.1041 15.8127 31.291 14.8006 31.291ZM14.8006 33.7093C14.663 33.7093 14.435 33.7101 14.2152 33.711C14.2142 33.4837 14.2134 33.2459 14.2134 33.1038C14.2134 32.9831 14.213 32.7371 14.2125 32.4983H14.8006C15.1412 32.4983 15.4288 32.7755 15.4288 33.1038C15.4288 33.432 15.1412 33.7093 14.8006 33.7093Z" fill="#2B4D66"/>
<path d="M25.3317 36.7827C23.8177 36.7827 22.5859 35.5509 22.5859 34.0369C22.5859 32.5228 23.8177 31.291 25.3317 31.291C26.8457 31.291 28.0774 32.5228 28.0774 34.0369C28.0773 35.5509 26.8457 36.7827 25.3317 36.7827ZM25.3317 32.4983C24.4834 32.4983 23.7932 33.1885 23.7932 34.0369C23.7932 34.8852 24.4834 35.5754 25.3317 35.5754C26.18 35.5754 26.8702 34.8852 26.8702 34.0369C26.8702 33.1885 26.18 32.4983 25.3317 32.4983Z" fill="#2B4D66"/>
<path d="M29.1399 10.3789V12.3323C29.1399 13.76 27.9785 14.923 26.5516 14.923H20.9669C20.6337 14.923 20.3633 14.6526 20.3633 14.3194C20.3633 13.9854 20.6337 13.7158 20.9669 13.7158H26.5516C27.3129 13.7158 27.9327 13.0945 27.9327 12.3323V10.4683H28.6256C28.8059 10.4683 28.979 10.4369 29.1399 10.3789Z" fill="#375E7D"/>
</g>
<defs>
<clipPath id="clip0_947_15608">
<rect width="40" height="40" fill="white"/>
</clipPath>
</defs>
</svg>
