<svg width="153" height="8" viewBox="0 0 153 8" fill="none" xmlns="http://www.w3.org/2000/svg">
<path d="M152.354 4.35357C152.549 4.1583 152.549 3.84172 152.354 3.64646L149.172 0.464479C148.976 0.269217 148.66 0.269217 148.464 0.464479C148.269 0.659741 148.269 0.976324 148.464 1.17159L151.293 4.00001L148.464 6.82844C148.269 7.0237 148.269 7.34028 148.464 7.53555C148.66 7.73081 148.976 7.73081 149.172 7.53555L152.354 4.35357ZM0 4L-4.37114e-08 4.5L1 4.5L1 4L1 3.5L4.37114e-08 3.5L0 4ZM3 4L3 4.5L5 4.5L5 4L5 3.5L3 3.5L3 4ZM7 4L7 4.5L9 4.5L9 4L9 3.5L7 3.5L7 4ZM11 4L11 4.5L13 4.5L13 4L13 3.5L11 3.5L11 4ZM15 4L15 4.5L17 4.5L17 4L17 3.5L15 3.5L15 4ZM19 4L19 4.5L21 4.5L21 4L21 3.5L19 3.5L19 4ZM23 4L23 4.5L25 4.5L25 4L25 3.5L23 3.5L23 4ZM27 4L27 4.5L29 4.5L29 4L29 3.5L27 3.5L27 4ZM31 4L31 4.5L33 4.5L33 4L33 3.5L31 3.5L31 4ZM35 4L35 4.5L37 4.5L37 4L37 3.5L35 3.5L35 4ZM39 4L39 4.5L41 4.5L41 4L41 3.5L39 3.5L39 4ZM43 4L43 4.5L45 4.5L45 4L45 3.5L43 3.5L43 4ZM47 4L47 4.5L49 4.5L49 4L49 3.5L47 3.5L47 4ZM51 4L51 4.5L53 4.5L53 4L53 3.5L51 3.5L51 4ZM55 4L55 4.5L57 4.5L57 4L57 3.5L55 3.5L55 4ZM59 4.00001L59 4.50001L61 4.50001L61 4.00001L61 3.50001L59 3.50001L59 4.00001ZM63 4.00001L63 4.50001L65 4.50001L65 4.00001L65 3.50001L63 3.50001L63 4.00001ZM67 4.00001L67 4.50001L69 4.50001L69 4.00001L69 3.50001L67 3.50001L67 4.00001ZM71 4.00001L71 4.50001L73 4.50001L73 4.00001L73 3.50001L71 3.50001L71 4.00001ZM75 4.00001L75 4.50001L77 4.50001L77 4.00001L77 3.50001L75 3.50001L75 4.00001ZM79 4.00001L79 4.50001L81 4.50001L81 4.00001L81 3.50001L79 3.50001L79 4.00001ZM83 4.00001L83 4.50001L85 4.50001L85 4.00001L85 3.50001L83 3.50001L83 4.00001ZM87 4.00001L87 4.50001L89 4.50001L89 4.00001L89 3.50001L87 3.50001L87 4.00001ZM91 4.00001L91 4.50001L93 4.50001L93 4.00001L93 3.50001L91 3.50001L91 4.00001ZM95 4.00001L95 4.50001L97 4.50001L97 4.00001L97 3.50001L95 3.50001L95 4.00001ZM99 4.00001L99 4.50001L101 4.50001L101 4.00001L101 3.50001L99 3.50001L99 4.00001ZM103 4.00001L103 4.50001L105 4.50001L105 4.00001L105 3.50001L103 3.50001L103 4.00001ZM107 4.00001L107 4.50001L109 4.50001L109 4.00001L109 3.50001L107 3.50001L107 4.00001ZM111 4.00001L111 4.50001L113 4.50001L113 4.00001L113 3.50001L111 3.50001L111 4.00001ZM115 4.00001L115 4.50001L117 4.50001L117 4.00001L117 3.50001L115 3.50001L115 4.00001ZM119 4.00001L119 4.50001L121 4.50001L121 4.00001L121 3.50001L119 3.50001L119 4.00001ZM123 4.00001L123 4.50001L125 4.50001L125 4.00001L125 3.50001L123 3.50001L123 4.00001ZM127 4.00001L127 4.50001L129 4.50001L129 4.00001L129 3.50001L127 3.50001L127 4.00001ZM131 4.00001L131 4.50001L133 4.50001L133 4.00001L133 3.50001L131 3.50001L131 4.00001ZM135 4.00001L135 4.50001L137 4.50001L137 4.00001L137 3.50001L135 3.50001L135 4.00001ZM139 4.00001L139 4.50001L141 4.50001L141 4.00001L141 3.50001L139 3.50001L139 4.00001ZM143 4.00001L143 4.50001L145 4.50001L145 4.00001L145 3.50001L143 3.50001L143 4.00001ZM147 4.00001L147 4.50001L149 4.50001L149 4.00001L149 3.50001L147 3.50001L147 4.00001ZM151 4.00001L151 4.50001L152 4.50001L152 4.00001L152 3.50001L151 3.50001L151 4.00001Z" fill="#B3B3B3"/>
</svg>
