<svg width="24" height="24" viewBox="0 0 24 24" fill="none" xmlns="http://www.w3.org/2000/svg">
<path d="M13.1719 20.8909L19.7585 16.7258C19.7829 16.7108 19.8147 16.7173 19.8297 16.7417C19.8447 16.7661 19.8382 16.7979 19.8138 16.8129L13.2056 20.9912C13.1972 20.9968 13.1878 20.9997 13.1784 20.9997L13.1719 20.8909Z" fill="url(#paint0_linear_522_10363)"/>
<path d="M13.1797 20.9994C13.1741 20.9994 13.1675 20.9985 13.1619 20.9966L4.18195 17.6499C4.15476 17.6396 4.14164 17.6105 4.15195 17.5833C4.16226 17.5561 4.19132 17.543 4.21851 17.5533L13.175 20.8907L13.1797 20.9994Z" fill="url(#paint1_linear_522_10363)"/>
<path d="M22.6031 4.99786L21.5662 6.71435L17.4011 8.48522L17.1695 8.58366L13.4262 12.0841C13.354 12.1563 13.3053 12.2594 13.2969 12.3166C13.2931 12.3363 13.2762 12.3279 13.2603 12.3269C13.2434 12.326 13.22 12.3326 13.2181 12.3119C13.2162 12.2369 13.2078 12.1535 13.0869 12.0785L11.211 10.8636L9.84324 9.97673L5.99026 8.98864L2.76539 8.1618L0.722656 4.98848L0.753593 4.95286L0.755467 4.95005L8.42392 2.957C8.43517 2.95325 8.43704 2.95508 8.44173 2.96169L11.0573 6.87935L11.1088 6.95622C11.1651 7.03872 11.1707 7.08934 11.1707 7.1259H11.2185C11.2185 7.12309 11.2185 7.12028 11.2185 7.11746C11.2185 7.11371 11.2185 7.10903 11.2194 7.10434C11.2194 7.10153 11.2204 7.09871 11.2204 7.09496C11.2213 7.09121 11.2213 7.08746 11.2222 7.08371C11.2232 7.07996 11.2232 7.07621 11.2241 7.07153C11.2269 7.0584 11.2307 7.0434 11.2344 7.0284C11.2354 7.02372 11.2372 7.01903 11.2382 7.01528C11.2429 7.00028 11.2476 6.98434 11.2532 6.96934C11.256 6.96372 11.2579 6.95716 11.2607 6.95153C11.2682 6.93278 11.2757 6.91591 11.2841 6.90091C11.2916 6.88591 11.2991 6.87372 11.3066 6.86341L13.6643 3.43417C13.67 3.42573 13.6728 3.42198 13.685 3.42386L22.5881 4.95567L22.6031 4.99786Z" fill="#E8B67F"/>
<path d="M11.2129 10.8625H11.212L9.84516 9.97665L5.99219 8.98856L11.1726 7.12582L11.1867 7.09863V7.12582L11.2129 10.8625Z" fill="url(#paint2_linear_522_10363)"/>
<path d="M11.1707 7.12582L5.99026 8.98762L5.52341 8.86763L2.76539 8.15984L0.722656 4.98653L0.755467 4.94809L8.42392 2.95505C8.43517 2.9513 8.43704 2.95313 8.44173 2.95973L11.0573 6.87739L11.1088 6.95427C11.1651 7.03864 11.1707 7.08926 11.1707 7.12582Z" fill="url(#paint3_linear_522_10363)"/>
<path d="M11.1896 7.32409L6.29138 9.08464L5.52734 8.88871L11.0612 6.89941L11.1128 6.97629C11.169 7.05878 11.1746 7.10941 11.1746 7.14597H11.1887L11.1896 7.32409Z" fill="url(#paint4_linear_522_10363)"/>
<path d="M2.83476 8.1789L2.76539 8.16109L0.722656 4.98777L0.753593 4.95215L2.83476 8.1789Z" fill="#D2A679"/>
<path d="M17.4029 8.48518L17.1713 8.58361L13.428 12.0841C13.3559 12.1563 13.3071 12.2594 13.2987 12.3166C13.2949 12.3363 13.278 12.3278 13.2621 12.3269C13.2452 12.326 13.2218 12.3325 13.2199 12.3119C13.218 12.2369 13.2096 12.1535 13.0887 12.0785L11.2128 10.8626L11.1875 7.1268V7.09961L11.2222 7.1268L17.4029 8.48518Z" fill="url(#paint5_linear_522_10363)"/>
<path d="M22.6027 4.99826L21.5658 6.71476L17.7747 8.32626L17.4016 8.48469L11.219 7.12631C11.2153 7.0785 11.2481 6.96975 11.2837 6.90038C11.2912 6.88538 11.2987 6.87319 11.3062 6.86288L13.6639 3.43364C13.6696 3.4252 13.6724 3.42145 13.6846 3.42332L22.5877 4.95514L22.6027 4.99826Z" fill="url(#paint6_linear_522_10363)"/>
<path d="M17.774 8.32623L17.1693 8.5831L17.0915 8.6581L11.1836 7.35221L11.2108 7.12534H11.2183C11.2145 7.07753 11.2473 6.96879 11.283 6.89941L17.774 8.32623Z" fill="url(#paint7_linear_522_10363)"/>
<path opacity="0.75" d="M11.347 7.1541V10.9518L11.2092 10.8627H11.2083L11.0273 10.7446V7.1766L11.1689 7.12598H11.2167L11.347 7.1541Z" fill="url(#paint8_linear_522_10363)"/>
<path d="M13.1432 20.9386L4.15578 17.5853C4.10515 17.5637 4.09765 17.5159 4.09484 17.4568C4.09484 17.4568 3.70861 9.79777 3.70767 9.79683C3.70673 9.77715 3.73111 9.76496 3.72923 9.75277C3.72267 9.72371 3.66736 9.61403 3.64955 9.60278L0 7.52911L0.0309363 7.4588L9.84337 9.97683L13.0861 12.0777C13.207 12.1527 13.2164 12.2361 13.2173 12.3111C13.2182 12.3317 13.2426 12.3252 13.2595 12.3261C13.2764 12.327 13.2923 12.3355 13.296 12.3158C13.3045 12.2586 13.3532 12.1555 13.4254 12.0842L17.1687 8.58376L23.9569 5.69824L23.9981 5.75543L20.3336 8.97561C20.2623 9.04686 20.2295 9.13405 20.2436 9.16967L19.8686 16.6759C19.863 16.7238 19.8405 16.7378 19.7927 16.7706L13.2229 20.9292C13.1967 20.9461 13.1686 20.9508 13.1432 20.9386Z" fill="#BF9064"/>
<path d="M13.2598 12.3255L13.1951 20.9417C13.1773 20.9464 13.1595 20.9455 13.1426 20.938L4.15514 17.5856C4.10452 17.564 4.09702 17.5153 4.0942 17.4572C4.0942 17.4572 3.70703 9.79808 3.70703 9.79715V9.79527C3.70703 9.7934 3.70703 9.79152 3.70797 9.78965C3.70797 9.78777 3.70891 9.78683 3.70984 9.7859C3.71078 9.78402 3.71172 9.78308 3.71266 9.78121C3.71359 9.77933 3.71453 9.7784 3.71547 9.77652C3.71922 9.7709 3.72484 9.76527 3.72672 9.76059C3.72766 9.75965 3.72766 9.75871 3.72766 9.75777C3.72766 9.75777 3.72766 9.75777 3.72766 9.75684L13.2185 12.3142C13.2223 12.3311 13.2448 12.3245 13.2598 12.3255Z" fill="#BD8F63"/>
<path opacity="0.54" d="M13.1939 20.9173V20.9417C13.1761 20.9464 13.1582 20.9454 13.1414 20.9379L4.1539 17.5855C4.11828 17.5705 4.10422 17.5415 4.09766 17.5059L13.1939 20.9173Z" fill="url(#paint9_linear_522_10363)"/>
<path d="M9.13281 15.6904L12.6127 16.8285L12.6042 20.2221L9.18906 18.9678L9.13281 15.6904ZM10.8765 17.9703L10.8849 19.5425L12.5704 20.1617L12.5705 18.5591L10.8765 17.9703ZM11.3745 18.4782L11.7151 19.0203L12.0487 18.728L12.1068 18.7943L11.7625 19.0959L12.1076 19.645L12.0576 19.6765L11.7175 19.1352L11.3855 19.4263L11.3274 19.36L11.6701 19.0597L11.3244 18.5097L11.3745 18.4782ZM12.3774 19.0887V19.2434L12.4664 19.2725V19.4468L12.3774 19.4112V19.5518L12.1824 19.2556L12.3774 19.0887ZM12.0774 18.9003L12.1458 18.9219V19.5397L12.0774 19.5153V18.9003ZM9.20125 17.3882L9.22656 18.9359L10.8371 19.5247L10.8277 17.9563L9.20125 17.3882ZM11.7193 19.2331L11.8955 19.5172L11.544 19.3897L11.7193 19.2331ZM11.9911 18.9725V19.3756L11.8083 19.1178L11.9911 18.9725ZM11.2937 18.6134L11.3612 18.6359V19.2528L11.2937 19.2294V18.6134ZM11.4455 18.7794L11.6199 19.0484L11.4455 19.1825V18.7794ZM9.98872 18.0322L10.0553 18.0538L10.0554 18.0934C10.2536 18.1731 10.4493 18.3718 10.5437 18.6809C10.4818 18.5769 10.4274 18.5572 10.3309 18.59C10.2953 18.5159 10.1903 18.4766 10.1275 18.5159C10.1103 18.4833 10.0851 18.4589 10.0576 18.4432L10.0609 19.0315C10.0609 19.0859 10.0234 19.1347 9.93059 19.1159C9.84622 19.0953 9.81154 19.0306 9.82091 18.92L9.86778 18.9275C9.86778 19.0016 9.87341 19.0437 9.92966 19.0569C9.97747 19.0681 9.99903 19.0503 9.99903 19.0062L9.99283 18.4226C9.96621 18.4207 9.94156 18.4273 9.92403 18.4428C9.90247 18.3884 9.80029 18.3153 9.72341 18.3697C9.66904 18.2835 9.56686 18.2506 9.50967 18.3135C9.58265 18.0927 9.78103 18.0153 9.98903 18.0711L9.98872 18.0322ZM11.0556 18.6069L11.2459 18.9069L11.0574 19.0634L11.0612 18.9162L10.9693 18.8947V18.7241L11.0556 18.7559V18.6069ZM11.5383 18.6716L11.8946 18.8009L11.7165 18.9575L11.5383 18.6716ZM10.8737 16.3092L10.8774 17.9122L12.5714 18.5028V16.8651L10.8737 16.3092ZM11.1896 17.6938L12.2021 18.0397V18.2413L11.1896 17.8925V17.6938ZM10.3178 18.0763C10.3243 18.0828 10.3243 18.1531 10.3028 18.1691C10.2925 18.1738 10.2765 18.1747 10.2634 18.1644C10.2503 18.1541 10.2428 18.1391 10.2484 18.1166C10.254 18.0941 10.3103 18.0697 10.3178 18.0763ZM10.4115 17.916C10.419 17.9225 10.419 17.9928 10.3965 18.0088C10.3862 18.0135 10.3703 18.0144 10.3571 18.0041C10.344 17.9938 10.3365 17.9788 10.3421 17.9563C10.3478 17.9338 10.404 17.9094 10.4115 17.916ZM10.149 17.9094C10.1565 17.916 10.1565 17.9863 10.134 18.0022C10.1237 18.0069 10.1078 18.0078 10.0946 17.9975C10.0815 17.9872 10.074 17.9722 10.0797 17.9497C10.0853 17.9272 10.1415 17.9028 10.149 17.9094ZM9.88372 17.871C9.89122 17.8775 9.89122 17.9478 9.86872 17.9638C9.85841 17.9685 9.84247 17.9694 9.82935 17.9591C9.81622 17.9488 9.80872 17.9338 9.81435 17.9113C9.81997 17.8888 9.87622 17.8644 9.88372 17.871ZM11.9715 16.8173L12.2171 17.3019L12.0493 17.2447V17.9469L11.8815 17.8888L11.8824 17.1922L11.7155 17.1379L11.9715 16.8173ZM9.16937 15.7504L9.19844 17.3319L10.8287 17.8925L10.8146 16.2904L9.16937 15.7504ZM11.4174 16.6326L11.663 17.1172L11.4952 17.0601V17.7622L11.3274 17.7041L11.3293 17.0076L11.1615 16.9532L11.4174 16.6326ZM9.53405 16.0682L9.66717 16.1123L9.72904 16.3363L9.65967 16.3317L9.85747 16.8098L9.75529 16.416L9.81341 16.4151L9.75435 16.1404L10.4415 16.3673V16.7451C10.4415 16.8885 10.2859 17.0694 10.0665 16.9794L10.0675 17.3591L10.3825 17.5616L9.62029 17.2972L9.92684 17.3122L9.92122 16.9363C9.70373 16.8716 9.54623 16.6101 9.54623 16.4507L9.53405 16.0682Z" fill="#322214"/>
<path d="M13.2595 12.3263C13.222 12.3272 13.1939 12.3769 13.1929 12.4219L13.1845 12.4257L3.70673 9.79702C3.70579 9.77921 3.72642 9.76796 3.72829 9.75671C3.72923 9.75577 3.72923 9.75483 3.72829 9.75389C3.72173 9.72483 3.66642 9.61515 3.64861 9.6039L0 7.52929L0.0309363 7.45898L9.84243 9.97607H9.84337L13.0861 12.0769C13.207 12.1529 13.2164 12.2354 13.2173 12.3104C13.2173 12.3113 13.2173 12.3132 13.2182 12.3141C13.222 12.3319 13.2445 12.3254 13.2595 12.3263Z" fill="url(#paint10_linear_522_10363)"/>
<path d="M20.3341 8.97464C20.2629 9.04588 20.23 9.13307 20.2441 9.16869L13.3416 12.4348L13.3275 12.4236C13.3266 12.3692 13.2919 12.3326 13.2656 12.327C13.2797 12.3289 13.2928 12.3336 13.2966 12.3158C13.2984 12.3045 13.3012 12.2914 13.3059 12.2773C13.3097 12.2651 13.3153 12.252 13.3219 12.2379C13.3416 12.1929 13.3716 12.1442 13.41 12.1011C13.4156 12.0955 13.4212 12.0889 13.4269 12.0833L17.1702 8.58278L23.9583 5.69727L23.9996 5.75445L20.3341 8.97464Z" fill="#CD9C6B"/>
<path d="M8.99917 13.185C9.00948 13.1878 9.01323 13.1887 9.01323 13.1803L8.97761 11.2735C8.9748 11.2088 8.95886 11.0813 8.88105 11.0297L5.42462 8.92983L3.80469 8.51172L7.31736 10.6107C7.40548 10.6688 7.41298 10.7776 7.41673 10.8582L7.46736 12.7125C7.46736 12.7219 7.46923 12.7237 7.47579 12.7266L8.99917 13.185Z" fill="url(#paint11_linear_522_10363)"/>
<path d="M13.2614 12.3258C13.223 12.3267 13.1949 12.3792 13.1949 12.4252C13.1939 12.4289 13.1874 12.428 13.1864 12.4252C13.1789 12.323 13.1367 12.2086 13.0814 12.1683L9.8125 10.0609L9.84437 9.97559H9.84531L13.088 12.0764C13.2089 12.1524 13.2183 12.2349 13.2192 12.3099C13.2192 12.3108 13.2192 12.3127 13.2202 12.3136C13.2239 12.3314 13.2464 12.3249 13.2614 12.3258Z" fill="#D4A271"/>
<path d="M9.84243 9.97705L9.81056 10.0614L0 7.52933L0.0309363 7.45996L9.84243 9.97705Z" fill="#DEB37E"/>
<path d="M20.245 9.16859L19.8701 16.6749C19.8644 16.7227 19.8419 16.7367 19.7941 16.7695L13.2244 20.9281C13.215 20.9347 13.2047 20.9384 13.1953 20.9413L13.26 12.325C13.2769 12.326 13.2928 12.3344 13.2966 12.3147C13.2966 12.3119 13.2975 12.31 13.2975 12.3072L20.2432 9.16016C20.2432 9.16484 20.2441 9.16672 20.245 9.16859Z" fill="#DBAD77"/>
<path opacity="0.54" d="M19.8701 16.6719V16.6756C19.8644 16.7234 19.8419 16.7375 19.7941 16.7703L13.2244 20.9289C13.215 20.9355 13.2047 20.9392 13.1953 20.942V20.9176L19.8701 16.6719Z" fill="url(#paint12_linear_522_10363)"/>
<path d="M19.7483 13.4062L19.5984 16.4624L17.4141 17.8226L17.5266 14.6418L19.7483 13.4062ZM18.5803 15.6187L17.4947 16.2571L17.4431 17.7617L18.524 17.0895L18.5803 15.6187ZM18.0619 16.2646L18.0599 16.3152C18.1895 16.2505 18.3121 16.2956 18.3637 16.5102C18.3281 16.4605 18.2634 16.4802 18.2203 16.5814C18.2006 16.5393 18.1003 16.5739 18.0853 16.6621C18.0773 16.6478 18.0629 16.6425 18.0464 16.6444L18.0225 17.2245C18.0206 17.2742 18.0178 17.3277 17.955 17.3661C17.9259 17.3792 17.849 17.3895 17.8594 17.2817L17.8959 17.2536C17.8931 17.322 17.9109 17.3427 17.9484 17.3202C17.9934 17.293 17.985 17.2499 17.9869 17.2095L18.0071 16.6599C17.9807 16.6772 17.9568 16.7075 17.9503 16.7436C17.939 16.7099 17.8303 16.7305 17.8172 16.8271C17.7862 16.7858 17.7019 16.8261 17.67 16.9302C17.7287 16.6599 17.8742 16.4356 18.0191 16.339L18.0206 16.2946L18.0619 16.2646ZM19.6462 14.9887L18.6112 15.6009L18.554 17.0755L19.5777 16.4314L19.6462 14.9887ZM19.3265 15.4855L19.3565 15.5137L19.1309 16.0253L19.3171 16.2824L19.2871 16.3461L19.1015 16.0921L18.8784 16.5983L18.8474 16.5702L19.0747 16.0554L18.8821 15.7921L18.9159 15.7283L19.1042 15.9885L19.3265 15.4855ZM18.6965 16.0733L18.8137 16.2158L18.689 16.4839V16.3658L18.6365 16.3977L18.6393 16.2449L18.6918 16.214L18.6965 16.0733ZM18.899 15.8877L18.8746 16.453L18.8324 16.4811L18.8559 15.9177L18.899 15.8877ZM19.0968 16.183L19.1971 16.3152L18.9815 16.4464L19.0968 16.183ZM17.9484 16.2243C17.9531 16.2243 17.9503 16.289 17.9344 16.3208C17.9287 16.3321 17.9184 16.3443 17.91 16.3452C17.9015 16.3461 17.8978 16.3368 17.9025 16.3124C17.9072 16.288 17.9437 16.2243 17.9484 16.2243ZM18.9459 15.9646L19.0452 16.0874L18.929 16.3171L18.9459 15.9646ZM18.2334 16.1071C18.2372 16.108 18.2343 16.1727 18.2193 16.2036C18.2137 16.2149 18.2034 16.2271 18.195 16.228C18.1865 16.229 18.1828 16.2196 18.1875 16.1952C18.1922 16.1708 18.2287 16.1071 18.2334 16.1071ZM18.6496 14.0597L17.5528 14.6746L17.4956 16.2093L18.584 15.568L18.6496 14.0597ZM19.3724 15.5999L19.3462 16.1643L19.3087 16.1886L19.334 15.6252L19.3724 15.5999ZM18.1303 16.0649C18.135 16.0649 18.1322 16.1296 18.1162 16.1615C18.1106 16.1727 18.1003 16.1849 18.0918 16.1858C18.0834 16.1868 18.0797 16.1774 18.0843 16.153C18.089 16.1286 18.1256 16.0649 18.1303 16.0649ZM19.2759 15.764L19.2609 16.124L19.1634 16.0077L19.2759 15.764ZM19.5084 15.5924L19.5027 15.7312L19.5571 15.7012L19.5505 15.8549L19.498 15.8858L19.4962 16.0124L19.3827 15.8765L19.5084 15.5924ZM18.3056 15.8793C18.3103 15.8793 18.3075 15.944 18.2915 15.9758C18.2859 15.9871 18.2756 15.9993 18.2672 16.0002C18.2587 16.0011 18.255 15.9918 18.2597 15.9674C18.2643 15.943 18.3009 15.8793 18.3056 15.8793ZM19.2224 15.6618L19.1062 15.928L19.0059 15.7921L19.2224 15.6618ZM18.3946 14.3859L18.3806 14.7721C18.375 14.9034 18.27 15.1415 18.1134 15.2409L18.0965 15.6055L18.3056 15.5605L17.7965 15.8549L18.0084 15.6534L18.0197 15.2952C17.8837 15.373 17.775 15.2287 17.7815 15.0824L17.7937 14.7281L17.8856 14.6784L17.9156 14.849L17.8659 14.8893L17.9756 15.2071L17.9334 14.9174L17.9709 14.8743L17.9419 14.6465L18.3946 14.3859ZM19.7258 13.4616L18.6759 14.0484L18.6103 15.5568L19.6509 14.9343L19.7258 13.4616ZM19.4521 14.7618L19.439 14.9409L18.824 15.3046L18.8324 15.1237L19.4521 14.7618ZM19.0171 13.9884L19.1531 14.2753L19.0509 14.3325L19.0199 14.9765L18.9224 15.0327L18.9412 14.3887L18.8428 14.4478L19.0171 13.9884ZM19.3584 13.799L19.4905 14.0812L19.3818 14.1422L19.3593 14.7815L19.2552 14.8396L19.2881 14.1956L19.1859 14.2537L19.3584 13.799Z" fill="#322214"/>
<path d="M17.2255 8.65711L13.5141 12.107C13.4091 12.2073 13.3397 12.3573 13.3425 12.4351C13.3406 12.4388 13.3312 12.4416 13.3275 12.4351C13.3322 12.3751 13.2937 12.3338 13.2656 12.3273C13.2797 12.3292 13.2928 12.3338 13.2966 12.316C13.2984 12.3048 13.3012 12.2917 13.3059 12.2776C13.3097 12.2654 13.3153 12.2523 13.3219 12.2382C13.3444 12.1876 13.3809 12.1295 13.4259 12.0845L17.1692 8.58398L17.2255 8.65711Z" fill="#D7AA77"/>
<path d="M16.4062 12.8411C16.4062 12.8514 16.4109 12.8561 16.4175 12.8532L17.5321 12.2814C17.534 12.2805 17.535 12.2786 17.5359 12.2748L17.5978 10.4477C17.5996 10.3474 17.6559 10.248 17.7328 10.1796L21.4348 6.85254L20.308 7.33533L16.5872 10.7065C16.4916 10.8002 16.4587 10.9108 16.4569 11.0046L16.4062 12.8411Z" fill="url(#paint13_linear_522_10363)"/>
<path d="M17.2233 8.65688L23.9974 5.75449L23.9561 5.69824L17.168 8.58282L17.2233 8.65688Z" fill="#F8CE93"/>
<defs>
<linearGradient id="paint0_linear_522_10363" x1="342.366" y1="228.682" x2="345.854" y2="234.192" gradientUnits="userSpaceOnUse">
<stop/>
<stop offset="1" stop-opacity="0"/>
</linearGradient>
<linearGradient id="paint1_linear_522_10363" x1="457.043" y1="189.808" x2="456.588" y2="191.03" gradientUnits="userSpaceOnUse">
<stop/>
<stop offset="1" stop-opacity="0"/>
</linearGradient>
<linearGradient id="paint2_linear_522_10363" x1="431.496" y1="182.298" x2="490.858" y2="206.904" gradientUnits="userSpaceOnUse">
<stop stop-color="#C37A44"/>
<stop offset="0.4442" stop-color="#BB713D"/>
<stop offset="0.6406" stop-color="#A05728"/>
<stop offset="1" stop-color="#964E23"/>
</linearGradient>
<linearGradient id="paint3_linear_522_10363" x1="663.914" y1="372.986" x2="535.155" y2="192.261" gradientUnits="userSpaceOnUse">
<stop stop-color="#E9B880"/>
<stop offset="1" stop-color="#E4AF76"/>
</linearGradient>
<linearGradient id="paint4_linear_522_10363" x1="293.705" y1="118.603" x2="291.27" y2="111.893" gradientUnits="userSpaceOnUse">
<stop stop-color="#C37A45" stop-opacity="0"/>
<stop offset="0.1334" stop-color="#C37A45"/>
<stop offset="0.2945" stop-color="#D08D55"/>
<stop offset="0.5021" stop-color="#DEA167"/>
<stop offset="0.6966" stop-color="#E8AF73"/>
<stop offset="0.8631" stop-color="#ECB477"/>
<stop offset="1" stop-color="#ECB477" stop-opacity="0"/>
</linearGradient>
<linearGradient id="paint5_linear_522_10363" x1="305.937" y1="158.437" x2="188.193" y2="429.048" gradientUnits="userSpaceOnUse">
<stop offset="0.0881" stop-color="#AF6938"/>
<stop offset="0.4829" stop-color="#9A5227"/>
<stop offset="0.7792" stop-color="#8D4520"/>
</linearGradient>
<linearGradient id="paint6_linear_522_10363" x1="479.633" y1="293.403" x2="547.666" y2="171.083" gradientUnits="userSpaceOnUse">
<stop offset="0.0327" stop-color="#E4AF76"/>
<stop offset="1" stop-color="#E9B880"/>
</linearGradient>
<linearGradient id="paint7_linear_522_10363" x1="338.227" y1="95.6603" x2="339.033" y2="92.0858" gradientUnits="userSpaceOnUse">
<stop stop-color="#AF6A38" stop-opacity="0"/>
<stop offset="0.086" stop-color="#AF6A38"/>
<stop offset="0.1977" stop-color="#B87542"/>
<stop offset="0.5828" stop-color="#D59C66"/>
<stop offset="0.7771" stop-color="#E4AF76"/>
<stop offset="0.9239" stop-color="#E4AF76" stop-opacity="0"/>
</linearGradient>
<linearGradient id="paint8_linear_522_10363" x1="13.6522" y1="198.44" x2="40.8349" y2="198.44" gradientUnits="userSpaceOnUse">
<stop stop-color="#743F1A" stop-opacity="0"/>
<stop offset="0.4929" stop-color="#743F1A" stop-opacity="0.8872"/>
<stop offset="0.5" stop-color="#743F1A" stop-opacity="0.9"/>
<stop offset="0.5297" stop-color="#743F1A" stop-opacity="0.8466"/>
<stop offset="1" stop-color="#743F1A" stop-opacity="0"/>
</linearGradient>
<linearGradient id="paint9_linear_522_10363" x1="458.008" y1="189.754" x2="458.226" y2="189.171" gradientUnits="userSpaceOnUse">
<stop stop-color="#322214"/>
<stop offset="0.2397" stop-color="#322314" stop-opacity="0.9891"/>
<stop offset="1" stop-color="#322214" stop-opacity="0"/>
</linearGradient>
<linearGradient id="paint10_linear_522_10363" x1="681.274" y1="247.031" x2="673.81" y2="271.939" gradientUnits="userSpaceOnUse">
<stop offset="0.0476" stop-color="#C69866"/>
<stop offset="0.4156" stop-color="#BA8C5E"/>
<stop offset="0.8135" stop-color="#B5875B"/>
</linearGradient>
<linearGradient id="paint11_linear_522_10363" x1="332.144" y1="227.518" x2="155.201" y2="31.0034" gradientUnits="userSpaceOnUse">
<stop stop-color="#845F35"/>
<stop offset="0.4311" stop-color="#91673C"/>
<stop offset="0.4407" stop-color="#976A40"/>
<stop offset="0.8737" stop-color="#986B40"/>
<stop offset="1" stop-color="#AB8157"/>
</linearGradient>
<linearGradient id="paint12_linear_522_10363" x1="346.923" y1="230.194" x2="347.347" y2="230.863" gradientUnits="userSpaceOnUse">
<stop stop-color="#322214" stop-opacity="0"/>
<stop offset="1" stop-color="#322214"/>
</linearGradient>
<linearGradient id="paint13_linear_522_10363" x1="245.992" y1="382.682" x2="280.122" y2="210.088" gradientUnits="userSpaceOnUse">
<stop stop-color="#A9794B"/>
<stop offset="0.3857" stop-color="#AE7F53"/>
<stop offset="0.4557" stop-color="#AC7D50"/>
<stop offset="0.6236" stop-color="#A9794B"/>
<stop offset="1" stop-color="#B2875D"/>
</linearGradient>
</defs>
</svg>
