<svg width="40" height="40" viewBox="0 0 40 40" fill="none" xmlns="http://www.w3.org/2000/svg">
<g clip-path="url(#clip0_947_15580)">
<path fillRule="evenodd" clip-rule="evenodd" d="M9.37852 10.6777H29.2551L27.0468 26.0463H7.16797L9.37852 10.6777Z" fill="#CD353E"/>
<path fillRule="evenodd" clip-rule="evenodd" d="M9.3807 10.6777H29.2573L27.049 26.0463H26.0112L26.1574 25.0199L28.0731 11.7041H9.23438L9.3807 10.6777Z" fill="#B41C25"/>
<path fillRule="evenodd" clip-rule="evenodd" d="M7.7532 21.9844H27.6298L27.0468 26.0466H7.16797L7.7532 21.9844Z" fill="#FFC06C"/>
<path fillRule="evenodd" clip-rule="evenodd" d="M27.0495 26.0466H26.0117L26.158 25.0202L26.5946 21.9844H27.6325L27.0495 26.0466Z" fill="#EDA558"/>
<path fillRule="evenodd" clip-rule="evenodd" d="M9.85147 24.6748H37.7587C38.097 24.6748 38.3324 24.9514 38.2844 25.2897L38.0672 26.803C38.0193 27.1414 37.7038 27.4179 37.3655 27.4179H9.456C9.11999 27.4179 8.88225 27.1414 8.93249 26.803L9.14967 25.2897C9.19772 24.9514 9.51319 24.6748 9.85147 24.6748Z" fill="#CD353E"/>
<path fillRule="evenodd" clip-rule="evenodd" d="M28.3125 27.4177H38.6451L39.9984 18.0017L37.237 13.4069C36.9787 12.9794 36.5534 12.7485 36.0185 12.7485H31.5769C30.9414 12.7485 30.347 13.2674 30.2555 13.903L28.3125 27.4177Z" fill="#FF4C4C"/>
<path fillRule="evenodd" clip-rule="evenodd" d="M31.9564 14.3877C31.7827 15.5924 31.6112 16.7971 31.4375 18.0018H37.9502L35.806 14.4334C35.7809 14.3946 35.7717 14.3877 35.7237 14.3877H31.9564Z" fill="#E1EFFF"/>
<path d="M7.18023 16.8293C7.18023 17.1411 6.92742 17.3939 6.61562 17.3939H0.564609C0.252813 17.3939 0 17.1411 0 16.8293C0 16.5175 0.252813 16.2646 0.564609 16.2646H6.61562C6.92742 16.2646 7.18023 16.5174 7.18023 16.8293ZM6.12875 18.5392H2.33172C2.01992 18.5392 1.76711 18.792 1.76711 19.1038C1.76711 19.4156 2.01992 19.6684 2.33172 19.6684H6.12875C6.44055 19.6684 6.69336 19.4156 6.69336 19.1038C6.69336 18.7919 6.44055 18.5392 6.12875 18.5392ZM5.6418 20.8137H3.74219C3.43039 20.8137 3.17758 21.0665 3.17758 21.3783C3.17758 21.6901 3.43039 21.9429 3.74219 21.9429H5.6418C5.95359 21.9429 6.20641 21.6901 6.20641 21.3783C6.20641 21.0665 5.95359 20.8137 5.6418 20.8137Z" fill="#363D52"/>
<path d="M12.4225 15.0049L12.3403 15.5581H13.209C13.5208 15.5581 13.7736 15.8109 13.7736 16.1227C13.7736 16.4345 13.5208 16.6873 13.209 16.6873H12.1723L11.9318 18.3042C11.8902 18.5846 11.6492 18.7859 11.374 18.7859C11.3464 18.7859 11.3184 18.7838 11.2903 18.7796C10.9818 18.7338 10.769 18.4465 10.8148 18.1381L11.3772 14.3571C11.4183 14.0803 11.6559 13.8755 11.9357 13.8755H14.2079C14.5197 13.8755 14.7725 14.1283 14.7725 14.4401C14.7725 14.7519 14.5197 15.0047 14.2079 15.0047H12.4225V15.0049ZM17.7307 18.1716C17.7582 18.4822 17.5286 18.7563 17.2179 18.7837C16.9073 18.8117 16.6333 18.5815 16.6058 18.2709L16.572 17.8874H15.6303L15.4227 18.4247C15.3361 18.6487 15.1224 18.786 14.8959 18.786C14.8282 18.786 14.7594 18.7737 14.6925 18.7479C14.4017 18.6356 14.2569 18.3086 14.3693 18.0177L15.83 14.2367C15.9142 14.019 16.1234 13.8756 16.3568 13.8756H16.8345C17.1271 13.8756 17.3712 14.0991 17.397 14.3906L17.7307 18.1716ZM16.4723 16.7582L16.3968 15.9033L16.0665 16.7582H16.4723ZM21.1344 13.8756H20.5721C19.7697 13.8756 19.0475 14.5015 18.9276 15.3016C18.8615 15.7488 18.9511 16.1185 19.1941 16.4001C19.5728 16.839 20.1832 16.8953 20.6726 16.8953C20.7569 16.8953 20.8247 16.9221 20.8685 16.973C20.9143 17.0261 20.9322 17.1045 20.9186 17.1957C20.8835 17.4368 20.6323 17.6564 20.3915 17.6564H19.8292C19.8042 17.6564 19.7707 17.652 19.7523 17.6308C19.7361 17.6121 19.7304 17.5796 19.7363 17.5395C19.7816 17.231 19.5682 16.9442 19.2596 16.8989C18.9508 16.8534 18.6642 17.0671 18.619 17.3756C18.5656 17.7401 18.6672 18.1022 18.8978 18.3692C19.1265 18.6339 19.4661 18.7858 19.8292 18.7858H20.3915C21.1973 18.7858 21.9197 18.1588 22.0358 17.3603C22.0975 16.9471 21.9838 16.5373 21.724 16.2358C21.4666 15.9373 21.0835 15.766 20.6728 15.766C20.1447 15.766 20.0529 15.6667 20.0493 15.6624C20.0446 15.657 20.025 15.6012 20.0447 15.4679C20.0811 15.2256 20.3325 15.0048 20.5722 15.0048H21.1345C21.1595 15.0048 21.1931 15.0092 21.2114 15.0304C21.2275 15.0492 21.2332 15.0816 21.2273 15.1217C21.182 15.4303 21.3954 15.7171 21.704 15.7624C22.0127 15.8078 22.2993 15.5942 22.3447 15.2857C22.3982 14.9213 22.2966 14.5592 22.0659 14.2922C21.8372 14.0274 21.4976 13.8756 21.1344 13.8756ZM25.7269 13.8756H23.4547C23.1429 13.8756 22.89 14.1284 22.89 14.4402C22.89 14.752 23.1429 15.0048 23.4547 15.0048H23.936L23.47 18.1381C23.4241 18.4465 23.6369 18.7337 23.9454 18.7796C23.9736 18.7838 24.0015 18.7859 24.0292 18.7859C24.3043 18.7859 24.5453 18.5845 24.587 18.3042L25.0777 15.0049H25.7269C26.0387 15.0049 26.2915 14.7521 26.2915 14.4403C26.2915 14.1284 26.0388 13.8756 25.7269 13.8756Z" fill="white"/>
<path fillRule="evenodd" clip-rule="evenodd" d="M34.9961 14.3877L37.1677 18.0018H37.9495L35.8053 14.4334C35.7802 14.3946 35.771 14.3877 35.723 14.3877H34.9961Z" fill="#D7D7E3"/>
<path fillRule="evenodd" clip-rule="evenodd" d="M28.3148 27.4174L28.7102 24.6743H27.9993L27.6016 27.4174H28.3148Z" fill="#B41C25"/>
<path fillRule="evenodd" clip-rule="evenodd" d="M36.6567 13.759L39.2924 18.1435L38.2843 25.1135L38.0145 26.9834L37.9505 27.4177H38.6477L40.0011 18.0017L37.2396 13.4069C36.9813 12.9794 36.5561 12.7485 36.0212 12.7485H31.5795C31.1132 12.7485 30.6674 13.0297 30.4297 13.4298H36.0212C36.2955 13.4298 36.5127 13.5213 36.6567 13.759Z" fill="#D11E1E"/>
<path fillRule="evenodd" clip-rule="evenodd" d="M16.9802 22.7637C18.7884 22.7637 20.0434 24.229 19.7828 26.0395C19.5245 27.8477 17.8466 29.313 16.0384 29.313C14.2279 29.313 12.9729 27.8477 13.2334 26.0395C13.4918 24.229 15.1698 22.7637 16.9802 22.7637Z" fill="#363D52"/>
<path fillRule="evenodd" clip-rule="evenodd" d="M16.9784 22.7637C18.7866 22.7637 20.0416 24.229 19.7809 26.0395C19.5295 27.7997 17.9339 29.2352 16.1805 29.3107C17.6367 28.9381 18.8529 27.6625 19.0723 26.1446C19.3306 24.3341 18.0756 22.8688 16.2674 22.8688C16.2171 22.8688 16.1691 22.8711 16.1211 22.8711C16.4 22.8002 16.6858 22.7637 16.9784 22.7637Z" fill="#2A3146"/>
<path fillRule="evenodd" clip-rule="evenodd" d="M16.7212 24.5669C17.5327 24.5669 18.0974 25.2253 17.9808 26.0391C17.8642 26.8506 17.1099 27.509 16.2983 27.509C15.4868 27.509 14.9221 26.8506 15.0387 26.0391C15.1553 25.2253 15.9097 24.5669 16.7212 24.5669Z" fill="#E1EFFF"/>
<path fillRule="evenodd" clip-rule="evenodd" d="M16.7202 24.5669C17.5317 24.5669 18.0964 25.2253 17.9798 26.0391C17.8701 26.8049 17.1934 27.4335 16.4345 27.5021C17.0083 27.2849 17.4678 26.7546 17.557 26.1374C17.6735 25.3235 17.1089 24.6652 16.2973 24.6652C16.2516 24.6652 16.2059 24.6674 16.1602 24.6721C16.3385 24.6058 16.5282 24.5669 16.7202 24.5669Z" fill="#D7D7E3"/>
<path fillRule="evenodd" clip-rule="evenodd" d="M34.1481 22.7705C35.9563 22.7705 37.2136 24.2381 36.953 26.0463C36.6924 27.8545 35.0145 29.3221 33.2063 29.3221C31.3981 29.3221 30.1408 27.8545 30.4014 26.0463C30.662 24.2381 32.3399 22.7705 34.1481 22.7705Z" fill="#363D52"/>
<path fillRule="evenodd" clip-rule="evenodd" d="M34.1463 22.7705C35.9545 22.7705 37.2118 24.2381 36.9513 26.0463C36.6975 27.8065 35.1042 29.2421 33.3509 29.3175C34.8048 28.9472 36.0232 27.6693 36.2403 26.1514C36.5009 24.3432 35.2459 22.8757 33.4354 22.8757C33.3874 22.8757 33.3394 22.8779 33.2891 22.8803C33.568 22.8093 33.856 22.7705 34.1463 22.7705Z" fill="#2A3146"/>
<path fillRule="evenodd" clip-rule="evenodd" d="M33.8892 24.5762C34.7007 24.5762 35.2631 25.2345 35.1465 26.046C35.0299 26.8575 34.2778 27.5159 33.4663 27.5159C32.6525 27.5159 32.0901 26.8576 32.2067 26.046C32.3233 25.2346 33.0754 24.5762 33.8892 24.5762Z" fill="#E1EFFF"/>
<path fillRule="evenodd" clip-rule="evenodd" d="M33.8905 24.5762C34.702 24.5762 35.2645 25.2345 35.1478 26.046C35.038 26.8118 34.3614 27.4405 33.6048 27.5091C34.1762 27.2942 34.6357 26.7638 34.7249 26.1443C34.8415 25.3328 34.2791 24.6745 33.4653 24.6745C33.4196 24.6745 33.3739 24.6767 33.3281 24.6791C33.5065 24.6128 33.6962 24.5762 33.8905 24.5762Z" fill="#D7D7E3"/>
</g>
<defs>
<clipPath id="clip0_947_15580">
<rect width="40" height="40" fill="white"/>
</clipPath>
</defs>
</svg>
