<svg width="48" height="48" viewBox="0 0 48 48" fill="none" xmlns="http://www.w3.org/2000/svg">
<path d="M1 22H7V39H1V22ZM46.67 28.63C46.3069 27.9321 45.6841 27.4048 44.936 27.1616C44.1878 26.9185 43.374 26.9789 42.67 27.33L31.4 33.07C29.97 35.3 27.64 36.74 25.29 35.61L17.4 31.9C17.1802 31.775 17.016 31.5713 16.9403 31.3301C16.8646 31.0888 16.8831 30.8278 16.9921 30.5997C17.1011 30.3715 17.2925 30.1931 17.5278 30.1004C17.763 30.0077 18.0246 30.0076 18.26 30.1C26.85 34.1 26.33 33.98 27 34C29.37 34.11 30.87 30.43 28.28 29.28C14.16 22.65 16.16 22.86 9 23.75V37C10.0883 36.9155 11.1806 37.101 12.18 37.54C26.74 44.15 22.64 44.29 45.37 32.67C45.7207 32.4902 46.0326 32.243 46.2877 31.9426C46.5429 31.6423 46.7364 31.2945 46.8571 30.9194C46.9778 30.5442 47.0234 30.1489 46.9913 29.7561C46.9592 29.3632 46.85 28.9806 46.67 28.63ZM29 9C29.31 9 29.2 9 32 10.38V6H26V10.38C28.81 9 28.69 9 29 9Z" fill="white"/>
<path d="M29.13 27.47C29.7756 27.7735 30.3487 28.2116 30.811 28.7549C31.2732 29.2982 31.6138 29.9342 31.81 30.62C42.83 25 42.12 25.27 43 25.11V6H34C34 12.49 34.16 12.46 33.53 12.85C32.9 13.24 32.79 13 29 11.12L25.45 12.89C25.2978 12.9667 25.1285 13.0032 24.9581 12.9961C24.7878 12.989 24.6222 12.9384 24.4769 12.8492C24.3316 12.7601 24.2115 12.6352 24.1281 12.4866C24.0446 12.338 24.0005 12.1705 24 12V6H15V21.42C17.53 21.78 18.17 22.32 29.13 27.47ZM35 22H39C39.2652 22 39.5196 22.1054 39.7071 22.2929C39.8946 22.4804 40 22.7348 40 23C40 23.2652 39.8946 23.5196 39.7071 23.7071C39.5196 23.8946 39.2652 24 39 24H35C34.7348 24 34.4804 23.8946 34.2929 23.7071C34.1054 23.5196 34 23.2652 34 23C34 22.7348 34.1054 22.4804 34.2929 22.2929C34.4804 22.1054 34.7348 22 35 22Z" fill="white"/>
</svg>
