<svg width="49" height="48" viewBox="0 0 49 48" fill="none" xmlns="http://www.w3.org/2000/svg">
<path d="M3.5 36.0001C3.50008 36.288 3.583 36.5698 3.73886 36.8118C3.89473 37.0539 4.11695 37.246 4.379 37.3651L20.669 45.0001L20.7485 24.4801L3.5 16.5166V36.0001ZM30.5555 20.6461L22.25 24.4816L22.169 45.0001L38.621 37.3651C38.8831 37.246 39.1053 37.0539 39.2611 36.8118C39.417 36.5698 39.4999 36.288 39.5 36.0001V22.0576C37.9989 22.5095 36.4153 22.6174 34.8669 22.3733C33.3184 22.1292 31.8448 21.5394 30.5555 20.6476V20.6461ZM26 12.0001C26 11.1511 26.1125 10.3276 26.3045 9.53713L22.1195 7.63513C21.9248 7.54609 21.7133 7.5 21.4993 7.5C21.2852 7.5 21.0737 7.54609 20.879 7.63513C20.879 7.63513 4.298 15.1891 4.2545 15.2146L21.5 23.1751L29.264 19.5916C28.233 18.6142 27.4118 17.437 26.8506 16.1318C26.2895 14.8267 26 13.4208 26 12.0001Z" fill="white"/>
<path d="M36.5 3C35.3181 3 34.1478 3.23279 33.0558 3.68508C31.9639 4.13738 30.9718 4.80031 30.136 5.63604C29.3003 6.47177 28.6374 7.46392 28.1851 8.55585C27.7328 9.64778 27.5 10.8181 27.5 12C27.5 13.1819 27.7328 14.3522 28.1851 15.4442C28.6374 16.5361 29.3003 17.5282 30.136 18.364C30.9718 19.1997 31.9639 19.8626 33.0558 20.3149C34.1478 20.7672 35.3181 21 36.5 21C38.8869 21 41.1761 20.0518 42.864 18.364C44.5518 16.6761 45.5 14.3869 45.5 12C45.5 9.61305 44.5518 7.32387 42.864 5.63604C41.1761 3.94821 38.8869 3 36.5 3ZM43.25 12.75H37.25V18.75C37.25 18.9489 37.171 19.1397 37.0303 19.2803C36.8897 19.421 36.6989 19.5 36.5 19.5C36.3011 19.5 36.1103 19.421 35.9697 19.2803C35.829 19.1397 35.75 18.9489 35.75 18.75V12.75H29.75C29.5511 12.75 29.3603 12.671 29.2197 12.5303C29.079 12.3897 29 12.1989 29 12C29 11.8011 29.079 11.6103 29.2197 11.4697C29.3603 11.329 29.5511 11.25 29.75 11.25H35.75V5.25C35.75 5.05109 35.829 4.86032 35.9697 4.71967C36.1103 4.57902 36.3011 4.5 36.5 4.5C36.6989 4.5 36.8897 4.57902 37.0303 4.71967C37.171 4.86032 37.25 5.05109 37.25 5.25V11.25H43.25C43.4489 11.25 43.6397 11.329 43.7803 11.4697C43.921 11.6103 44 11.8011 44 12C44 12.1989 43.921 12.3897 43.7803 12.5303C43.6397 12.671 43.4489 12.75 43.25 12.75Z" fill="white"/>
</svg>
