<svg width="48" height="48" viewBox="0 0 48 48" fill="none" xmlns="http://www.w3.org/2000/svg">
<path d="M14.3766 18.6753C16.4543 18.6724 18.4461 17.8457 19.9152 16.3765C21.3844 14.9073 22.2111 12.9155 22.2141 10.8378C21.7813 0.440578 6.97031 0.443578 6.53906 10.8378C6.54204 12.9155 7.36873 14.9073 8.8379 16.3765C10.3071 17.8457 12.2988 18.6724 14.3766 18.6753ZM14.3766 11.5878C10.7653 11.5938 10.0588 7.44258 13.6266 6.72033V6.11283C13.6266 5.91392 13.7056 5.72315 13.8462 5.5825C13.9869 5.44185 14.1776 5.36283 14.3766 5.36283C14.5755 5.36283 14.7662 5.44185 14.9069 5.5825C15.0475 5.72315 15.1266 5.91392 15.1266 6.11283V6.72033C15.7399 6.77829 16.313 7.05076 16.7452 7.48978C17.1774 7.92879 17.4408 8.5062 17.4891 9.12033C17.4891 9.31924 17.41 9.51001 17.2694 9.65066C17.1287 9.79131 16.938 9.87033 16.7391 9.87033C16.5401 9.87033 16.3494 9.79131 16.2087 9.65066C16.0681 9.51001 15.9891 9.31924 15.9891 9.12033C15.9891 8.65533 15.3291 8.14533 14.3766 8.14533C12.2661 8.20158 12.2578 10.0316 14.3766 10.0878C16.1241 10.0878 17.4891 11.1753 17.4891 12.5553C17.4409 13.1695 17.1775 13.747 16.7454 14.186C16.3132 14.6251 15.7399 14.8975 15.1266 14.9553V15.5628C15.1266 15.7617 15.0475 15.9525 14.9069 16.0932C14.7662 16.2338 14.5755 16.3128 14.3766 16.3128C14.1776 16.3128 13.9869 16.2338 13.8462 16.0932C13.7056 15.9525 13.6266 15.7617 13.6266 15.5628V14.9553C13.0137 14.8962 12.4412 14.6234 12.0092 14.1846C11.5773 13.7458 11.3135 13.169 11.2641 12.5553C11.2641 12.3564 11.3431 12.1657 11.4837 12.025C11.6244 11.8843 11.8152 11.8053 12.0141 11.8053C12.213 11.8053 12.4037 11.8843 12.5444 12.025C12.685 12.1657 12.7641 12.3564 12.7641 12.5553C12.7641 13.0128 13.4316 13.5303 14.3766 13.5303C16.4901 13.4703 16.4953 11.6426 14.3766 11.5878Z" fill="white"/>
<path d="M7.78041 27.9888L6.96516 28.3885C6.78653 28.4761 6.64999 28.631 6.58557 28.8191C6.52116 29.0073 6.53413 29.2134 6.62166 29.392C6.70918 29.5707 6.86407 29.7072 7.05226 29.7716C7.24046 29.836 7.44653 29.8231 7.62516 29.7355C17.6505 24.9738 26.5885 18.1995 33.8827 9.83429V10.837C33.8827 11.036 33.9617 11.2267 34.1023 11.3674C34.243 11.508 34.4337 11.587 34.6327 11.587C34.8316 11.587 35.0223 11.508 35.163 11.3674C35.3036 11.2267 35.3827 11.036 35.3827 10.837V7.80029C35.3744 7.60404 35.2927 7.41805 35.1538 7.27915C35.0149 7.14025 34.8289 7.05858 34.6327 7.05029H31.5959C31.397 7.05029 31.2062 7.12931 31.0656 7.26996C30.9249 7.41062 30.8459 7.60138 30.8459 7.80029C30.8459 7.99921 30.9249 8.18997 31.0656 8.33062C31.2062 8.47128 31.397 8.55029 31.5959 8.55029H33.0082C26.0027 16.6724 17.4198 23.2862 7.78041 27.9903V27.9888ZM43.7489 43.5003H41.4614V16.9128C41.4608 16.7141 41.3816 16.5236 41.2411 16.3831C41.1006 16.2426 40.9101 16.1634 40.7114 16.1628H34.6364C34.5378 16.1625 34.4402 16.1817 34.349 16.2193C34.2579 16.2569 34.1751 16.3121 34.1054 16.3818C34.0357 16.4515 33.9805 16.5343 33.9429 16.6254C33.9053 16.7166 33.8861 16.8142 33.8864 16.9128V43.5003H32.3414V22.9878C32.3417 22.8892 32.3225 22.7916 32.2849 22.7004C32.2473 22.6093 32.1921 22.5265 32.1224 22.4568C32.0527 22.3871 31.9699 22.3319 31.8788 22.2943C31.7876 22.2567 31.69 22.2375 31.5914 22.2378H25.5239C25.4253 22.2375 25.3277 22.2567 25.2365 22.2943C25.1454 22.3319 25.0626 22.3871 24.9929 22.4568C24.9232 22.5265 24.868 22.6093 24.8304 22.7004C24.7928 22.7916 24.7736 22.8892 24.7739 22.9878V43.5003H23.2289V29.0628C23.2292 28.9642 23.21 28.8666 23.1724 28.7754C23.1348 28.6843 23.0796 28.6015 23.0099 28.5318C22.9402 28.4621 22.8574 28.4069 22.7663 28.3693C22.6751 28.3317 22.5775 28.3125 22.4789 28.3128H16.4114C16.3128 28.3125 16.2152 28.3317 16.124 28.3693C16.0329 28.4069 15.9501 28.4621 15.8804 28.5318C15.8107 28.6015 15.7555 28.6843 15.7179 28.7754C15.6803 28.8666 15.6611 28.9642 15.6614 29.0628V43.5003H14.1164V35.1378C14.1167 35.0392 14.0975 34.9416 14.0599 34.8504C14.0223 34.7593 13.9671 34.6765 13.8974 34.6068C13.8277 34.5371 13.7449 34.4819 13.6538 34.4443C13.5626 34.4067 13.465 34.3875 13.3664 34.3878H7.29141C7.09268 34.3884 6.90226 34.4676 6.76173 34.6081C6.62121 34.7486 6.542 34.9391 6.54141 35.1378V43.5003H4.25391C4.05499 43.5003 3.86423 43.5793 3.72358 43.72C3.58292 43.8606 3.50391 44.0514 3.50391 44.2503C3.50391 44.4492 3.58292 44.64 3.72358 44.7806C3.86423 44.9213 4.05499 45.0003 4.25391 45.0003H43.7489C43.9478 45.0003 44.1386 44.9213 44.2792 44.7806C44.4199 44.64 44.4989 44.4492 44.4989 44.2503C44.4989 44.0514 44.4199 43.8606 44.2792 43.72C44.1386 43.5793 43.9478 43.5003 43.7489 43.5003Z" fill="white"/>
</svg>
