<svg width="116" height="118" viewBox="0 0 116 118" fill="none" xmlns="http://www.w3.org/2000/svg">
<g filter="url(#filter0_d_947_15906)">
<rect x="17" width="80" height="80" rx="40" fill="#0060FF"/>
<mask id="mask0_947_15906" style="mask-type:alpha" maskUnits="userSpaceOnUse" x="33" y="16" width="48" height="48">
<rect x="33" y="16" width="48" height="48" fill="#D9D9D9"/>
</mask>
<g mask="url(#mask0_947_15906)">
<path d="M57 40C54.8 40 52.9167 39.2167 51.35 37.65C49.7833 36.0833 49 34.2 49 32C49 29.8 49.7833 27.9167 51.35 26.35C52.9167 24.7833 54.8 24 57 24C59.2 24 61.0833 24.7833 62.65 26.35C64.2167 27.9167 65 29.8 65 32C65 34.2 64.2167 36.0833 62.65 37.65C61.0833 39.2167 59.2 40 57 40ZM41 56V50.4C41 49.2667 41.2917 48.225 41.875 47.275C42.4583 46.325 43.2333 45.6 44.2 45.1C46.2667 44.0667 48.3667 43.2917 50.5 42.775C52.6333 42.2583 54.8 42 57 42C59.2 42 61.3667 42.2583 63.5 42.775C65.6333 43.2917 67.7333 44.0667 69.8 45.1C70.7667 45.6 71.5417 46.325 72.125 47.275C72.7083 48.225 73 49.2667 73 50.4V56H41Z" fill="#FCFCFC"/>
</g>
</g>
<defs>
<filter id="filter0_d_947_15906" x="0" y="0" width="116" height="118" filterUnits="userSpaceOnUse" color-interpolation-filters="sRGB">
<feFlood flood-opacity="0" result="BackgroundImageFix"/>
<feColorMatrix in="SourceAlpha" type="matrix" values="0 0 0 0 0 0 0 0 0 0 0 0 0 0 0 0 0 0 127 0" result="hardAlpha"/>
<feOffset dx="1" dy="20"/>
<feGaussianBlur stdDeviation="9"/>
<feComposite in2="hardAlpha" operator="out"/>
<feColorMatrix type="matrix" values="0 0 0 0 0 0 0 0 0 0.376471 0 0 0 0 1 0 0 0 0.2 0"/>
<feBlend mode="normal" in2="BackgroundImageFix" result="effect1_dropShadow_947_15906"/>
<feBlend mode="normal" in="SourceGraphic" in2="effect1_dropShadow_947_15906" result="shape"/>
</filter>
</defs>
</svg>
