<svg width="24" height="24" viewBox="0 0 24 24" fill="none" xmlns="http://www.w3.org/2000/svg">
<path d="M20 4H14V6.5C14 6.76522 13.8946 7.01957 13.7071 7.20711C13.5196 7.39464 13.2652 7.5 13 7.5C12.7348 7.5 12.4804 7.39464 12.2929 7.20711C12.1054 7.01957 12 6.76522 12 6.5V4H4C3.46957 4 2.96086 4.21071 2.58579 4.58579C2.21071 4.96086 2 5.46957 2 6V9C2 9.26522 2.10536 9.51957 2.29289 9.70711C2.48043 9.89464 2.73478 10 3 10C3.53043 10 4.03914 10.2107 4.41421 10.5858C4.78929 10.9609 5 11.4696 5 12C5 12.5304 4.78929 13.0391 4.41421 13.4142C4.03914 13.7893 3.53043 14 3 14C2.73478 14 2.48043 14.1054 2.29289 14.2929C2.10536 14.4804 2 14.7348 2 15V18C2 18.5304 2.21071 19.0391 2.58579 19.4142C2.96086 19.7893 3.46957 20 4 20H12V17.5C12 17.2348 12.1054 16.9804 12.2929 16.7929C12.4804 16.6054 12.7348 16.5 13 16.5C13.2652 16.5 13.5196 16.6054 13.7071 16.7929C13.8946 16.9804 14 17.2348 14 17.5V20H20C20.5304 20 21.0391 19.7893 21.4142 19.4142C21.7893 19.0391 22 18.5304 22 18V6C22 5.46957 21.7893 4.96086 21.4142 4.58579C21.0391 4.21071 20.5304 4 20 4ZM14 13.83C14 14.0952 13.8946 14.3496 13.7071 14.5371C13.5196 14.7246 13.2652 14.83 13 14.83C12.7348 14.83 12.4804 14.7246 12.2929 14.5371C12.1054 14.3496 12 14.0952 12 13.83V10.17C12 9.90478 12.1054 9.65043 12.2929 9.46289C12.4804 9.27536 12.7348 9.17 13 9.17C13.2652 9.17 13.5196 9.27536 13.7071 9.46289C13.8946 9.65043 14 9.90478 14 10.17V13.83Z" fill="#FEECEB"/>
</svg>
