<svg width="24" height="24" viewBox="0 0 24 24" fill="none" xmlns="http://www.w3.org/2000/svg">
<path d="M18.4799 5.09109L17.3221 6.57851C19.8178 8.5205 21.0627 11.6645 20.5714 14.7845C20.2115 17.0739 18.9813 19.0861 17.1078 20.4508C15.2337 21.8148 12.9412 22.3692 10.6518 22.0074C5.9257 21.2632 2.68518 16.813 3.42809 12.0865C3.78802 9.79686 5.01856 7.78453 6.8923 6.42022C8.52822 5.22932 10.4831 4.65734 12.4766 4.77079L10.8472 6.48017L12.056 7.63367L14.628 4.93342L14.6286 4.93441L15.7809 3.72443L14.573 2.57218L14.5724 2.57255L11.8732 0L10.72 1.20998L12.4788 2.88517C10.088 2.77208 7.74618 3.46755 5.78314 4.89688C3.50253 6.55746 2.00508 9.00664 1.56662 11.794C0.662198 17.5466 4.60611 22.964 10.3587 23.8693C10.9147 23.957 11.4705 24 12.0227 24C14.2385 24 16.3915 23.3035 18.217 21.9742C20.4978 20.3133 21.995 17.8642 22.4335 15.0775C23.0316 11.2807 21.5166 7.45395 18.4799 5.09109Z" fill="#192D4E"/>
<path d="M13.0349 18.8238V18.8234L13.035 17.7388C14.321 17.5952 15.5723 16.7828 15.5723 15.2405C15.5723 13.145 13.6237 12.9047 12.2005 12.7294C11.2905 12.6207 10.594 12.4945 10.594 11.9432C10.594 11.1767 11.6743 11.0941 12.1389 11.0941C12.8284 11.0941 13.5641 11.4182 13.8141 11.8319L13.8867 11.9522L15.3163 11.2907L15.2455 11.1465C14.7128 10.0574 13.7581 9.74231 13.0347 9.61511V8.66016H11.3607V9.61102C9.80231 9.8409 8.87684 10.7058 8.87684 11.9432C8.87684 13.9608 10.7088 14.1656 12.0454 14.3154C13.2365 14.4559 13.7911 14.7502 13.7911 15.2405C13.7911 16.1773 12.4938 16.2505 12.0961 16.2505C11.2108 16.2505 10.3573 15.8088 10.1105 15.2223L10.0492 15.0775L8.49609 15.736L8.55802 15.8808C9.01791 16.9572 10.0103 17.6317 11.3609 17.7913V18.8238H13.0349Z" fill="#192D4E"/>
</svg>
