<svg width="40" height="40" viewBox="0 0 40 40" fill="none" xmlns="http://www.w3.org/2000/svg">
<path d="M28.8383 3.75H11.1617C9.19597 3.75 7.31078 4.53087 5.92083 5.92083C4.53087 7.31078 3.75 9.19597 3.75 11.1617V28.8383C3.75 30.804 4.53087 32.6892 5.92083 34.0792C7.31078 35.4691 9.19597 36.25 11.1617 36.25H28.8383C30.804 36.25 32.6892 35.4691 34.0792 34.0792C35.4691 32.6892 36.25 30.804 36.25 28.8383V11.1617C36.25 9.19597 35.4691 7.31078 34.0792 5.92083C32.6892 4.53087 30.804 3.75 28.8383 3.75ZM14.7383 29.9867C14.7436 30.0774 14.7302 30.1682 14.699 30.2536C14.6679 30.3389 14.6196 30.417 14.5572 30.4831C14.4947 30.5491 14.4195 30.6016 14.336 30.6375C14.2525 30.6734 14.1625 30.6918 14.0717 30.6917H11.105C10.9261 30.6873 10.756 30.6129 10.6314 30.4845C10.5067 30.3561 10.4374 30.184 10.4383 30.005V17.6667C10.4359 17.5776 10.4513 17.4889 10.4837 17.4059C10.5161 17.3229 10.5648 17.2472 10.627 17.1834C10.6891 17.1195 10.7635 17.0688 10.8456 17.0341C10.9277 16.9995 11.0159 16.9816 11.105 16.9817H14.0717C14.1608 16.9816 14.249 16.9995 14.3311 17.0341C14.4132 17.0688 14.4875 17.1195 14.5497 17.1834C14.6118 17.2472 14.6605 17.3229 14.6929 17.4059C14.7254 17.4889 14.7408 17.5776 14.7383 17.6667V29.9867ZM12.5333 14.3867C12.2121 14.3843 11.8946 14.3186 11.5987 14.1935C11.3029 14.0683 11.0347 13.8862 10.8092 13.6573C10.5838 13.4285 10.4057 13.1575 10.285 12.8599C10.1643 12.5622 10.1034 12.2437 10.1058 11.9225C10.1082 11.6013 10.1739 11.2837 10.299 10.9879C10.4242 10.6921 10.6063 10.4238 10.8352 10.1984C11.064 9.97299 11.335 9.79485 11.6326 9.67416C11.9303 9.55347 12.2488 9.49259 12.57 9.495C13.2075 9.51573 13.8117 9.78479 14.2536 10.2448C14.6956 10.7047 14.9402 11.3192 14.9355 11.957C14.9307 12.5949 14.6768 13.2056 14.228 13.6589C13.7793 14.1122 13.1711 14.3722 12.5333 14.3833M30.5617 29.9667C30.5609 30.1351 30.4948 30.2966 30.3773 30.4172C30.2597 30.5378 30.1 30.6082 29.9317 30.6133H26.8C26.6314 30.6081 26.4714 30.5376 26.3538 30.4166C26.2363 30.2956 26.1704 30.1337 26.17 29.965V24.2583C26.17 23.4067 26.43 20.5533 23.91 20.5533C21.945 20.5533 21.5567 22.5533 21.4817 23.4433V30.095C21.4817 30.264 21.416 30.4264 21.2984 30.5477C21.1808 30.669 21.0206 30.7398 20.8517 30.745H17.8133C17.6412 30.7446 17.4763 30.6759 17.3548 30.554C17.2333 30.4322 17.165 30.2671 17.165 30.095V17.6067C17.1702 17.4378 17.241 17.2775 17.3623 17.1599C17.4836 17.0423 17.646 16.9766 17.815 16.9767H20.8517C21.0206 16.9766 21.183 17.0423 21.3044 17.1599C21.4257 17.2775 21.4965 17.4378 21.5017 17.6067V18.6817C21.9451 18.0327 22.5572 17.5171 23.2721 17.1905C23.987 16.8639 24.7775 16.7387 25.5583 16.8283C30.6167 16.8283 30.5983 21.5533 30.5983 24.24L30.5617 29.9667Z" fill="#F04436"/>
</svg>
