<svg width="24" height="24" viewBox="0 0 24 24" fill="none" xmlns="http://www.w3.org/2000/svg">
<path d="M2.25 2.78877V21.2106C2.25012 21.2506 2.26204 21.2897 2.28427 21.3229C2.30649 21.3561 2.33803 21.382 2.37492 21.3974C2.41182 21.4128 2.45243 21.4169 2.49166 21.4093C2.5309 21.4016 2.56701 21.3826 2.59547 21.3546L12.1875 12.0002L2.59547 2.64486C2.56701 2.6168 2.5309 2.59777 2.49166 2.59015C2.45243 2.58253 2.41182 2.58666 2.37492 2.60203C2.33803 2.6174 2.30649 2.64332 2.28427 2.67654C2.26204 2.70976 2.25012 2.7488 2.25 2.78877Z" fill="white"/>
<path d="M16.2084 8.15639L4.18118 1.53014L4.17368 1.52592C3.96649 1.41342 3.76962 1.69373 3.93931 1.85686L13.3673 10.8719L16.2084 8.15639Z" fill="white"/>
<path d="M3.93986 22.1434C3.76923 22.3065 3.96611 22.5868 4.17423 22.4743L4.18173 22.4701L16.208 15.8438L13.3669 13.1274L3.93986 22.1434Z" fill="white"/>
<path d="M21.0634 10.8282L17.7048 8.97852L14.5469 12.0001L17.7048 15.0202L21.0634 13.172C21.977 12.6671 21.977 11.333 21.0634 10.8282Z" fill="white"/>
</svg>
