<svg width="40" height="40" viewBox="0 0 40 40" fill="none" xmlns="http://www.w3.org/2000/svg">
<path fillRule="evenodd" clip-rule="evenodd" d="M26.6667 36.25C29.2083 36.25 31.6459 35.2403 33.4431 33.4431C35.2403 31.6459 36.25 29.2083 36.25 26.6667V13.3333C36.25 10.7917 35.2403 8.35412 33.4431 6.55689C31.6459 4.75967 29.2083 3.75 26.6667 3.75H13.3333C10.7917 3.75 8.35412 4.75967 6.55689 6.55689C4.75967 8.35412 3.75 10.7917 3.75 13.3333V26.6667C3.75 29.2083 4.75967 31.6459 6.55689 33.4431C8.35412 35.2403 10.7917 36.25 13.3333 36.25H26.6667ZM22.8517 9.605C22.7574 9.32407 22.5663 9.08578 22.3126 8.93265C22.0589 8.77952 21.759 8.72151 21.4665 8.76896C21.174 8.81641 20.9078 8.96624 20.7156 9.19172C20.5233 9.4172 20.4173 9.70366 20.4167 10V25C20.4167 25.7417 20.1967 26.4667 19.7847 27.0834C19.3726 27.7001 18.787 28.1807 18.1017 28.4645C17.4165 28.7484 16.6625 28.8226 15.9351 28.6779C15.2076 28.5332 14.5395 28.1761 14.015 27.6516C13.4906 27.1272 13.1334 26.459 12.9887 25.7316C12.844 25.0042 12.9183 24.2502 13.2021 23.5649C13.4859 22.8797 13.9666 22.294 14.5833 21.882C15.2 21.4699 15.925 21.25 16.6667 21.25C16.9982 21.25 17.3161 21.1183 17.5505 20.8839C17.785 20.6495 17.9167 20.3315 17.9167 20C17.9167 19.6685 17.785 19.3505 17.5505 19.1161C17.3161 18.8817 16.9982 18.75 16.6667 18.75C15.4305 18.75 14.2222 19.1166 13.1944 19.8033C12.1665 20.4901 11.3655 21.4662 10.8924 22.6082C10.4194 23.7503 10.2956 25.0069 10.5368 26.2193C10.7779 27.4317 11.3732 28.5453 12.2472 29.4194C13.1213 30.2935 14.235 30.8887 15.4474 31.1299C16.6597 31.3711 17.9164 31.2473 19.0584 30.7742C20.2005 30.3012 21.1766 29.5001 21.8634 28.4723C22.5501 27.4445 22.9167 26.2361 22.9167 25V14.0967C24.195 15.2833 25.995 16.25 28.3333 16.25C28.6649 16.25 28.9828 16.1183 29.2172 15.8839C29.4516 15.6495 29.5833 15.3315 29.5833 15C29.5833 14.6685 29.4516 14.3505 29.2172 14.1161C28.9828 13.8817 28.6649 13.75 28.3333 13.75C26.7133 13.75 25.4817 13.0833 24.5683 12.2183C23.635 11.3317 23.0717 10.2633 22.8517 9.605Z" fill="#F04436"/>
</svg>
