<svg width="40" height="40" viewBox="0 0 40 40" fill="none" xmlns="http://www.w3.org/2000/svg">
<path fill-rule="evenodd" clip-rule="evenodd" d="M8.33464 1.6665C6.56653 1.6665 4.87083 2.36888 3.62059 3.61913C2.37035 4.86937 1.66797 6.56506 1.66797 8.33317V31.6665C1.66797 33.4346 2.37035 35.1303 3.62059 36.3806C4.87083 37.6308 6.56653 38.3332 8.33464 38.3332H31.668C33.4361 38.3332 35.1318 37.6308 36.382 36.3806C37.6323 35.1303 38.3346 33.4346 38.3346 31.6665V8.33317C38.3346 6.56506 37.6323 4.86937 36.382 3.61913C35.1318 2.36888 33.4361 1.6665 31.668 1.6665H8.33464ZM7.77797 7.49984C7.59552 7.56764 7.43143 7.67711 7.29876 7.81954C7.16609 7.96196 7.06852 8.13339 7.01381 8.32018C6.9591 8.50698 6.94876 8.70396 6.98363 8.89546C7.0185 9.08695 7.0976 9.26765 7.21464 9.42317L16.5713 21.8398L6.71297 32.4148L6.63964 32.4998H10.0513L18.1013 23.8682L24.288 32.0815C24.4315 32.2716 24.6264 32.4168 24.8496 32.4998H32.2196C32.4018 32.4317 32.5656 32.3219 32.6979 32.1794C32.8302 32.0368 32.9274 31.8653 32.9818 31.6785C33.0361 31.4918 33.0462 31.2949 33.0111 31.1036C32.976 30.9123 32.8967 30.7318 32.7796 30.5765L23.423 18.1598L33.363 7.49984H29.9463L21.8963 16.1332L15.7063 7.91984C15.563 7.72911 15.3681 7.58337 15.1446 7.49984H7.77797ZM25.9113 30.0798L10.7196 9.91984H14.0846L29.2746 30.0782L25.9113 30.0798Z" fill="#F04436"/>
</svg>
