<svg width="40" height="40" viewBox="0 0 40 40" fill="none" xmlns="http://www.w3.org/2000/svg">
<path fill-rule="evenodd" clip-rule="evenodd" d="M8.33332 1.66602C6.56521 1.66602 4.86952 2.36839 3.61928 3.61864C2.36904 4.86888 1.66666 6.56457 1.66666 8.33268V31.666C1.66666 33.4341 2.36904 35.1298 3.61928 36.3801C4.86952 37.6303 6.56521 38.3327 8.33332 38.3327H31.6667C33.4348 38.3327 35.1305 37.6303 36.3807 36.3801C37.6309 35.1298 38.3333 33.4341 38.3333 31.666V8.33268C38.3333 6.56457 37.6309 4.86888 36.3807 3.61864C35.1305 2.36839 33.4348 1.66602 31.6667 1.66602H8.33332ZM7.77666 7.49935C7.59421 7.56715 7.43012 7.67663 7.29745 7.81905C7.16478 7.96147 7.06721 8.1329 7.0125 8.3197C6.95779 8.50649 6.94745 8.70348 6.98232 8.89497C7.01718 9.08646 7.09629 9.26716 7.21332 9.42268L16.57 21.8393L6.71166 32.4143L6.63832 32.4993H10.05L18.1 23.8677L24.2867 32.081C24.4302 32.2711 24.6251 32.4163 24.8483 32.4993H32.2183C32.4005 32.4312 32.5643 32.3215 32.6966 32.1789C32.8289 32.0363 32.9261 31.8648 32.9804 31.6781C33.0348 31.4913 33.0449 31.2944 33.0098 31.1031C32.9747 30.9118 32.8954 30.7313 32.7783 30.576L23.4217 18.1593L33.3617 7.49935H29.945L21.895 16.1327L15.705 7.91935C15.5617 7.72862 15.3668 7.58288 15.1433 7.49935H7.77666ZM25.91 30.0794L10.7183 9.91935H14.0833L29.2733 30.0777L25.91 30.0794Z" fill="#F04436"/>
</svg>
