<svg width="40" height="40" viewBox="0 0 40 40" fill="none" xmlns="http://www.w3.org/2000/svg">
<path fill-rule="evenodd" clip-rule="evenodd" d="M19.9987 6.6665C21.4237 6.6665 22.8854 6.70317 24.302 6.76317L25.9754 6.84317L27.577 6.93817L29.077 7.03984L30.447 7.1465C31.934 7.25966 33.3334 7.89389 34.3986 8.93751C35.4639 9.98112 36.1267 11.3672 36.2704 12.8515L36.337 13.5598L36.462 15.0765C36.5787 16.6482 36.6654 18.3615 36.6654 19.9998C36.6654 21.6382 36.5787 23.3515 36.462 24.9232L36.337 26.4398L36.2704 27.1482C36.1267 28.6328 35.4636 30.019 34.398 31.0627C33.3324 32.1063 31.9326 32.7404 30.4454 32.8532L29.0787 32.9582L27.5787 33.0615L25.9754 33.1565L24.302 33.2365C22.8684 33.2986 21.4337 33.3308 19.9987 33.3332C18.5637 33.3308 17.129 33.2986 15.6954 33.2365L14.022 33.1565L12.4204 33.0615L10.9204 32.9582L9.55036 32.8532C8.06339 32.74 6.66403 32.1058 5.59877 31.0622C4.53351 30.0186 3.87068 28.6325 3.72703 27.1482L3.66036 26.4398L3.53536 24.9232C3.40842 23.285 3.3406 21.6429 3.33203 19.9998C3.33203 18.3615 3.4187 16.6482 3.53536 15.0765L3.66036 13.5598L3.72703 12.8515C3.87063 11.3674 4.53322 9.98159 5.59814 8.93801C6.66306 7.89444 8.06202 7.26003 9.5487 7.1465L10.917 7.03984L12.417 6.93817L14.0204 6.84317L15.6937 6.76317C17.1279 6.70105 18.5632 6.66882 19.9987 6.6665ZM16.6654 15.9582V24.0415C16.6654 24.8115 17.4987 25.2915 18.1654 24.9082L25.1654 20.8665C25.3177 20.7788 25.4442 20.6525 25.5322 20.5004C25.6202 20.3482 25.6665 20.1756 25.6665 19.9998C25.6665 19.8241 25.6202 19.6514 25.5322 19.4993C25.4442 19.3471 25.3177 19.2209 25.1654 19.1332L18.1654 15.0932C18.0133 15.0054 17.8408 14.9592 17.6652 14.9592C17.4896 14.9592 17.3171 15.0055 17.1651 15.0933C17.013 15.1812 16.8868 15.3075 16.7991 15.4596C16.7114 15.6117 16.6653 15.7842 16.6654 15.9598V15.9582Z" fill="#F04436"/>
</svg>
